<?xml version="1.0" encoding="UTF-8"?> <svg xmlns="http://www.w3.org/2000/svg" width="256" height="52" viewBox="0 0 256 52" fill="none"><path fill-rule="evenodd" clip-rule="evenodd" d="M94.9079 19.4867C96.915 19.4867 98.7277 19.9822 100.344 20.9726C101.989 21.9347 103.299 23.2504 104.274 24.9197C105.251 26.5893 105.739 28.4433 105.739 30.4807C105.739 32.2069 105.418 33.749 104.776 35.1073C104.163 36.4373 103.327 37.5837 102.267 38.5458C101.236 39.508 100.079 40.2439 98.7964 40.7532C97.5421 41.2342 96.2739 41.4747 94.9916 41.4747C93.6815 41.4747 92.3709 41.2196 91.0603 40.7103C89.7785 40.1726 88.6079 39.4228 87.5484 38.4609C86.4892 37.4987 85.6529 36.3524 85.0394 35.0224C84.4265 33.6642 84.1191 32.1648 84.1191 30.5237C84.1191 28.9956 84.3984 27.5805 84.9557 26.2788C85.5136 24.9488 86.2938 23.774 87.2974 22.7553C88.3009 21.7367 89.4438 20.9439 90.7256 20.378C92.0362 19.7838 93.4306 19.4867 94.9079 19.4867ZM94.8661 25.896C94.0299 25.896 93.2771 26.0946 92.6081 26.4906C91.9671 26.8868 91.4366 27.4389 91.0185 28.1464C90.6285 28.8255 90.4338 29.6036 90.4338 30.4807C90.4338 31.4993 90.6565 32.3624 91.1021 33.0698C91.5764 33.749 92.1625 34.2581 92.8591 34.5977C93.5562 34.9089 94.2389 35.0654 94.9079 35.0654C95.5769 35.0653 96.2602 34.8953 96.9567 34.5557C97.6537 34.2162 98.239 33.7068 98.7127 33.0278C99.1869 32.3488 99.4238 31.4856 99.4239 30.4387C99.4239 29.5332 99.2288 28.7406 98.8382 28.0615C98.4481 27.3823 97.9048 26.8585 97.2077 26.4906C96.5387 26.0945 95.7584 25.8961 94.8661 25.896Z" fill="#242424"></path><path fill-rule="evenodd" clip-rule="evenodd" d="M118.64 19.4927C120.499 19.5507 122.187 20.044 123.703 20.9726C125.347 21.9347 126.658 23.2504 127.633 24.9197C128.609 26.5893 129.097 28.4433 129.097 30.4807C129.097 32.2069 128.777 33.749 128.135 35.1073C127.522 36.4373 126.685 37.5837 125.626 38.5458C124.594 39.5079 123.437 40.2439 122.155 40.7532C121.057 41.174 119.949 41.4111 118.83 41.4637C118.67 41.4712 118.51 41.4747 118.35 41.4747C118.187 41.4747 118.023 41.4707 117.859 41.4627C116.713 41.407 115.565 41.156 114.419 40.7103C113.137 40.1726 111.966 39.4229 110.907 38.4609C109.848 37.4987 109.011 36.3524 108.398 35.0224C107.785 33.6642 107.478 32.1648 107.478 30.5237C107.478 28.9956 107.757 27.5804 108.314 26.2788C108.872 24.9488 109.652 23.774 110.656 22.7553C111.659 21.7366 112.803 20.944 114.085 20.378C115.232 19.8582 116.442 19.5656 117.717 19.5007C117.899 19.4914 118.082 19.4867 118.266 19.4867C118.392 19.4867 118.516 19.4888 118.64 19.4927ZM117.915 25.906C117.201 25.9494 116.552 26.144 115.967 26.4906C115.326 26.8868 114.795 27.4389 114.377 28.1464C113.987 28.8255 113.792 29.6036 113.792 30.4807C113.792 31.4993 114.015 32.3624 114.461 33.0698C114.934 33.749 115.521 34.2581 116.218 34.5977C116.827 34.87 117.426 35.0233 118.014 35.0574C118.099 35.0622 118.183 35.0654 118.266 35.0654C118.35 35.0654 118.434 35.0627 118.517 35.0574C119.106 35.0203 119.705 34.8529 120.315 34.5557C121.012 34.2162 121.598 33.7068 122.071 33.0278C122.545 32.3488 122.782 31.4856 122.782 30.4387C122.782 29.5332 122.587 28.7406 122.197 28.0615C121.807 27.3823 121.263 26.8585 120.566 26.4906C119.981 26.1441 119.31 25.9494 118.554 25.906C118.446 25.8998 118.336 25.896 118.225 25.896C118.12 25.896 118.017 25.8998 117.915 25.906Z" fill="#242424"></path><path d="M178.324 19.8734C179.811 19.9232 181.077 20.3467 182.122 21.1425C183.265 21.9631 184.129 23.1517 184.715 24.7079C185.3 26.2643 185.592 28.1466 185.592 30.3538V37.9513C185.592 38.4889 185.537 39.0128 185.425 39.5221C185.341 40.0029 185.077 40.3991 184.631 40.7103C184.185 40.9933 183.446 41.1349 182.414 41.1349C181.382 41.1349 180.644 40.9795 180.198 40.6683C179.78 40.357 179.516 39.9602 179.404 39.4792C179.32 38.97 179.278 38.4468 179.278 37.9093V30.3108C179.278 29.4336 179.181 28.6977 178.986 28.1034C178.79 27.5092 178.483 27.0567 178.065 26.7454C177.675 26.4059 177.174 26.2358 176.56 26.2358C175.919 26.2358 175.375 26.3912 174.929 26.7024C174.483 26.9854 174.149 27.4389 173.926 28.0615C173.703 28.6557 173.591 29.42 173.591 30.3538V37.9513C173.591 38.5171 173.521 39.0548 173.382 39.5641C173.243 40.0451 172.935 40.442 172.462 40.7532C172.015 41.0361 171.291 41.1633 170.287 41.1349C169.284 41.1066 168.573 40.9366 168.155 40.6253C167.737 40.3141 167.486 39.9182 167.402 39.4372C167.318 38.9279 167.276 38.4185 167.276 37.9093V30.3108C167.276 29.4336 167.179 28.6977 166.984 28.1034C166.788 27.481 166.496 27.0137 166.106 26.7024C165.716 26.3912 165.199 26.2358 164.558 26.2358C163.861 26.2358 163.29 26.4197 162.844 26.7874C162.398 27.1553 162.063 27.6507 161.84 28.2733C161.645 28.8675 161.547 29.5468 161.547 30.3108V37.9513C161.547 38.5172 161.492 39.0411 161.38 39.5221C161.296 40.003 161.032 40.3991 160.586 40.7103C160.14 40.9932 159.402 41.1349 158.37 41.1349C157.366 41.1349 156.641 40.9795 156.195 40.6683C155.749 40.357 155.485 39.9601 155.401 39.4792C155.317 38.9983 155.275 38.475 155.275 37.9093V23.0521C155.275 22.4863 155.317 21.9769 155.401 21.5242C155.513 21.0433 155.791 20.661 156.237 20.378C156.683 20.0668 157.422 19.9114 158.454 19.9114L158.827 19.9214C159.669 19.9678 160.297 20.1765 160.712 20.5479C161.134 20.9014 161.366 21.4692 161.412 22.2507C161.686 21.9227 162.038 21.5817 162.468 21.2274C162.914 20.8596 163.429 20.5478 164.014 20.2931C164.628 20.0101 165.284 19.8694 165.981 19.8694C166.9 19.8694 167.723 20.0101 168.448 20.2931C169.2 20.5478 169.869 20.9446 170.455 21.4822C171.068 21.9916 171.597 22.6425 172.043 23.4348C172.433 22.8689 172.908 22.3167 173.466 21.779C174.023 21.2414 174.678 20.7889 175.431 20.421C176.212 20.0531 177.075 19.8694 178.023 19.8694L178.324 19.8734Z" fill="#242424"></path><path fill-rule="evenodd" clip-rule="evenodd" d="M149.106 10.2834C149.942 10.3174 150.543 10.4707 150.909 10.7431C151.355 11.026 151.619 11.4083 151.703 11.8892C151.814 12.3701 151.87 12.8934 151.87 13.4591V37.9093C151.87 38.4468 151.814 38.97 151.703 39.4792C151.619 39.9601 151.355 40.357 150.909 40.6683C150.543 40.9407 149.952 41.0939 149.138 41.128C149.022 41.1328 148.901 41.1349 148.775 41.1349C148.657 41.1349 148.543 41.1328 148.432 41.128C147.654 41.0939 147.058 40.9407 146.643 40.6683C146.169 40.357 145.863 39.8752 145.724 39.2243V39.1214C145.269 39.5511 144.768 39.9266 144.218 40.2436C143.214 40.8095 142.015 41.092 140.621 41.092C139.367 41.0919 138.154 40.8232 136.984 40.2856C135.841 39.7196 134.823 38.9417 133.931 37.9513C133.039 36.9609 132.328 35.829 131.798 34.5557C131.297 33.2542 131.045 31.8817 131.045 30.4387C131.045 29.0521 131.297 27.7357 131.798 26.4906C132.328 25.2172 133.039 24.0992 133.931 23.137C134.851 22.1467 135.883 21.3686 137.025 20.8027C138.168 20.2369 139.367 19.9534 140.621 19.9534C141.959 19.9534 143.13 20.2368 144.134 20.8027C144.718 21.1072 145.247 21.4814 145.724 21.9219V13.502C145.724 12.9645 145.751 12.4551 145.806 11.9742C145.89 11.4649 146.141 11.0543 146.559 10.7431C146.925 10.4707 147.526 10.3175 148.361 10.2834C148.48 10.2785 148.605 10.2754 148.734 10.2754L149.106 10.2834ZM141.136 26.2867C140.49 26.327 139.886 26.5085 139.325 26.8304C138.712 27.1982 138.225 27.7075 137.862 28.3582C137.528 28.9807 137.36 29.7022 137.36 30.5227C137.36 31.315 137.541 32.0373 137.904 32.6881C138.267 33.3388 138.768 33.8629 139.409 34.2589C139.97 34.5807 140.563 34.7613 141.188 34.8016C141.277 34.8073 141.367 34.8105 141.458 34.8105C141.552 34.8105 141.645 34.8073 141.737 34.8016C142.377 34.7613 142.953 34.5806 143.465 34.2589C144.078 33.8628 144.566 33.3389 144.929 32.6881C145.319 32.0373 145.514 31.315 145.514 30.5227C145.514 29.7022 145.333 28.9807 144.971 28.3582C144.608 27.7074 144.12 27.1982 143.507 26.8304C142.97 26.5085 142.369 26.327 141.705 26.2867C141.61 26.281 141.513 26.2788 141.416 26.2788C141.322 26.2788 141.228 26.281 141.136 26.2867Z" fill="#242424"></path><path d="M223.472 19.7045C223.712 19.7152 223.968 19.7421 224.24 19.7845C224.63 19.8128 225.021 19.8968 225.411 20.0383C225.829 20.1515 226.205 20.3217 226.539 20.5479C226.874 20.746 227.139 21.0011 227.334 21.3124C227.557 21.6236 227.669 22.0058 227.669 22.4585C227.669 23.6186 227.404 24.6088 226.874 25.4294C226.345 26.2217 225.676 26.6185 224.867 26.6185C224.393 26.6185 224.058 26.5755 223.863 26.4906C223.668 26.4057 223.501 26.3206 223.361 26.2358C223.25 26.1511 223.111 26.0804 222.944 26.0239C222.818 25.9603 222.614 25.92 222.332 25.904L222.023 25.896C221.605 25.896 221.201 25.9527 220.81 26.0659C220.448 26.1791 220.1 26.3639 219.765 26.6185C219.459 26.8449 219.208 27.142 219.013 27.5099C218.845 27.8492 218.762 28.2309 218.762 28.655V37.9942C218.761 38.5317 218.706 39.0549 218.594 39.5641C218.511 40.045 218.246 40.4273 217.8 40.7103C217.355 40.9933 216.615 41.1349 215.583 41.1349C214.552 41.1349 213.813 40.9932 213.367 40.7103C212.949 40.399 212.685 39.9884 212.573 39.4792C212.49 38.97 212.448 38.4468 212.448 37.9093V23.0951C212.448 22.5291 212.504 22.0053 212.615 21.5242C212.727 21.0433 212.991 20.661 213.409 20.378C213.855 20.0668 214.594 19.9114 215.625 19.9114C216.601 19.9114 217.299 20.0531 217.717 20.3361C218.163 20.5906 218.441 20.9018 218.552 21.2694C218.611 21.4478 218.653 21.6151 218.681 21.77C218.926 21.4763 219.245 21.1814 219.64 20.8877C220.058 20.5481 220.56 20.2646 221.145 20.0383C221.758 19.812 222.456 19.6996 223.236 19.6995L223.472 19.7045Z" fill="#242424"></path><path d="M235.573 12.8225C236.577 12.8226 237.301 12.979 237.748 13.2902C238.193 13.6014 238.459 13.9974 238.542 14.4783C238.654 14.9593 238.71 15.4833 238.71 16.0492V20.1632L241.512 20.0813C242.041 20.0813 242.542 20.138 243.016 20.2511C243.49 20.336 243.881 20.6048 244.188 21.0575C244.494 21.5103 244.647 22.2602 244.647 23.3069C244.647 24.2688 244.494 24.9766 244.188 25.4294C243.909 25.8821 243.532 26.1792 243.058 26.3207C242.584 26.4339 242.069 26.4906 241.512 26.4906L238.71 26.4256V32.8999C238.71 33.3527 238.737 33.7349 238.793 34.0461C238.877 34.3288 238.988 34.5412 239.127 34.6826C239.266 34.8241 239.462 34.9238 239.713 34.9804C239.964 35.037 240.27 35.0654 240.633 35.0654C241.246 35.0654 241.789 35.1221 242.264 35.2352C242.737 35.3484 243.1 35.6026 243.351 35.9987C243.63 36.3948 243.769 37.0604 243.769 37.9942C243.769 39.0128 243.616 39.7489 243.309 40.2016C243.002 40.6542 242.598 40.9232 242.096 41.008C241.622 41.0929 241.12 41.1349 240.591 41.1349C239.169 41.1349 237.942 40.9795 236.911 40.6683C235.907 40.357 235.071 39.8761 234.402 39.2253C233.733 38.5745 233.232 37.7534 232.897 36.7631C232.59 35.7444 232.437 34.5414 232.437 33.1548V26.3637H230.974C230.165 26.3354 229.593 26.0949 229.259 25.6422C228.952 25.1612 228.798 24.3685 228.798 23.2649C228.798 22.2462 228.993 21.4956 229.384 21.0146C229.774 20.5054 230.36 20.2511 231.141 20.2511H232.437V15.9213C232.437 15.3554 232.479 14.8461 232.562 14.3934C232.673 13.9406 232.953 13.5732 233.399 13.2902C233.845 12.9789 234.57 12.8225 235.573 12.8225Z" fill="#242424"></path><path fill-rule="evenodd" clip-rule="evenodd" d="M205.988 19.9114C206.991 19.9114 207.702 20.0669 208.12 20.378C208.566 20.6893 208.831 21.0998 208.915 21.6091C209.027 22.1184 209.082 22.6561 209.082 23.222V37.8663C209.082 38.404 209.027 38.9278 208.915 39.4372C208.831 39.9465 208.566 40.3571 208.12 40.6683C207.702 40.9511 206.977 41.092 205.946 41.092C204.915 41.092 204.148 40.9083 203.646 40.5404C203.172 40.1725 202.935 39.72 202.935 39.1824L203.353 38.4609C203.186 38.7438 202.866 39.0978 202.392 39.5221C201.918 39.9183 201.304 40.2857 200.551 40.6253C199.799 40.9365 198.865 41.092 197.75 41.092C196.468 41.0919 195.241 40.8094 194.07 40.2436C192.928 39.6777 191.91 38.8996 191.017 37.9093C190.126 36.8906 189.415 35.7441 188.885 34.4708C188.383 33.1975 188.132 31.8534 188.132 30.4387C188.132 29.0521 188.383 27.7357 188.885 26.4906C189.415 25.2173 190.126 24.0991 191.017 23.137C191.937 22.1467 192.969 21.3686 194.112 20.8027C195.255 20.2369 196.468 19.9534 197.75 19.9534C198.781 19.9534 199.659 20.1098 200.384 20.421C201.109 20.704 201.709 21.0431 202.183 21.4393C202.684 21.8353 203.06 22.2176 203.311 22.5854L202.977 21.9909C202.949 21.3119 203.172 20.8025 203.646 20.463C204.148 20.0951 204.929 19.9114 205.988 19.9114ZM198.586 26.1938C197.778 26.1938 197.053 26.3914 196.412 26.7874C195.799 27.1835 195.297 27.7074 194.906 28.3582C194.544 29.0091 194.363 29.745 194.363 30.5656C194.363 31.3296 194.544 32.0373 194.906 32.6881C195.297 33.3107 195.813 33.8198 196.454 34.216C197.123 34.5838 197.862 34.7676 198.67 34.7676C199.395 34.7676 200.05 34.5838 200.635 34.216C201.248 33.8198 201.723 33.296 202.057 32.6451C202.42 31.9944 202.6 31.2729 202.6 30.4807C202.6 29.6603 202.42 28.9387 202.057 28.3163C201.695 27.6654 201.207 27.1553 200.593 26.7874C199.98 26.3914 199.311 26.1938 198.586 26.1938Z" fill="#242424"></path><path d="M81.5772 11.2417C82.0213 11.2629 82.5358 11.3793 83.1211 11.5914C83.9573 11.9027 84.5435 12.2282 84.878 12.5677C85.2126 12.9073 85.38 13.3324 85.38 13.8418C85.408 14.3228 85.3099 14.9593 85.0872 15.7514L77.2256 38.8856C77.17 39.0554 77.0444 39.3243 76.8492 39.692C76.6819 40.0315 76.3888 40.3424 75.9707 40.6253C75.6294 40.8729 75.1388 41.012 74.4986 41.043C74.407 41.0474 74.3124 41.05 74.2147 41.05C74.1207 41.05 74.029 41.0473 73.9398 41.042C73.3147 41.0049 72.8074 40.8375 72.4169 40.5404C71.9707 40.2008 71.65 39.847 71.4547 39.4792C71.2875 39.0831 71.1756 38.8142 71.1201 38.6727L66.3113 22.8403L61.5025 38.6727C61.4745 38.8142 61.3631 39.0832 61.1679 39.4792C60.9726 39.8753 60.6519 40.2438 60.2057 40.5833C59.8398 40.8556 59.3352 41.009 58.6918 41.043C58.6 41.0479 58.5054 41.05 58.4079 41.05C58.3172 41.05 58.2289 41.0474 58.143 41.043C57.5426 41.012 57.0596 40.8728 56.6938 40.6253C56.2756 40.3423 55.9688 40.0169 55.7735 39.649C55.6063 39.2815 55.4944 39.0271 55.4388 38.8856L47.5772 15.7514C47.215 14.5633 47.1592 13.6862 47.4099 13.1203C47.6608 12.5261 48.3856 12.0305 49.5842 11.6344C50.1697 11.4434 50.6693 11.3315 51.0822 11.2996C51.2198 11.289 51.3483 11.2876 51.4667 11.2946C51.9683 11.3231 52.3724 11.5214 52.6788 11.8892C53.0133 12.2571 53.3065 12.8368 53.5573 13.629L58.7844 29.3775L63.1748 13.8418C63.2585 13.5589 63.3841 13.2333 63.5513 12.8655C63.7467 12.4976 64.0535 12.1722 64.4717 11.8892C64.8375 11.6417 65.331 11.5025 65.9527 11.4715C66.0417 11.4671 66.1334 11.4645 66.2276 11.4645C66.3357 11.4645 66.4403 11.4667 66.5414 11.4715C67.2487 11.5056 67.7851 11.6589 68.1509 11.9312C68.5972 12.2424 68.904 12.5826 69.0713 12.9504C69.2384 13.3181 69.3642 13.6008 69.4478 13.7988L73.88 29.4624L79.0653 13.6719C79.3162 12.8796 79.5955 12.2991 79.9019 11.9312C80.2364 11.5353 80.6543 11.3093 81.1559 11.2527C81.2885 11.2385 81.429 11.2346 81.5772 11.2417Z" fill="#242424"></path><path d="M251.783 41.5568C250.725 41.5568 249.82 41.1893 249.068 40.4542C248.316 39.691 247.94 38.7863 247.94 37.7403C247.94 36.666 248.316 35.7613 249.068 35.0263C249.82 34.263 250.725 33.8813 251.783 33.8813C252.814 33.8813 253.705 34.263 254.457 35.0263C255.237 35.7613 255.627 36.666 255.627 37.7403C255.627 38.7863 255.237 39.691 254.457 40.4542C253.705 41.1893 252.814 41.5568 251.783 41.5568Z" fill="#3452EF"></path><path d="M27.85 6.94422C25.8446 6.60518 23.5218 6.46027 21.9497 6.72486C19.9604 7.05968 15.9819 8.73378 14.6557 9.73824C13.3295 10.7427 12.6664 14.7605 11.0087 15.7649C9.68246 16.4346 0.399208 18.4435 0.067662 18.7783C-0.263884 19.1131 0.730763 20.7872 0.730763 20.7872C0.730763 20.7872 1.93797 25.6192 4.04622 27.8184C4.5206 28.3132 5.11378 28.7599 5.73991 29.1525C8.3227 30.7723 11.5137 30.7503 14.4923 30.135C15.4703 29.933 16.3864 29.4884 17.1548 28.8448C18.7801 27.4832 20.0916 25.7694 20.9836 23.8364L21.1866 23.3965C21.4661 22.7909 21.9402 22.2987 22.5319 21.9999L22.552 21.9898C22.7657 21.8818 23.0254 21.9759 23.1225 22.1965L23.4617 22.9672C23.9996 24.1894 24.4153 25.4627 24.7025 26.7683L24.8599 27.4833C24.9061 27.6937 25.0499 27.8687 25.246 27.9536L27.1371 28.7721C27.2146 28.8056 27.2851 28.8538 27.3447 28.9141L29.148 30.7351C29.3219 30.9108 29.4794 31.1024 29.6183 31.3074L31.4543 34.0173C31.5224 34.1177 31.5311 34.2474 31.4773 34.3561L30.3748 36.583C30.2882 36.7579 30.1303 36.8858 29.9425 36.9332L27.8849 37.4526C27.6868 37.5027 27.4822 37.5215 27.2784 37.5087L23.7993 37.2891C22.791 37.2255 21.7787 37.2856 20.7847 37.4681C19.3541 37.7308 17.941 38.1067 16.6315 38.7452C15.3475 39.3712 13.843 40.2153 12.5934 41.1783C10.5554 42.7487 12.0922 44.8941 14.6557 44.8941H24.9336C31.8204 44.8941 37.8469 41.174 41.1499 35.615C44.2759 30.3541 42.7476 23.6629 39.0973 18.7585C38.9444 18.5531 38.8585 18.4435 38.8585 18.4435C38.8585 18.4435 39.5216 15.7649 39.5216 15.4301C39.5216 15.0953 39.1901 14.0909 38.8585 13.7561C38.6421 13.5375 33.9036 10.322 30.6398 8.11591C29.7931 7.54357 28.8549 7.11412 27.85 6.94422ZM23.3846 11.6792C23.3376 11.5755 23.4365 11.4772 23.5413 11.5196L27.2834 13.0312C27.8883 13.2755 28.3357 13.8028 28.4925 14.4414C28.8293 15.8128 29.4475 18.1856 29.9068 19.1131C30.5699 20.4524 33.2223 23.131 34.2169 23.131C34.9232 23.131 35.7968 22.9621 36.2438 22.8642C36.2825 22.8557 36.2992 22.9055 36.2626 22.921C35.8058 23.1147 34.8456 23.4658 33.8853 23.4658C33.4749 23.4658 32.8422 23.1451 32.1642 22.7022C29.8653 21.2008 28.1413 19.0383 27.4509 16.3629C27.2784 15.6944 26.8352 14.9304 26.2352 14.5987C25.709 14.3079 25.0792 13.9031 24.6021 13.4212C23.9202 12.7327 23.55 12.0442 23.3846 11.6792ZM14.9872 14.0909C14.9872 14.0909 16.3134 14.4257 16.6449 14.7605C16.9765 15.0953 16.9765 15.4301 16.9765 15.4301L15.6355 16.5135C15.4874 16.6331 15.2664 16.5578 15.2204 16.372C15.0655 15.7465 14.9872 15.1041 14.9872 14.4593V14.0909Z" fill="#3452EF"></path><path d="M26.7005 31.442C26.6482 31.31 26.7444 31.1665 26.8852 31.1665H27.7511C27.8505 31.1665 27.9387 31.2307 27.9702 31.326C28.1348 31.8249 27.9485 32.3733 27.5152 32.665L27.4483 32.7101C27.3484 32.7774 27.2125 32.7348 27.1679 32.6222L26.7005 31.442Z" fill="#3452EF"></path></svg> 