<?xml version="1.0" encoding="UTF-8"?> <svg xmlns="http://www.w3.org/2000/svg" width="251" height="180" viewBox="0 0 251 180" fill="none"><g clip-path="url(#clip0_23153_67906)"><path d="M79.718 79.7377C80.1216 79.2083 80.4181 78.5804 80.5759 77.8471C81.302 74.4076 77.7479 71.8089 74.8434 70.9681C71.9007 70.0891 67.5823 70.4713 65.7097 73.2611C63.5695 76.3949 66.2065 79.9108 69.1109 81.3248C72.13 82.777 75.4166 82.6624 78.3975 81.1719C79.0221 80.8745 79.4616 80.3514 79.718 79.7377Z" fill="#3452EF"></path><path d="M169.888 101.618C170.029 101.537 170.177 101.453 170.33 101.367C171.806 99.9675 174.031 99.2509 176.317 99.1478C176.698 99.1136 177.072 99.1107 177.434 99.1459C180.032 99.2531 182.566 100.136 184.028 101.694C186.015 103.834 186.55 107.427 184.41 109.682C182.194 111.975 178.143 112.548 175.085 112.319C172.296 112.127 168.436 111.401 166.907 108.688C165.302 105.86 167.442 103.032 169.888 101.618Z" fill="#3452EF"></path><path d="M107.404 160.777C110.91 157.363 116.58 156.696 120.593 159.205C123.671 159.638 126.416 161.291 127.315 164.484C128.308 167.962 126.092 171.516 123.226 173.35C120.321 175.223 116.652 175.529 113.366 174.688C110.538 173.962 106.716 172.242 105.073 169.72C103.124 166.739 105.111 162.994 107.404 160.777Z" fill="#3452EF"></path><path fill-rule="evenodd" clip-rule="evenodd" d="M57.5873 14.3549C58.1227 13.6521 58.7609 13.0721 59.5568 12.9557C60.0919 12.8792 60.6651 13.1085 60.818 13.6818C60.857 13.83 60.8813 13.9763 60.8928 14.1208C61.4807 14.5485 61.8354 15.2553 61.6636 16.18C61.7213 16.2423 61.8055 16.3261 61.9263 16.4334C62.3849 16.8155 62.8435 17.1977 63.2638 17.6563C64.2575 18.7264 64.9836 20.0257 64.7543 21.5162C64.4103 23.5034 62.7288 24.6882 60.7798 24.7264C60.0154 24.7264 59.2129 24.5735 58.525 24.3442C58.4705 24.3286 58.3986 24.3099 58.3171 24.2887C57.998 24.2055 57.5307 24.0838 57.3785 23.962C57.3688 23.9554 57.3592 23.9492 57.3499 23.9435C57.4434 23.792 57.5551 23.5653 57.6842 23.2359C57.6777 23.2331 57.6712 23.2304 57.6646 23.2276C57.5893 23.5001 57.4749 23.7345 57.3311 23.9327C57.1047 23.808 56.9979 23.9844 57.0013 24.1087C57.0029 24.1697 57.0311 24.2181 57.0848 24.2122C55.6619 25.5464 52.5641 24.4607 53.2893 22.013C53.4772 21.3991 53.7761 20.8879 54.1602 20.4767C54.5009 19.8831 54.8043 19.2589 55.1072 18.6358C55.4738 17.8815 55.8397 17.1288 56.2702 16.4334C56.3809 16.2562 56.4957 16.0622 56.6157 15.8592C56.7051 15.7081 56.7974 15.5521 56.8931 15.3943C56.9921 15.1471 57.1273 14.9061 57.3021 14.6754C57.3901 14.558 57.4856 14.4513 57.5873 14.3549ZM61.5502 16.0374C61.5512 16.0376 61.5572 16.0461 61.565 16.0621C61.5531 16.0452 61.5492 16.0372 61.5502 16.0374Z" fill="#1D1D1B"></path><path d="M57.0848 24.2122C57.1433 24.2056 57.2322 24.1342 57.3499 23.9435C57.3435 23.9397 57.3373 23.9361 57.3311 23.9327C57.2565 24.0355 57.1739 24.1286 57.0848 24.2122Z" fill="#1D1D1B"></path><path d="M196.41 48.3824C196.781 48.1871 197.152 48.0218 197.528 47.866C198.452 45.6693 199.831 43.5573 201.302 42.0384C202.678 40.6626 204.971 42.4588 203.977 44.1021C202.639 46.3187 202.716 49.8346 203.748 52.1276C204.588 54.0766 202.83 55.9493 200.881 54.9938C199.711 54.4377 198.585 53.792 197.452 53.1424L197.45 53.141C197.104 52.9429 196.758 52.7444 196.41 52.548C194.881 51.7072 194.805 49.2231 196.41 48.3824Z" fill="#1D1D1B"></path><path d="M85.2001 56.1785C86.0305 55.7563 86.9075 55.5517 87.7721 55.5535C90.9633 53.8775 95.3968 55.8233 95.3274 59.8473C95.3091 61.7744 94.1184 63.4195 92.5597 64.2492C92.0199 64.8984 91.096 65.4099 90.2828 65.3123C88.6147 65.1455 87.1286 64.3921 86.1777 63.111C84.7982 62.1984 83.8574 60.5928 83.7096 58.7772C83.6332 57.7836 84.3211 56.6371 85.2001 56.1785Z" fill="#1D1D1B"></path><path d="M30.5887 66.6882C37.1238 69.2487 44.5378 72.4589 49.5059 77.5799C49.7734 77.8092 49.4677 78.1149 49.162 78.0003C47.0962 77.1149 45.0778 76.0397 43.0662 74.968C41.9519 74.3743 40.8396 73.7818 39.7225 73.2232C36.4359 71.6181 33.0601 70.2423 29.5951 69.0958C22.7926 66.8028 15.799 65.2741 8.65248 64.5098C6.81808 64.3187 6.77987 61.4525 8.65248 61.6054C16.1811 62.255 23.5569 63.9366 30.5887 66.6882Z" fill="#1D1D1B"></path><path d="M201.752 112.695C199.085 112.75 196.415 112.804 193.735 112.816C192.321 112.816 191.939 110.561 193.391 110.332C202.448 108.803 212.041 109.109 221.174 109.644C230.537 110.217 239.748 111.325 248.92 113.312C251.518 113.886 250.41 117.937 247.811 117.325C238.945 115.223 229.888 113.58 220.83 112.892C214.426 112.435 208.098 112.565 201.752 112.695Z" fill="#1D1D1B"></path><path d="M193.586 124.08L193.585 124.08L193.584 124.079C192.096 123.807 190.583 123.53 189.225 122.905C188.614 122.637 189.034 121.835 189.531 121.797C191.314 121.578 193.25 121.999 195.046 122.389L195.047 122.389C195.446 122.476 195.837 122.561 196.219 122.637C198.487 123.045 200.741 123.516 202.983 124.051C207.442 125.096 211.862 126.332 216.244 127.758C224.996 130.586 233.442 134.217 241.544 138.574C243.493 139.644 241.735 142.586 239.824 141.516C231.837 137.045 223.506 133.147 214.869 130.051C210.665 128.548 206.397 127.211 202.066 126.039C199.85 125.453 197.62 124.918 195.378 124.433C194.793 124.301 194.191 124.191 193.586 124.08Z" fill="#1D1D1B"></path><path d="M186.053 131.618C188.054 132.753 190.096 133.814 192.14 134.876C195.601 136.674 199.066 138.475 202.334 140.637C207.646 144.153 212.576 148.089 217.047 152.599C218.614 154.166 221.06 151.72 219.455 150.191C214.792 145.72 209.633 141.631 204.053 138.382C198.55 135.172 192.588 132.115 186.283 131.045C185.939 131.007 185.709 131.427 186.053 131.618Z" fill="#1D1D1B"></path><path d="M46.4485 87.669C45.2638 85.032 41.3657 83.8091 38.8052 83.1976C35.4635 82.4397 32.0287 82.0234 28.6407 81.6128C28.2703 81.5679 27.9004 81.5231 27.5314 81.4779C19.1237 80.446 10.6397 79.9492 2.19381 79.9874C0.0154734 79.9874 0.0154734 83.3123 2.19381 83.3123C10.0282 83.3505 17.8626 83.6562 25.697 84.3059L25.8938 84.3221C29.5378 84.6226 33.253 84.9289 36.8944 85.5671C38.4995 85.8218 40.0791 86.1913 41.6332 86.6753C42.2322 86.8645 42.8246 87.1186 43.4186 87.3734C44.2648 87.7364 45.1142 88.1008 45.9899 88.2804C46.3721 88.3569 46.6014 88.0129 46.4485 87.669Z" fill="#1D1D1B"></path><path d="M37.9624 100.367C40.469 99.8156 43.1459 99.2265 45.4932 99.5162C46.2957 99.5927 46.8308 100.739 45.9518 101.16C43.8694 102.229 41.3518 102.656 38.9331 103.066C38.0672 103.213 37.2137 103.358 36.3977 103.529C33.1365 104.242 29.8881 104.994 26.6525 105.784C20.0283 107.389 13.4423 109.109 6.89452 110.943C4.83083 111.516 3.99007 108.344 6.01554 107.771C12.5506 105.898 19.162 104.255 25.8117 102.803C29.0728 102.115 32.3467 101.465 35.6333 100.854C36.3816 100.715 37.1633 100.543 37.9624 100.367Z" fill="#1D1D1B"></path><path d="M129.584 90.9971C130.861 90.5405 132.058 89.7787 133.061 88.7475C134.744 88.1255 136.288 87.0505 137.442 85.7201C140.423 82.2806 139.009 77.4271 135.111 75.4016C127.544 71.427 113.098 82.2806 121.62 89.5799C122.458 90.3005 123.383 90.8088 124.347 91.1198C123.844 92.1773 123.307 93.2238 122.729 94.2423C122.594 94.4913 122.449 94.7773 122.295 95.0832C121.619 96.4206 120.753 98.1369 119.633 98.79C117.875 99.7837 115.964 97.7582 115.085 96.4206C114.391 95.3788 114.182 94.337 113.962 93.243C113.868 92.7719 113.771 92.2911 113.633 91.7964C113.519 91.4525 113.022 91.376 112.831 91.6818C110.729 95.4652 114.397 101.427 118.372 102.077C120.933 102.497 122.69 100.701 124.181 98.8665C124.626 98.3022 125.059 97.7283 125.481 97.1457C126.866 100.671 129.81 103.648 133.429 104.752C139.888 106.777 147.187 102.535 148.945 96.0767C149.748 93.0576 145.238 91.8346 144.283 94.7773C143.022 98.5225 138.627 101.198 134.729 100.013C130.892 98.8297 129.04 94.7198 129.584 90.9971Z" fill="#1D1D1B"></path><path fill-rule="evenodd" clip-rule="evenodd" d="M176.539 82.5328C177.647 81.4341 178.178 79.4896 177.76 78.0384C176.576 73.9874 171.111 74.0639 168.55 76.6626C165.531 79.7199 166.372 85.2231 170.843 86.2932C173.769 86.9765 175.978 84.9274 176.539 82.5328ZM171.589 81.3937C171.67 81.2862 171.696 81.2724 171.689 81.2924C171.682 81.3124 171.641 81.3662 171.589 81.3937Z" fill="#1D1D1B"></path><path d="M114.512 162.612C114.072 163.52 113.731 164.488 113.388 165.458C113.256 165.835 113.123 166.212 112.984 166.586C112.842 167.01 112.683 167.438 112.522 167.87L112.5 167.928C111.374 167.858 110.249 167.809 109.124 167.809C107.595 167.809 107.175 170.217 108.742 170.522C109.687 170.693 110.637 170.832 111.588 170.954C111.387 172.652 113.882 173.955 114.665 172.127C114.78 171.868 114.884 171.603 114.98 171.335L115.143 171.353L115.145 171.353C115.776 171.419 116.406 171.484 117.035 171.554C119.137 171.784 119.175 168.42 117.035 168.268C116.649 168.24 116.264 168.21 115.878 168.18C115.894 168.12 115.91 168.06 115.926 168C116.033 167.606 116.149 167.208 116.265 166.808C116.565 165.776 116.869 164.729 117.035 163.682C117.226 162.268 115.238 161.083 114.512 162.612Z" fill="#1D1D1B"></path><path fill-rule="evenodd" clip-rule="evenodd" d="M66.7416 7.87254C68.3849 11.312 69.7989 15.363 69.4167 19.2229C69.4116 19.2809 69.4031 19.3371 69.3916 19.3913C77.1393 16.8509 85.7777 18.4241 93.7463 19.8753C94.8219 20.0712 95.8853 20.2649 96.9326 20.4459C99.4906 20.8829 102.046 21.337 104.597 21.8078C105.404 21.8145 106.161 21.9412 106.836 22.2253C118.065 24.342 129.232 26.7824 140.318 29.52C141.025 29.3598 141.804 29.4525 142.563 29.9236C142.681 29.9981 142.791 30.0776 142.893 30.1615C145.744 30.8781 148.59 31.6142 151.429 32.3695C156.054 33.5924 160.64 34.8153 165.226 36.1911C166.082 36.4347 166.947 36.6718 167.814 36.9098L167.815 36.9101C169.192 37.2877 170.577 37.6675 171.949 38.0786C172.318 38.0413 172.701 38.035 173.098 38.0637C173.955 38.1208 174.802 38.5475 175.356 39.1929C176.156 39.4824 176.947 39.7918 177.722 40.1274C178.506 40.4523 179.27 40.8153 180.034 41.1784C180.799 41.5414 181.563 41.9045 182.347 42.2293C182.428 42.2601 182.511 42.292 182.596 42.3247C183.677 42.7394 185.07 43.2743 186.168 42.9555C186.849 42.7713 187.398 42.2945 187.868 41.7257C187.923 41.6083 187.982 41.4948 188.041 41.3886C188.593 40.3214 189.357 39.2897 190.096 38.2934L190.181 38.1784C191.71 36.1912 193.391 34.2803 195.264 32.5224C198.512 29.5033 202.984 26.8663 207.57 28.3186C212.614 29.9237 213.378 35.0065 213.684 39.5925C213.969 44.3359 213.809 49.0793 213.572 53.8227C213.966 54.1134 214.281 54.5486 214.448 55.1466C215.289 58.1657 216.015 61.1848 216.589 64.2421C218.996 76.5861 219.378 89.2357 217.697 101.694C216.13 113.503 213.111 126.038 206.996 136.395C201.073 146.408 191.289 152.064 180.321 155.159C169.184 158.316 157.454 159.728 145.895 160.098C144.569 163.413 142.137 166.142 139.162 168.038C137.633 169.032 135.952 169.796 134.194 170.178C133.353 170.331 132.512 170.484 131.672 170.446C131.283 170.426 130.905 170.318 130.532 170.212C130.17 170.108 129.812 170.006 129.455 169.987C129.369 169.982 129.295 169.962 129.232 169.931C126.43 175.33 120.357 179.432 114.283 179.847C108.665 180.229 102.742 176.943 101.022 171.401C100.374 169.294 100.403 167.085 100.989 165.052C96.0591 163.336 92.3468 158.973 91.2766 153.784C91.2044 153.447 91.2551 153.152 91.3831 152.911C84.2474 150.642 77.3157 147.814 70.7161 144.382C50.4613 133.873 32.9581 115.758 29.748 92.3313C27.9136 79.1466 30.2448 65.7708 33.3021 52.93C34.8308 46.5096 36.6142 40.1529 38.6524 33.8599C39.646 30.8026 40.6779 27.7071 41.9008 24.7262C42.6546 22.8416 43.5536 21.1313 44.58 19.47C44.4783 19.106 44.488 18.699 44.6524 18.2675C46.1046 14.3311 48.2065 10.8152 50.7671 7.56681C52.0282 5.96171 53.3658 4.43305 54.818 3.01904L54.8602 2.9795C56.0751 1.84028 57.5511 0.456338 59.2511 0.267446C62.9039 -0.146783 65.3692 5.00488 66.6837 7.75175L66.7416 7.87254ZM129.686 168.951C130.539 168.764 131.56 168.257 132.466 167.807C132.869 167.607 133.25 167.418 133.582 167.274C134.843 166.701 136.105 166.013 137.213 165.172C139.013 163.808 140.349 162.112 141.424 160.187C137.38 160.215 133.31 160.104 129.235 159.847C129.271 159.902 129.306 159.957 129.34 160.013C131.058 162.747 130.878 166.061 129.686 168.951ZM107.213 157.911C104.69 158.965 102.751 160.957 101.63 163.346C97.7281 161.439 94.7761 157.99 93.7985 153.655C98.7765 155.141 103.846 156.359 108.963 157.325C108.366 157.471 107.78 157.668 107.213 157.911ZM116.816 158.605C117.769 159.335 118.404 160.342 117.684 161.503C117.455 161.847 116.843 161.809 116.767 161.389C116.194 158.943 111.379 159.554 109.735 160.089C107.633 160.739 105.875 162.229 104.958 164.255C103.009 168.688 105.417 173.618 109.926 175.108C114.627 176.637 119.48 174.382 122.729 170.981C124.334 169.261 126.054 166.815 125.748 164.331C125.519 162.65 123.952 160.854 122.156 161.236C120.335 161.658 119.146 160.299 119.069 158.9C118.318 158.807 117.567 158.708 116.816 158.605ZM158.513 38.7446C158.697 38.798 158.881 38.8514 159.066 38.9049C158.649 39.3974 158.235 39.8898 157.824 40.3823C157.941 39.8028 158.044 39.2201 158.126 38.6328L158.513 38.7446ZM155.534 50.2752C155.779 48.5576 156.197 46.878 156.637 45.2027C156.727 45.3246 156.826 45.4394 156.934 45.546C156.453 47.1188 155.976 48.6952 155.534 50.2752ZM163.583 59.8307C162.556 61.3753 161.2 62.4871 159.464 62.0609C160.288 61.9197 161.1 61.6084 161.824 61.1847C162.462 60.8071 163.051 60.3497 163.583 59.8307ZM167.314 50.0564C167.091 50.755 166.866 51.4533 166.642 52.1515C166.598 51.8683 166.529 51.5933 166.429 51.3312L167.314 50.0564ZM177.264 44.7134C176.559 44.3897 175.842 44.0918 175.116 43.8134C174.662 45.1893 174.227 46.5784 173.791 47.9698C172.507 52.0686 171.217 56.1861 169.429 60.0382C167.328 64.5478 162.474 68.5605 157.277 66.4586C152.958 64.7006 151.009 59.6943 150.971 55.3376C150.897 49.6273 152.837 42.8377 156.059 38.0406C154.631 37.634 153.202 37.2337 151.773 36.8408C149.174 36.1056 146.571 35.3883 143.964 34.6879C143.741 35.7724 143.452 36.857 143.162 37.9415C142.955 38.7211 142.747 39.5007 142.563 40.2803C142.319 41.3019 142.094 42.3712 141.863 43.464C140.756 48.7074 139.536 54.4905 135.646 58.1274C131.366 62.1402 124.945 62.2548 121.238 57.4395C117.226 52.2039 118.869 44.7134 120.933 39.0574C121.006 38.8476 121.08 38.6314 121.156 38.41L121.158 38.4057C122.039 35.8436 123.158 32.5895 125.022 30.7262C125.267 30.4811 125.642 30.2578 126.023 30.1424C125.231 29.9534 124.439 29.7659 123.646 29.5797C118.995 28.4944 114.343 27.4385 109.687 26.4222C110.081 29.0485 109.038 32.005 108.092 34.3185C106.984 37.0318 105.493 39.5541 103.659 41.8089C101.977 43.8726 99.6842 46.4713 96.7416 45.6688C94.1428 44.9427 92.0791 41.656 91.0473 39.3248C89.8244 36.6497 89.5951 33.7834 90.2065 30.9172C90.6925 28.5195 91.5082 25.2153 92.8864 22.9377L92.5275 22.8645C84.567 21.2417 76.3604 19.5686 68.3849 21.3631C67.6139 21.5481 67.2411 20.7129 67.5877 20.2027C67.3817 20.0647 67.2136 19.8432 67.1237 19.5286C66.8436 18.6321 66.5963 17.7356 66.3501 16.843C65.7566 14.6915 65.1692 12.5622 64.1428 10.5095C63.4804 9.15917 62.7161 7.87254 61.8498 6.64961C61.7509 6.51469 61.6477 6.36283 61.5398 6.20401C61.1893 5.68807 60.7887 5.09839 60.3212 4.777C59.7629 4.35004 59.7126 4.40291 59.3214 4.81433C59.2574 4.88164 59.1842 4.95855 59.0983 5.04452C54.818 9.59229 51.5696 14.4076 48.818 19.9872C48.6868 20.2453 48.5224 20.4547 48.3349 20.6198C47.9874 22.5882 47.5618 24.5362 46.9454 26.4841C43.2002 38.3313 39.5314 50.0255 37.162 62.2548C34.869 74.3313 33.646 86.9045 36.8562 98.9045C42.5887 120.382 60.5123 135.784 80.1173 144.573C102.092 154.395 127.124 158.102 151.047 156.382C162.512 155.541 174.474 153.822 185.213 149.58C190.181 147.592 194.958 144.803 198.665 140.905C202.601 136.777 205.2 131.618 207.187 126.344C215.258 104.933 216.115 80.9986 210.237 58.9618C209.348 58.7184 208.64 57.9944 208.716 56.7899C208.739 56.3299 208.762 55.8699 208.785 55.4099C208.995 51.2453 209.205 47.0777 209.136 42.8791C209.125 42.4702 209.129 41.9907 209.133 41.4659C209.155 38.4099 209.19 33.8168 206.385 32.6753C202.793 31.2162 199.055 34.555 196.569 36.7757L196.41 36.9173C196.137 37.1633 195.867 37.413 195.601 37.6659C195.703 38.2167 195.535 38.8143 194.958 39.3249C193.912 40.251 193.135 41.4223 192.362 42.5879C191.157 44.4043 189.962 46.2066 187.773 47.0446C184.635 48.2517 181.123 46.5643 178.192 45.1562C177.876 45.004 177.566 44.8551 177.264 44.7134ZM128.758 30.8008C128.262 30.6802 127.765 30.5602 127.269 30.4406C127.329 30.5476 127.372 30.6799 127.391 30.8408C127.399 30.9064 127.388 30.9597 127.364 31.0011C127.824 30.9297 128.289 30.862 128.758 30.8008ZM126.974 31.0627C126.944 31.0447 126.917 31.0216 126.894 30.9937C126.866 30.9545 126.813 30.9974 126.742 31.1004C126.819 31.0878 126.897 31.0752 126.974 31.0627ZM125.232 34.604C125.224 34.628 125.217 34.6476 125.213 34.6625C125.045 35.12 124.883 35.5835 124.728 36.0508C125.157 35.6605 125.598 35.2845 126.051 34.9236C125.733 34.8937 125.459 34.7777 125.232 34.604ZM126.753 40.4075C126.545 40.4299 126.338 40.4512 126.13 40.4713C125.013 40.5729 124.198 39.7783 123.892 38.8106C123.403 40.6162 122.983 42.4781 122.692 44.3511C123.089 44.0356 123.515 43.7555 123.965 43.5163C124.074 43.2749 124.221 43.0467 124.41 42.8407C125.171 42.0052 125.952 41.1951 126.753 40.4075ZM135.892 47.5714C136.096 46.68 136.29 45.7885 136.481 44.897C135.957 45.812 135.405 46.7108 134.827 47.5928C135.181 47.5783 135.536 47.5712 135.892 47.5714ZM136.178 38.965C136.733 39.1992 137.183 39.6535 137.475 40.2048C137.673 39.29 137.863 38.3674 138.045 37.4371C137.959 37.5367 137.86 37.6312 137.748 37.7197C137.217 38.1277 136.694 38.5429 136.178 38.965ZM138.439 35.4715C138.491 35.2018 138.541 34.9321 138.589 34.6625L138.601 34.6035C138.132 34.2256 137.856 33.7729 137.737 33.2947L137.672 33.2951C137.585 33.4891 137.474 33.6724 137.338 33.8377C137.867 34.2398 138.269 34.838 138.439 35.4715ZM97.2654 23.8145C96.8743 23.7359 96.4831 23.6576 96.0918 23.5797C95.691 23.5019 95.2894 23.4226 94.887 23.3422C94.9208 23.8961 94.904 24.4515 94.8539 25.0082C95.5793 24.6254 96.3965 24.2124 97.2654 23.8145ZM93.8343 30.9649C93.6752 32.2646 93.6677 33.5626 94.0282 34.8535C94.3571 36.0869 94.9809 37.2613 95.7303 38.3063L96.427 36.7431C96.0499 36.5341 95.6816 36.2742 95.3275 35.9618C94.2193 34.9299 94.2193 32.8662 95.3275 31.8344C95.384 31.783 95.4404 31.7315 95.4967 31.6799C94.8968 31.5502 94.3385 31.3132 93.8343 30.9649ZM98.6676 31.6345C98.6608 31.6453 98.6119 31.6458 98.5411 31.6038C98.639 31.6028 98.6744 31.6238 98.6676 31.6345ZM103.148 27.9992C103.165 28.0289 103.183 28.0589 103.2 28.0891C103.553 28.7192 103.704 29.3315 103.702 29.9233C103.813 29.4267 103.901 28.9292 103.964 28.4331V27.7739L103.773 27.8216C103.563 27.879 103.354 27.9382 103.148 27.9992ZM103.118 31.9778C103.102 32.0063 103.086 32.0347 103.07 32.063L103.082 32.0811C103.094 32.0467 103.106 32.0123 103.118 31.9778Z" fill="#1D1D1B"></path></g><defs><clipPath id="clip0_23153_67906"><rect width="249.936" height="180" fill="white" transform="translate(0.550537)"></rect></clipPath></defs></svg> 