<?xml version="1.0" encoding="UTF-8"?> <svg xmlns="http://www.w3.org/2000/svg" width="216" height="200" viewBox="0 0 216 200" fill="none"><g clip-path="url(#clip0_23153_67900)"><path fill-rule="evenodd" clip-rule="evenodd" d="M124.648 119.286C125.23 119.258 125.791 119.149 126.335 118.981C126.034 120.114 126.097 121.248 126.566 122.224L126.568 122.243C126.965 126.013 127.491 131.003 131.942 130.94C136.077 130.865 139.122 127.068 141.453 124.135C144.009 120.789 146.716 117.218 147.581 113.007C148.16 110.199 147.854 107.39 147.548 104.582C147.338 102.653 147.128 100.725 147.205 98.7969C147.28 96.3909 143.483 95.1127 142.43 97.4811C140.513 101.842 137.43 105.789 134.235 109.248C132.618 110.94 130.927 112.519 129.122 114.022C128.631 114.437 128.115 114.826 127.598 115.216C126.334 116.169 125.067 117.124 124.16 118.459C123.897 118.797 124.235 119.323 124.648 119.286ZM131.588 118.396C131.327 117.746 130.756 117.28 130.085 117.031C130.233 116.935 130.38 116.838 130.526 116.741L130.527 116.741L130.528 116.74C130.686 116.636 130.844 116.531 131.002 116.428C133.069 115.113 135.024 113.534 136.866 111.917C137.045 111.759 137.221 111.601 137.395 111.44C137.064 112.005 136.74 112.574 136.423 113.146C136.162 113.504 135.893 113.857 135.617 114.203C135.073 114.253 134.549 114.473 134.16 114.887C133.132 115.988 132.295 117.137 131.588 118.396ZM132.618 124.624L132.581 124.383C132.986 124.23 133.382 124.035 133.762 123.81C133.829 123.858 133.898 123.904 133.972 123.947C134.028 123.981 134.086 124.012 134.145 124.041C134.063 124.111 133.98 124.18 133.897 124.248C133.663 124.442 133.39 124.587 133.123 124.727C132.97 124.808 132.82 124.887 132.681 124.974C132.66 124.858 132.639 124.741 132.618 124.624Z" fill="#FABA5B"></path><path fill-rule="evenodd" clip-rule="evenodd" d="M69.3102 137.519C70.9643 139.248 73.5583 140.338 75.7011 141.203C78.1071 142.18 80.6259 142.82 83.1447 143.383C88.2575 144.511 93.671 144.699 98.7838 143.383C100.663 142.895 101.641 140.564 100.626 138.91C98.9342 136.128 97.7688 133.271 97.0169 130.075C96.9668 129.856 96.8896 129.65 96.7896 129.458C96.8779 129.438 96.9662 129.418 97.0545 129.398C99.2349 128.91 98.3327 125.451 96.1522 126.053C94.846 126.409 93.546 126.774 92.2477 127.139C89.0248 128.046 85.8127 128.949 82.5432 129.699C81.8364 129.863 81.1159 130.049 80.3863 130.238C76.9249 131.133 73.2584 132.082 69.8741 130.902C69.235 130.677 68.8966 131.541 69.2726 131.955C70.0551 132.885 71.1354 133.356 72.3522 133.545C71.4048 134.128 70.7678 135.167 70.7147 136.2C70.5356 136.147 70.3557 136.098 70.1748 136.053C69.3102 135.865 68.7463 136.88 69.3102 137.519ZM83.8931 131.974C84.42 131.927 84.9474 131.882 85.4756 131.842C86.5288 131.766 87.5475 131.982 88.4167 132.414C88.962 131.906 89.4965 131.387 90.0202 130.856C87.9826 131.245 85.9388 131.613 83.8931 131.974ZM83.3294 139.692C83.5573 139.613 83.7841 139.528 84.0094 139.436C84.5325 139.232 84.9993 138.937 85.3702 138.568C85.7529 139.068 86.3045 139.441 86.9293 139.63C85.8415 139.709 84.7439 139.735 83.6335 139.699C83.532 139.698 83.4307 139.695 83.3294 139.692ZM93.5337 138.543C92.1839 138.876 90.8284 139.151 89.461 139.351C89.6274 139.258 89.7906 139.149 89.9492 139.023C90.9032 138.257 91.8266 137.463 92.7192 136.641C92.972 137.283 93.2438 137.917 93.5337 138.543Z" fill="#FABA5B"></path><path fill-rule="evenodd" clip-rule="evenodd" d="M91.5659 98.4208C87.4682 92.8569 84.6862 85.6389 84.9118 78.6464C84.9494 77.8193 86.1148 77.669 86.3404 78.4584C86.8405 80.1225 87.3826 81.7816 87.9922 83.4131C87.7648 81.8054 87.8772 80.1196 88.3106 78.5439C87.7173 77.2279 88.4767 76.0508 89.5872 75.5249C89.8242 74.9104 90.2349 74.4772 90.7376 74.2038C92.2386 72.7211 94.2642 71.8735 96.4531 72.0675C99.9869 72.3682 102.543 75.075 103.972 78.1201C105.626 81.6539 106.415 85.5637 106.829 89.3983C107.167 92.481 107.017 95.5637 105.739 98.4584C104.649 100.977 102.581 103.082 99.6862 103.346C96.1148 103.646 93.5208 101.052 91.5659 98.4208ZM93.4901 93.8298C92.9388 92.9098 92.3249 92.024 91.7104 91.1372C91.5944 90.9699 91.4785 90.8026 91.3629 90.635C92.0102 91.7369 92.7158 92.8049 93.4901 93.8298ZM98.8777 98.2367C99.5946 98.188 100.257 97.7094 100.776 96.5787C101.867 94.1727 101.528 91.3156 101.077 88.7968C100.548 85.9369 99.8853 82.4802 98.1874 79.9837C100.429 84.7037 101.431 89.9957 101.04 95.2253C100.928 96.8722 100.007 97.8798 98.8777 98.2367Z" fill="#E84766"></path><path d="M112.393 27.7821C112.355 25.8272 113.596 23.6092 115.776 23.7219C116.415 23.7219 116.491 24.5866 115.927 24.8122C113.784 25.6768 114.235 28.9099 116.528 29.1355C117.543 29.2483 118.671 28.7219 119.348 27.9701C119.526 27.7616 119.634 27.5709 119.709 27.3768C118.605 27.2047 117.551 26.619 116.979 25.6392C116.783 25.3158 116.682 24.9533 116.668 24.5888C116.236 23.7962 116.234 22.79 117.054 21.955C119.235 19.7746 123.483 21.0904 123.633 24.3234C123.638 24.4121 123.639 24.4987 123.638 24.5835C123.94 25.2743 124.072 26.0582 123.972 26.8798C123.596 30.0001 120.513 32.2558 117.468 32.2934C114.836 32.2934 112.43 30.5641 112.393 27.7821Z" fill="#1D1D1B"></path><path fill-rule="evenodd" clip-rule="evenodd" d="M81.542 57.3785C81.6133 57.5402 81.6847 57.702 81.756 57.8637C83.7017 62.2766 85.6518 66.6992 87.3537 71.2327C86.7414 71.3076 86.1664 71.6845 85.9267 72.4438C84.7237 76.1281 82.0545 79.0228 78.5207 80.6393C74.7613 82.3311 71.0019 82.0679 67.2049 80.7145C66.3778 80.4138 66.0019 81.6168 66.641 82.0679C74.4229 87.6694 86.6786 81.9175 89.2725 73.3461C89.328 73.1703 89.3565 73.0029 89.3616 72.8448C89.7598 72.7823 90.1302 72.5922 90.3672 72.305C93.9118 74.4402 98.3142 74.9069 102.355 73.8724C106.152 72.9326 111.679 69.6995 111.716 65.2258C111.716 64.7747 111.152 64.3611 110.701 64.6619C110.025 65.1553 109.42 65.7287 108.812 66.3043C108.17 66.9128 107.525 67.5237 106.791 68.0454C105.25 69.1356 103.445 69.8499 101.603 70.2258C97.844 71.0153 94.3101 70.0378 91.265 67.7822C90.5507 67.2393 89.7441 67.3696 89.1196 67.8245C87.3901 64.0386 85.4193 60.3715 83.0499 56.9663C85.0808 56.2441 86.9709 54.9153 88.6639 53.4963C91.6027 51.8587 94.6393 49.7595 96.453 47.143C99.2349 43.2332 97.0169 39.3611 92.6936 38.2708C89.0846 37.331 85.1372 37.6317 81.6786 38.9851C80.2759 39.5257 78.9527 40.2083 77.7267 41.0263C76.1328 41.479 74.5842 42.0506 73.0695 42.7069C69.9142 44.0874 65.7243 46.5024 65.6253 50.2534C63.6841 52.1861 62.1472 54.7249 63.9718 56.9926C66.1232 59.7178 70.7371 59.0229 73.8011 58.5614C73.9495 58.5391 74.0943 58.5172 74.235 58.4964C75.8822 58.2632 77.5012 57.9225 79.0898 57.4832C79.9236 57.5741 80.7421 57.5296 81.542 57.3785ZM89.9206 46.9918C90.6363 46.4028 91.3061 45.7774 91.9041 45.1129C91.9473 45.0635 92.0017 45.005 92.0622 44.9399C92.3703 44.6084 92.8378 44.1052 92.8064 43.7596C92.7767 43.4923 92.4421 43.4127 92.1175 43.3355C92.0312 43.3149 91.9455 43.2945 91.8665 43.2708C91.2872 43.1004 90.6925 42.9918 90.0928 42.931C90.5181 44.1779 90.4242 45.6359 89.9206 46.9918ZM68.4219 55.2369C67.8351 54.8805 67.3112 54.4472 66.879 53.9241C66.6302 54.4199 66.6302 54.6752 67.2801 55.0002C67.5904 55.1611 67.9885 55.2271 68.4219 55.2369Z" fill="#1D1D1B"></path><path fill-rule="evenodd" clip-rule="evenodd" d="M32.6937 49.6619C33.2476 50.636 33.6656 51.7362 33.8098 52.8542C34.0938 53.8605 33.9432 54.9799 33.6711 55.9777C33.4912 56.6523 32.9212 57.2462 32.2428 57.5261C31.4147 58.3063 30.3351 58.7824 29.1598 58.6844C27.6561 58.5341 26.5283 57.4438 26.3779 55.9401C26.2474 54.8306 26.655 53.7211 27.6255 53.2508C27.4864 51.3937 28.3586 49.5158 30.438 48.7596C31.2275 48.4589 32.2801 48.9476 32.6937 49.6619ZM29.1701 56.5763C28.2483 56.6196 27.6429 55.6241 27.8405 54.7666C27.9624 55.083 28.1463 55.3741 28.3969 55.6207C28.6125 55.9676 28.8708 56.2899 29.1701 56.5763Z" fill="#1D1D1B"></path><path d="M9.83656 49.7743C9.27265 50.2254 8.52077 49.5111 9.00949 48.9848C15.9644 41.5412 24.0847 35.1878 32.5433 29.5863C62.6185 9.58635 98.8967 -1.09033 134.987 0.187863C137.43 0.263051 137.43 4.02245 134.987 3.94726C124.987 3.64651 114.949 4.17282 105.024 5.5262C87.5057 7.96981 70.438 13.0826 54.423 20.5262C46.3779 24.2856 38.6711 28.6089 31.2651 33.4961C23.7463 38.4209 16.7914 44.0976 9.83656 49.7743Z" fill="#1D1D1B"></path><path d="M148.333 5.90215C163.709 19.2856 177.13 34.6991 188.934 51.3156C199.949 66.8419 210.363 84.4359 211.904 103.834C212.581 112.443 211.566 121.24 208.408 129.285C205.325 137.105 199.498 145.639 191.453 148.91C183.37 152.18 175.4 147.519 170.664 140.977C165.573 133.939 164.239 125.1 162.966 116.661L162.966 116.66C162.838 115.814 162.711 114.971 162.581 114.135C161.009 104.034 160.054 93.8365 159.098 83.6399C157.813 69.9292 156.527 56.2191 153.746 42.7442C153.258 40.451 149.31 40.9397 149.611 43.3081C150.847 52.8159 151.869 62.3571 152.892 71.9007L152.892 71.9038L152.892 71.9044C153.753 79.9356 154.613 87.9686 155.602 95.9849C155.203 95.778 154.609 95.8792 154.536 96.3907C152.318 110.225 144.799 123.007 132.957 130.714C132.489 131.03 132.327 131.495 132.372 131.937C131.051 132.327 129.743 132.757 128.444 133.185C128.282 133.239 128.119 133.292 127.957 133.346C126.077 133.947 127.167 136.692 129.009 135.864C129.447 135.664 129.886 135.466 130.325 135.268L130.327 135.267C132.526 134.275 134.724 133.283 136.791 132.03C137.183 131.785 137.144 131.332 136.892 131.088C147.293 123.094 154.44 111.052 155.842 97.9141C156.398 102.325 156.995 106.731 157.656 111.128C158.521 116.692 159.498 122.255 160.664 127.744C161.679 132.368 163.032 136.692 165.513 140.752C169.836 147.857 177.205 154.135 185.927 154.022C195.325 153.872 202.919 146.428 207.618 138.985C212.43 131.353 214.836 122.331 215.363 113.383C216.491 93.3833 207.769 74.5863 196.829 58.3833C183.521 38.6841 167.543 20.1878 148.972 5.30064C148.521 4.9247 147.919 5.52621 148.333 5.90215Z" fill="#1D1D1B"></path><path d="M110.662 125.868C110.011 124.611 109.357 123.351 108.784 122.03C108.596 121.616 109.047 121.165 109.423 121.541C110.775 122.772 111.91 124.316 112.904 125.948C114.6 124.827 116.375 123.82 118.22 122.932C120.024 122.067 121.603 124.849 119.799 125.639C117.892 126.456 116.062 127.399 114.315 128.463C114.626 129.058 114.924 129.648 115.212 130.225C116.002 131.767 113.671 132.707 113.107 131.128C112.922 130.619 112.72 130.12 112.506 129.629C110.359 131.09 108.35 132.745 106.491 134.586C105.363 135.714 103.671 134.022 104.761 132.857C106.752 130.71 108.934 128.777 111.283 127.071C111.078 126.669 110.87 126.269 110.662 125.868Z" fill="#1D1D1B"></path><path fill-rule="evenodd" clip-rule="evenodd" d="M0.58844 120.94C0.701222 98.1202 3.3328 74.9623 9.91174 53.0826C10.0621 52.5563 10.8892 52.7818 10.7764 53.3082C4.72378 76.8044 2.28017 101.466 3.18242 125.677C3.9343 144.774 7.84408 164.699 20.6636 179.511C26.1899 185.864 33.1448 191.203 41.1523 193.947C49.0471 196.616 59.2726 197.519 64.9117 190.113C69.235 184.436 69.7237 176.391 68.2576 169.661C67.3585 165.65 65.6325 161.862 63.9279 158.12L63.9272 158.119L63.9246 158.113C63.7771 157.789 63.6298 157.466 63.4831 157.143C61.3779 152.443 59.0847 147.782 56.7538 143.195C53.2181 136.29 49.4235 129.506 45.6293 122.722C39.096 111.042 32.5637 99.363 27.3553 87.0675C26.3403 84.6239 29.7238 82.4811 31.002 84.9247C36.7162 96.0525 42.5809 107.105 48.5583 118.12C50.525 121.732 52.4916 125.348 54.4301 128.979C54.5068 128.906 54.6166 128.863 54.7613 128.872C56.4179 129.031 58.0565 129.229 59.6881 129.427L59.6886 129.427L59.6893 129.427L59.6902 129.427C63.8341 129.929 67.933 130.425 72.1673 130.263C78.1448 130.037 84.047 128.985 89.7613 127.18C91.3403 126.691 92.0545 129.21 90.438 129.699C84.6109 131.428 78.5959 132.406 72.5057 132.481C66.7985 132.518 60.3701 132.158 54.9865 130.024C56.1021 132.122 57.2075 134.226 58.2972 136.338C58.5833 136.433 58.8705 136.523 59.1544 136.612L59.1562 136.613C59.4768 136.713 59.7934 136.813 60.0996 136.917C61.6535 137.468 63.2325 138.007 64.8365 138.534L64.837 138.534C68.1075 139.624 71.378 140.714 74.7613 141.616C81.6034 143.383 88.6335 144.323 95.7011 143.534C96.0085 143.503 96.2666 143.557 96.4754 143.67C96.9806 143.417 97.5085 143.225 98.0348 143.033C98.557 142.843 99.0777 142.654 99.5734 142.406C100.587 141.899 101.54 141.331 102.432 140.648C101.414 140.188 100.453 139.612 99.5733 138.91C93.4079 133.985 95.6636 125.676 98.5959 119.661C98.8263 119.189 99.2131 119.001 99.6076 119.015C100.745 116.851 103.635 115.361 105.626 114.436C108.859 112.97 112.506 112.406 116.039 112.97C122.13 113.947 127.28 118.872 128.258 125.037C129.235 131.428 124.912 137.067 119.423 139.812C115.205 141.921 109.699 142.759 104.922 141.521C104.875 141.848 104.686 142.177 104.31 142.443C102.323 143.889 99.607 145.438 97.0626 145.456C96.8926 146.029 96.4387 146.521 95.7011 146.579C87.9944 147.255 80.4004 145.902 73.0696 143.646C69.3478 142.481 65.7387 141.128 62.1673 139.624C61.654 139.411 61.1122 139.207 60.559 138.999L60.5583 138.998C60.1897 138.86 59.8162 138.719 59.4427 138.573C61.615 142.841 63.7159 147.145 65.7012 151.504L65.7883 151.693C65.8708 151.873 65.9533 152.052 66.0359 152.232L66.0491 152.26C69.7748 160.359 73.5447 168.554 73.1072 177.669C72.7313 185.225 69.7613 193.045 63.032 197.067C54.8365 201.992 44.0847 199.661 35.9268 195.827C27.9193 192.067 21.1523 185.977 15.8516 178.947C3.40799 162.406 0.438064 141.09 0.58844 120.94ZM102.957 138.759C96.1191 135.305 97.6416 127.853 100.275 122.102C102.497 119.835 105.154 118.022 108.182 116.917C109.611 116.391 111.152 115.977 112.694 115.752C112.893 115.722 113.114 115.683 113.351 115.642L113.351 115.642C114.905 115.373 117.134 114.986 118.145 116.128C118.295 116.278 118.521 116.09 118.446 115.902C118.2 115.483 117.877 115.192 117.504 114.984C121.738 116.36 125.147 119.697 126.453 124.06C130.325 136.804 112.506 143.609 102.957 138.759Z" fill="#1D1D1B"></path><path d="M149.724 83.0074C146.867 89.2104 143.897 95.1502 139.837 100.677C135.776 106.278 130.852 111.316 125.363 115.526C123.784 116.729 125.476 119.022 127.092 117.707C137.806 109.173 147.28 96.9547 150.927 83.4961C151.115 82.8194 150.062 82.3307 149.724 83.0074Z" fill="#1D1D1B"></path></g><defs><clipPath id="clip0_23153_67900"><rect width="215.037" height="200" fill="white" transform="translate(0.513245)"></rect></clipPath></defs></svg> 