<?xml version="1.0" encoding="UTF-8"?> <svg xmlns="http://www.w3.org/2000/svg" width="261" height="86" viewBox="0 0 261 86" fill="none"><path d="M2.96152 22.9817C3.8487 12.5912 12.3527 5.00057 22.7287 3.95775C39.9567 2.22628 66.8928 -0.0641475 88.2992 0.00137463C124.416 0.111922 144.556 1.06721 180.672 1.17704C200.625 1.23772 225.684 3.13691 241.105 4.49276C249.948 5.27026 257.852 10.8198 259.368 19.5669C259.961 22.9888 260.313 26.7954 260.103 30.6759C259.409 43.5037 258.863 43.685 259.849 56.5107C260.013 58.6453 259.733 61.5054 259.244 64.5169C257.605 74.6137 248.671 81.5641 238.464 82.2214C217.789 83.5526 179.756 85.4894 133.471 85.4894C85.116 85.4894 42.906 83.3756 21.1469 82.0468C11.5684 81.4618 2.87776 75.3428 1.47017 65.8503C1.16512 63.7931 0.980555 61.7079 1.00163 59.724C1.10581 49.9184 2.19831 40.1033 2.50918 30.6151C2.5975 27.9193 2.75844 25.3601 2.96152 22.9817Z" fill="#FABA5B"></path><path d="M2.96152 22.9817C3.8487 12.5912 12.3527 5.00057 22.7287 3.95775C39.9567 2.22628 66.8928 -0.0641475 88.2992 0.00137463C124.416 0.111922 144.556 1.06721 180.672 1.17704C200.625 1.23772 225.684 3.13691 241.105 4.49276C249.948 5.27026 257.852 10.8198 259.368 19.5669C259.961 22.9888 260.313 26.7954 260.103 30.6759C259.409 43.5037 258.863 43.685 259.849 56.5107C260.013 58.6453 259.733 61.5054 259.244 64.5169C257.605 74.6137 248.671 81.5641 238.464 82.2214C217.789 83.5526 179.756 85.4894 133.471 85.4894C85.116 85.4894 42.906 83.3756 21.1469 82.0468C11.5684 81.4618 2.87776 75.3428 1.47017 65.8503C1.16512 63.7931 0.980555 61.7079 1.00163 59.724C1.10581 49.9184 2.19831 40.1033 2.50918 30.6151C2.5975 27.9193 2.75844 25.3601 2.96152 22.9817Z" fill="#F9F9F9" fill-opacity="0.83"></path><path d="M178.503 40.1982C177.902 40.1982 177.366 40.1615 176.897 40.0882C176.442 40.0295 176.046 39.9122 175.709 39.7362C175.386 39.5602 175.122 39.3182 174.917 39.0102C174.712 38.7022 174.558 38.3062 174.455 37.8222C174.367 37.3235 174.323 36.7148 174.323 35.9962V25.8322C174.323 25.5388 174.345 25.2675 174.389 25.0182C174.448 24.7688 174.594 24.5635 174.829 24.4022C175.064 24.2408 175.445 24.1602 175.973 24.1602C176.501 24.1602 176.875 24.2408 177.095 24.4022C177.33 24.5635 177.476 24.7688 177.535 25.0182C177.594 25.2675 177.623 25.5388 177.623 25.8322V35.8422C177.623 36.0768 177.63 36.2748 177.645 36.4362C177.674 36.5828 177.718 36.7002 177.777 36.7882C177.85 36.8762 177.946 36.9348 178.063 36.9642C178.18 36.9935 178.334 37.0082 178.525 37.0082C178.701 37.0082 178.877 37.0302 179.053 37.0742C179.244 37.1182 179.405 37.2502 179.537 37.4702C179.669 37.6902 179.735 38.0568 179.735 38.5702C179.735 39.0982 179.669 39.4795 179.537 39.7142C179.405 39.9488 179.244 40.0882 179.053 40.1322C178.877 40.1762 178.694 40.1982 178.503 40.1982Z" fill="#3452EF"></path><path d="M178.503 40.1982C177.902 40.1982 177.366 40.1615 176.897 40.0882C176.442 40.0295 176.046 39.9122 175.709 39.7362C175.386 39.5602 175.122 39.3182 174.917 39.0102C174.712 38.7022 174.558 38.3062 174.455 37.8222C174.367 37.3235 174.323 36.7148 174.323 35.9962V25.8322C174.323 25.5388 174.345 25.2675 174.389 25.0182C174.448 24.7688 174.594 24.5635 174.829 24.4022C175.064 24.2408 175.445 24.1602 175.973 24.1602C176.501 24.1602 176.875 24.2408 177.095 24.4022C177.33 24.5635 177.476 24.7688 177.535 25.0182C177.594 25.2675 177.623 25.5388 177.623 25.8322V35.8422C177.623 36.0768 177.63 36.2748 177.645 36.4362C177.674 36.5828 177.718 36.7002 177.777 36.7882C177.85 36.8762 177.946 36.9348 178.063 36.9642C178.18 36.9935 178.334 37.0082 178.525 37.0082C178.701 37.0082 178.877 37.0302 179.053 37.0742C179.244 37.1182 179.405 37.2502 179.537 37.4702C179.669 37.6902 179.735 38.0568 179.735 38.5702C179.735 39.0982 179.669 39.4795 179.537 39.7142C179.405 39.9488 179.244 40.0882 179.053 40.1322C178.877 40.1762 178.694 40.1982 178.503 40.1982Z" fill="#242424"></path><path fill-rule="evenodd" clip-rule="evenodd" d="M149.439 40.1982C148.925 40.1982 148.551 40.1175 148.317 39.9562C148.097 39.7948 147.95 39.5895 147.877 39.3402C147.803 39.0762 147.767 38.7975 147.767 38.5042V26.4702C147.767 26.1915 147.796 25.9275 147.855 25.6782C147.913 25.4142 148.06 25.2015 148.295 25.0402C148.529 24.8788 148.918 24.8055 149.461 24.8202H153.421C154.477 24.8202 155.459 25.0108 156.369 25.3922C157.278 25.7735 158.077 26.3088 158.767 26.9982C159.456 27.6875 159.991 28.4942 160.373 29.4182C160.754 30.3422 160.945 31.3468 160.945 32.4322C160.945 33.5322 160.754 34.5588 160.373 35.5122C159.991 36.4508 159.456 37.2722 158.767 37.9762C158.077 38.6655 157.271 39.2082 156.347 39.6042C155.437 40.0002 154.44 40.1982 153.355 40.1982H149.439ZM155.555 28.7362C154.924 28.3548 154.205 28.1642 153.399 28.1642H151.111V36.8322H153.421C154.213 36.8322 154.924 36.6488 155.555 36.2822C156.185 35.9008 156.684 35.3875 157.051 34.7422C157.417 34.0968 157.601 33.3562 157.601 32.5202C157.601 31.6842 157.417 30.9362 157.051 30.2762C156.684 29.6162 156.185 29.1028 155.555 28.7362Z" fill="#3452EF"></path><path fill-rule="evenodd" clip-rule="evenodd" d="M149.439 40.1982C148.925 40.1982 148.551 40.1175 148.317 39.9562C148.097 39.7948 147.95 39.5895 147.877 39.3402C147.803 39.0762 147.767 38.7975 147.767 38.5042V26.4702C147.767 26.1915 147.796 25.9275 147.855 25.6782C147.913 25.4142 148.06 25.2015 148.295 25.0402C148.529 24.8788 148.918 24.8055 149.461 24.8202H153.421C154.477 24.8202 155.459 25.0108 156.369 25.3922C157.278 25.7735 158.077 26.3088 158.767 26.9982C159.456 27.6875 159.991 28.4942 160.373 29.4182C160.754 30.3422 160.945 31.3468 160.945 32.4322C160.945 33.5322 160.754 34.5588 160.373 35.5122C159.991 36.4508 159.456 37.2722 158.767 37.9762C158.077 38.6655 157.271 39.2082 156.347 39.6042C155.437 40.0002 154.44 40.1982 153.355 40.1982H149.439ZM155.555 28.7362C154.924 28.3548 154.205 28.1642 153.399 28.1642H151.111V36.8322H153.421C154.213 36.8322 154.924 36.6488 155.555 36.2822C156.185 35.9008 156.684 35.3875 157.051 34.7422C157.417 34.0968 157.601 33.3562 157.601 32.5202C157.601 31.6842 157.417 30.9362 157.051 30.2762C156.684 29.6162 156.185 29.1028 155.555 28.7362Z" fill="#242424"></path><path d="M98.628 39.9782C98.8627 40.1248 99.244 40.1982 99.772 40.1982C100.329 40.1982 100.718 40.1248 100.938 39.9782C101.173 39.8168 101.319 39.6115 101.378 39.3622C101.437 39.0982 101.466 38.8268 101.466 38.5482V33.9062H105.954C106.262 33.9062 106.526 33.8842 106.746 33.8402C106.981 33.7962 107.164 33.6788 107.296 33.4882C107.428 33.2828 107.494 32.9455 107.494 32.4762C107.494 31.9922 107.428 31.6475 107.296 31.4422C107.164 31.2368 106.981 31.1122 106.746 31.0682C106.526 31.0242 106.269 31.0022 105.976 31.0022H101.466V28.1642H108.11C108.403 28.1642 108.675 28.1422 108.924 28.0982C109.188 28.0395 109.401 27.8928 109.562 27.6582C109.723 27.4235 109.804 27.0422 109.804 26.5142C109.804 25.9568 109.723 25.5608 109.562 25.3262C109.415 25.0915 109.217 24.9522 108.968 24.9082C108.719 24.8495 108.447 24.8202 108.154 24.8202H99.838C99.1927 24.8202 98.7453 24.9375 98.496 25.1722C98.2467 25.4068 98.122 25.8468 98.122 26.4922V38.5262C98.122 38.8048 98.144 39.0762 98.188 39.3402C98.2467 39.6042 98.3933 39.8168 98.628 39.9782Z" fill="#3452EF"></path><path d="M98.628 39.9782C98.8627 40.1248 99.244 40.1982 99.772 40.1982C100.329 40.1982 100.718 40.1248 100.938 39.9782C101.173 39.8168 101.319 39.6115 101.378 39.3622C101.437 39.0982 101.466 38.8268 101.466 38.5482V33.9062H105.954C106.262 33.9062 106.526 33.8842 106.746 33.8402C106.981 33.7962 107.164 33.6788 107.296 33.4882C107.428 33.2828 107.494 32.9455 107.494 32.4762C107.494 31.9922 107.428 31.6475 107.296 31.4422C107.164 31.2368 106.981 31.1122 106.746 31.0682C106.526 31.0242 106.269 31.0022 105.976 31.0022H101.466V28.1642H108.11C108.403 28.1642 108.675 28.1422 108.924 28.0982C109.188 28.0395 109.401 27.8928 109.562 27.6582C109.723 27.4235 109.804 27.0422 109.804 26.5142C109.804 25.9568 109.723 25.5608 109.562 25.3262C109.415 25.0915 109.217 24.9522 108.968 24.9082C108.719 24.8495 108.447 24.8202 108.154 24.8202H99.838C99.1927 24.8202 98.7453 24.9375 98.496 25.1722C98.2467 25.4068 98.122 25.8468 98.122 26.4922V38.5262C98.122 38.8048 98.144 39.0762 98.188 39.3402C98.2467 39.6042 98.3933 39.8168 98.628 39.9782Z" fill="#242424"></path><path d="M110.697 39.9782C110.931 40.1248 111.32 40.1982 111.863 40.1982C112.405 40.1982 112.794 40.1248 113.029 39.9782C113.263 39.8315 113.403 39.6335 113.447 39.3842C113.505 39.1202 113.535 38.8488 113.535 38.5702V33.7302C113.535 33.5102 113.579 33.3122 113.667 33.1362C113.769 32.9455 113.901 32.7915 114.063 32.6742C114.239 32.5422 114.422 32.4468 114.613 32.3882C114.818 32.3295 115.031 32.3002 115.251 32.3002C115.485 32.3002 115.647 32.3222 115.735 32.3662C115.823 32.3955 115.896 32.4322 115.955 32.4762C116.028 32.5202 116.116 32.5642 116.219 32.6082C116.321 32.6522 116.497 32.6742 116.747 32.6742C117.172 32.6742 117.524 32.4688 117.803 32.0582C118.081 31.6328 118.221 31.1195 118.221 30.5182C118.221 30.2835 118.162 30.0855 118.045 29.9242C117.942 29.7628 117.803 29.6308 117.627 29.5282C117.451 29.4108 117.253 29.3228 117.033 29.2642C116.827 29.1908 116.622 29.1468 116.417 29.1322C116.226 29.1028 116.05 29.0882 115.889 29.0882C115.478 29.0882 115.111 29.1468 114.789 29.2642C114.481 29.3815 114.217 29.5282 113.997 29.7042C113.79 29.856 113.622 30.0078 113.492 30.1596C113.478 30.0798 113.455 29.9939 113.425 29.9022C113.366 29.7115 113.219 29.5502 112.985 29.4182C112.765 29.2715 112.398 29.1982 111.885 29.1982C111.342 29.1982 110.953 29.2788 110.719 29.4402C110.499 29.5868 110.359 29.7848 110.301 30.0342C110.242 30.2835 110.213 30.5548 110.213 30.8482V38.5262C110.213 38.8048 110.235 39.0762 110.279 39.3402C110.337 39.6042 110.477 39.8168 110.697 39.9782Z" fill="#3452EF"></path><path d="M110.697 39.9782C110.931 40.1248 111.32 40.1982 111.863 40.1982C112.405 40.1982 112.794 40.1248 113.029 39.9782C113.263 39.8315 113.403 39.6335 113.447 39.3842C113.505 39.1202 113.535 38.8488 113.535 38.5702V33.7302C113.535 33.5102 113.579 33.3122 113.667 33.1362C113.769 32.9455 113.901 32.7915 114.063 32.6742C114.239 32.5422 114.422 32.4468 114.613 32.3882C114.818 32.3295 115.031 32.3002 115.251 32.3002C115.485 32.3002 115.647 32.3222 115.735 32.3662C115.823 32.3955 115.896 32.4322 115.955 32.4762C116.028 32.5202 116.116 32.5642 116.219 32.6082C116.321 32.6522 116.497 32.6742 116.747 32.6742C117.172 32.6742 117.524 32.4688 117.803 32.0582C118.081 31.6328 118.221 31.1195 118.221 30.5182C118.221 30.2835 118.162 30.0855 118.045 29.9242C117.942 29.7628 117.803 29.6308 117.627 29.5282C117.451 29.4108 117.253 29.3228 117.033 29.2642C116.827 29.1908 116.622 29.1468 116.417 29.1322C116.226 29.1028 116.05 29.0882 115.889 29.0882C115.478 29.0882 115.111 29.1468 114.789 29.2642C114.481 29.3815 114.217 29.5282 113.997 29.7042C113.79 29.856 113.622 30.0078 113.492 30.1596C113.478 30.0798 113.455 29.9939 113.425 29.9022C113.366 29.7115 113.219 29.5502 112.985 29.4182C112.765 29.2715 112.398 29.1982 111.885 29.1982C111.342 29.1982 110.953 29.2788 110.719 29.4402C110.499 29.5868 110.359 29.7848 110.301 30.0342C110.242 30.2835 110.213 30.5548 110.213 30.8482V38.5262C110.213 38.8048 110.235 39.0762 110.279 39.3402C110.337 39.6042 110.477 39.8168 110.697 39.9782Z" fill="#242424"></path><path fill-rule="evenodd" clip-rule="evenodd" d="M124.305 40.3962C123.279 40.3962 122.391 40.2275 121.643 39.8902C120.91 39.5528 120.309 39.1128 119.839 38.5702C119.37 38.0128 119.018 37.3968 118.783 36.7222C118.563 36.0475 118.453 35.3728 118.453 34.6982C118.453 33.5982 118.703 32.6228 119.201 31.7722C119.7 30.9215 120.389 30.2542 121.269 29.7702C122.149 29.2715 123.161 29.0222 124.305 29.0222C125.156 29.0222 125.889 29.1615 126.505 29.4402C127.136 29.7042 127.649 30.0562 128.045 30.4962C128.456 30.9215 128.757 31.3835 128.947 31.8822C129.153 32.3808 129.255 32.8575 129.255 33.3122C129.255 34.1188 129.057 34.7202 128.661 35.1162C128.28 35.4975 127.789 35.6882 127.187 35.6882H121.951C121.981 36.0695 122.113 36.3922 122.347 36.6562C122.597 36.9202 122.905 37.1255 123.271 37.2722C123.638 37.4188 124.027 37.4922 124.437 37.4922C124.789 37.4922 125.097 37.4775 125.361 37.4482C125.625 37.4042 125.853 37.3528 126.043 37.2942C126.234 37.2208 126.41 37.1548 126.571 37.0962C126.733 37.0228 126.872 36.9642 126.989 36.9202C127.121 36.8762 127.246 36.8468 127.363 36.8322C127.583 36.8175 127.781 36.8835 127.957 37.0302C128.148 37.1622 128.317 37.3675 128.463 37.6462C128.566 37.8075 128.632 37.9615 128.661 38.1082C128.705 38.2548 128.727 38.4015 128.727 38.5482C128.727 38.9002 128.544 39.2155 128.177 39.4942C127.825 39.7728 127.319 39.9928 126.659 40.1542C126.014 40.3155 125.229 40.3962 124.305 40.3962ZM122.237 32.9382C122.047 33.2315 121.951 33.5468 121.951 33.8842H125.427C125.662 33.8842 125.831 33.8475 125.933 33.7742C126.051 33.6862 126.109 33.5248 126.109 33.2902C126.109 33.0262 126.029 32.7988 125.867 32.6082C125.706 32.4028 125.486 32.2488 125.207 32.1462C124.943 32.0288 124.635 31.9702 124.283 31.9702C123.829 31.9702 123.425 32.0582 123.073 32.2342C122.721 32.4102 122.443 32.6448 122.237 32.9382Z" fill="#3452EF"></path><path fill-rule="evenodd" clip-rule="evenodd" d="M124.305 40.3962C123.279 40.3962 122.391 40.2275 121.643 39.8902C120.91 39.5528 120.309 39.1128 119.839 38.5702C119.37 38.0128 119.018 37.3968 118.783 36.7222C118.563 36.0475 118.453 35.3728 118.453 34.6982C118.453 33.5982 118.703 32.6228 119.201 31.7722C119.7 30.9215 120.389 30.2542 121.269 29.7702C122.149 29.2715 123.161 29.0222 124.305 29.0222C125.156 29.0222 125.889 29.1615 126.505 29.4402C127.136 29.7042 127.649 30.0562 128.045 30.4962C128.456 30.9215 128.757 31.3835 128.947 31.8822C129.153 32.3808 129.255 32.8575 129.255 33.3122C129.255 34.1188 129.057 34.7202 128.661 35.1162C128.28 35.4975 127.789 35.6882 127.187 35.6882H121.951C121.981 36.0695 122.113 36.3922 122.347 36.6562C122.597 36.9202 122.905 37.1255 123.271 37.2722C123.638 37.4188 124.027 37.4922 124.437 37.4922C124.789 37.4922 125.097 37.4775 125.361 37.4482C125.625 37.4042 125.853 37.3528 126.043 37.2942C126.234 37.2208 126.41 37.1548 126.571 37.0962C126.733 37.0228 126.872 36.9642 126.989 36.9202C127.121 36.8762 127.246 36.8468 127.363 36.8322C127.583 36.8175 127.781 36.8835 127.957 37.0302C128.148 37.1622 128.317 37.3675 128.463 37.6462C128.566 37.8075 128.632 37.9615 128.661 38.1082C128.705 38.2548 128.727 38.4015 128.727 38.5482C128.727 38.9002 128.544 39.2155 128.177 39.4942C127.825 39.7728 127.319 39.9928 126.659 40.1542C126.014 40.3155 125.229 40.3962 124.305 40.3962ZM122.237 32.9382C122.047 33.2315 121.951 33.5468 121.951 33.8842H125.427C125.662 33.8842 125.831 33.8475 125.933 33.7742C126.051 33.6862 126.109 33.5248 126.109 33.2902C126.109 33.0262 126.029 32.7988 125.867 32.6082C125.706 32.4028 125.486 32.2488 125.207 32.1462C124.943 32.0288 124.635 31.9702 124.283 31.9702C123.829 31.9702 123.425 32.0582 123.073 32.2342C122.721 32.4102 122.443 32.6448 122.237 32.9382Z" fill="#242424"></path><path fill-rule="evenodd" clip-rule="evenodd" d="M133.46 39.8902C134.208 40.2275 135.095 40.3962 136.122 40.3962C137.046 40.3962 137.83 40.3155 138.476 40.1542C139.136 39.9928 139.642 39.7728 139.994 39.4942C140.36 39.2155 140.544 38.9002 140.544 38.5482C140.544 38.4015 140.522 38.2548 140.478 38.1082C140.448 37.9615 140.382 37.8075 140.28 37.6462C140.133 37.3675 139.964 37.1622 139.774 37.0302C139.598 36.8835 139.4 36.8175 139.18 36.8322C139.062 36.8468 138.938 36.8762 138.806 36.9202C138.688 36.9642 138.549 37.0228 138.388 37.0962C138.226 37.1548 138.05 37.2208 137.86 37.2942C137.669 37.3528 137.442 37.4042 137.178 37.4482C136.914 37.4775 136.606 37.4922 136.254 37.4922C135.843 37.4922 135.454 37.4188 135.088 37.2722C134.721 37.1255 134.413 36.9202 134.164 36.6562C133.929 36.3922 133.797 36.0695 133.768 35.6882H139.004C139.605 35.6882 140.096 35.4975 140.478 35.1162C140.874 34.7202 141.072 34.1188 141.072 33.3122C141.072 32.8575 140.969 32.3808 140.764 31.8822C140.573 31.3835 140.272 30.9215 139.862 30.4962C139.466 30.0562 138.952 29.7042 138.322 29.4402C137.706 29.1615 136.972 29.0222 136.122 29.0222C134.978 29.0222 133.966 29.2715 133.086 29.7702C132.206 30.2542 131.516 30.9215 131.018 31.7722C130.519 32.6228 130.27 33.5982 130.27 34.6982C130.27 35.3728 130.38 36.0475 130.6 36.7222C130.834 37.3968 131.186 38.0128 131.656 38.5702C132.125 39.1128 132.726 39.5528 133.46 39.8902ZM137.75 33.7742C137.647 33.8475 137.478 33.8842 137.244 33.8842H133.768C133.768 33.5468 133.863 33.2315 134.054 32.9382C134.259 32.6448 134.538 32.4102 134.89 32.2342C135.242 32.0582 135.645 31.9702 136.1 31.9702C136.452 31.9702 136.76 32.0288 137.024 32.1462C137.302 32.2488 137.522 32.4028 137.684 32.6082C137.845 32.7988 137.926 33.0262 137.926 33.2902C137.926 33.5248 137.867 33.6862 137.75 33.7742Z" fill="#3452EF"></path><path fill-rule="evenodd" clip-rule="evenodd" d="M133.46 39.8902C134.208 40.2275 135.095 40.3962 136.122 40.3962C137.046 40.3962 137.83 40.3155 138.476 40.1542C139.136 39.9928 139.642 39.7728 139.994 39.4942C140.36 39.2155 140.544 38.9002 140.544 38.5482C140.544 38.4015 140.522 38.2548 140.478 38.1082C140.448 37.9615 140.382 37.8075 140.28 37.6462C140.133 37.3675 139.964 37.1622 139.774 37.0302C139.598 36.8835 139.4 36.8175 139.18 36.8322C139.062 36.8468 138.938 36.8762 138.806 36.9202C138.688 36.9642 138.549 37.0228 138.388 37.0962C138.226 37.1548 138.05 37.2208 137.86 37.2942C137.669 37.3528 137.442 37.4042 137.178 37.4482C136.914 37.4775 136.606 37.4922 136.254 37.4922C135.843 37.4922 135.454 37.4188 135.088 37.2722C134.721 37.1255 134.413 36.9202 134.164 36.6562C133.929 36.3922 133.797 36.0695 133.768 35.6882H139.004C139.605 35.6882 140.096 35.4975 140.478 35.1162C140.874 34.7202 141.072 34.1188 141.072 33.3122C141.072 32.8575 140.969 32.3808 140.764 31.8822C140.573 31.3835 140.272 30.9215 139.862 30.4962C139.466 30.0562 138.952 29.7042 138.322 29.4402C137.706 29.1615 136.972 29.0222 136.122 29.0222C134.978 29.0222 133.966 29.2715 133.086 29.7702C132.206 30.2542 131.516 30.9215 131.018 31.7722C130.519 32.6228 130.27 33.5982 130.27 34.6982C130.27 35.3728 130.38 36.0475 130.6 36.7222C130.834 37.3968 131.186 38.0128 131.656 38.5702C132.125 39.1128 132.726 39.5528 133.46 39.8902ZM137.75 33.7742C137.647 33.8475 137.478 33.8842 137.244 33.8842H133.768C133.768 33.5468 133.863 33.2315 134.054 32.9382C134.259 32.6448 134.538 32.4102 134.89 32.2342C135.242 32.0582 135.645 31.9702 136.1 31.9702C136.452 31.9702 136.76 32.0288 137.024 32.1462C137.302 32.2488 137.522 32.4028 137.684 32.6082C137.845 32.7988 137.926 33.0262 137.926 33.2902C137.926 33.5248 137.867 33.6862 137.75 33.7742Z" fill="#242424"></path><path fill-rule="evenodd" clip-rule="evenodd" d="M165.257 39.8902C166.005 40.2275 166.892 40.3962 167.919 40.3962C168.843 40.3962 169.627 40.3155 170.273 40.1542C170.933 39.9928 171.439 39.7728 171.791 39.4942C172.157 39.2155 172.341 38.9002 172.341 38.5482C172.341 38.4015 172.319 38.2548 172.275 38.1082C172.245 37.9615 172.179 37.8075 172.077 37.6462C171.93 37.3675 171.761 37.1622 171.571 37.0302C171.395 36.8835 171.197 36.8175 170.977 36.8322C170.859 36.8468 170.735 36.8762 170.603 36.9202C170.485 36.9642 170.346 37.0228 170.185 37.0962C170.023 37.1548 169.847 37.2208 169.657 37.2942C169.466 37.3528 169.239 37.4042 168.975 37.4482C168.711 37.4775 168.403 37.4922 168.051 37.4922C167.64 37.4922 167.251 37.4188 166.885 37.2722C166.518 37.1255 166.21 36.9202 165.961 36.6562C165.726 36.3922 165.594 36.0695 165.565 35.6882H170.801C171.402 35.6882 171.893 35.4975 172.275 35.1162C172.671 34.7202 172.869 34.1188 172.869 33.3122C172.869 32.8575 172.766 32.3808 172.561 31.8822C172.37 31.3835 172.069 30.9215 171.659 30.4962C171.263 30.0562 170.749 29.7042 170.119 29.4402C169.503 29.1615 168.769 29.0222 167.919 29.0222C166.775 29.0222 165.763 29.2715 164.883 29.7702C164.003 30.2542 163.313 30.9215 162.815 31.7722C162.316 32.6228 162.067 33.5982 162.067 34.6982C162.067 35.3728 162.177 36.0475 162.397 36.7222C162.631 37.3968 162.983 38.0128 163.453 38.5702C163.922 39.1128 164.523 39.5528 165.257 39.8902ZM169.547 33.7742C169.444 33.8475 169.275 33.8842 169.041 33.8842H165.565C165.565 33.5468 165.66 33.2315 165.851 32.9382C166.056 32.6448 166.335 32.4102 166.687 32.2342C167.039 32.0582 167.442 31.9702 167.897 31.9702C168.249 31.9702 168.557 32.0288 168.821 32.1462C169.099 32.2488 169.319 32.4028 169.481 32.6082C169.642 32.7988 169.723 33.0262 169.723 33.2902C169.723 33.5248 169.664 33.6862 169.547 33.7742Z" fill="#3452EF"></path><path fill-rule="evenodd" clip-rule="evenodd" d="M165.257 39.8902C166.005 40.2275 166.892 40.3962 167.919 40.3962C168.843 40.3962 169.627 40.3155 170.273 40.1542C170.933 39.9928 171.439 39.7728 171.791 39.4942C172.157 39.2155 172.341 38.9002 172.341 38.5482C172.341 38.4015 172.319 38.2548 172.275 38.1082C172.245 37.9615 172.179 37.8075 172.077 37.6462C171.93 37.3675 171.761 37.1622 171.571 37.0302C171.395 36.8835 171.197 36.8175 170.977 36.8322C170.859 36.8468 170.735 36.8762 170.603 36.9202C170.485 36.9642 170.346 37.0228 170.185 37.0962C170.023 37.1548 169.847 37.2208 169.657 37.2942C169.466 37.3528 169.239 37.4042 168.975 37.4482C168.711 37.4775 168.403 37.4922 168.051 37.4922C167.64 37.4922 167.251 37.4188 166.885 37.2722C166.518 37.1255 166.21 36.9202 165.961 36.6562C165.726 36.3922 165.594 36.0695 165.565 35.6882H170.801C171.402 35.6882 171.893 35.4975 172.275 35.1162C172.671 34.7202 172.869 34.1188 172.869 33.3122C172.869 32.8575 172.766 32.3808 172.561 31.8822C172.37 31.3835 172.069 30.9215 171.659 30.4962C171.263 30.0562 170.749 29.7042 170.119 29.4402C169.503 29.1615 168.769 29.0222 167.919 29.0222C166.775 29.0222 165.763 29.2715 164.883 29.7702C164.003 30.2542 163.313 30.9215 162.815 31.7722C162.316 32.6228 162.067 33.5982 162.067 34.6982C162.067 35.3728 162.177 36.0475 162.397 36.7222C162.631 37.3968 162.983 38.0128 163.453 38.5702C163.922 39.1128 164.523 39.5528 165.257 39.8902ZM169.547 33.7742C169.444 33.8475 169.275 33.8842 169.041 33.8842H165.565C165.565 33.5468 165.66 33.2315 165.851 32.9382C166.056 32.6448 166.335 32.4102 166.687 32.2342C167.039 32.0582 167.442 31.9702 167.897 31.9702C168.249 31.9702 168.557 32.0288 168.821 32.1462C169.099 32.2488 169.319 32.4028 169.481 32.6082C169.642 32.7988 169.723 33.0262 169.723 33.2902C169.723 33.5248 169.664 33.6862 169.547 33.7742Z" fill="#242424"></path><path d="M181.49 39.9782C181.725 40.1248 182.113 40.1982 182.656 40.1982C183.199 40.1982 183.58 40.1248 183.8 39.9782C184.035 39.8315 184.174 39.6335 184.218 39.3842C184.277 39.1202 184.306 38.8488 184.306 38.5702V30.9142C184.306 30.6062 184.277 30.3275 184.218 30.0782C184.174 29.8288 184.035 29.6235 183.8 29.4622C183.58 29.3008 183.206 29.2202 182.678 29.2202C182.135 29.2202 181.747 29.3008 181.512 29.4622C181.277 29.6088 181.131 29.8068 181.072 30.0562C181.028 30.3055 181.006 30.5768 181.006 30.8702V38.5482C181.006 38.8268 181.028 39.0982 181.072 39.3622C181.131 39.6115 181.27 39.8168 181.49 39.9782Z" fill="#3452EF"></path><path d="M181.49 39.9782C181.725 40.1248 182.113 40.1982 182.656 40.1982C183.199 40.1982 183.58 40.1248 183.8 39.9782C184.035 39.8315 184.174 39.6335 184.218 39.3842C184.277 39.1202 184.306 38.8488 184.306 38.5702V30.9142C184.306 30.6062 184.277 30.3275 184.218 30.0782C184.174 29.8288 184.035 29.6235 183.8 29.4622C183.58 29.3008 183.206 29.2202 182.678 29.2202C182.135 29.2202 181.747 29.3008 181.512 29.4622C181.277 29.6088 181.131 29.8068 181.072 30.0562C181.028 30.3055 181.006 30.5768 181.006 30.8702V38.5482C181.006 38.8268 181.028 39.0982 181.072 39.3622C181.131 39.6115 181.27 39.8168 181.49 39.9782Z" fill="#242424"></path><path d="M181.468 27.3722C181.703 27.5335 182.099 27.6142 182.656 27.6142C183.213 27.6142 183.609 27.5408 183.844 27.3942C184.079 27.2328 184.218 27.0202 184.262 26.7562C184.321 26.4922 184.35 26.2135 184.35 25.9202C184.35 25.6268 184.321 25.3482 184.262 25.0842C184.218 24.8202 184.079 24.6075 183.844 24.4462C183.609 24.2848 183.221 24.2042 182.678 24.2042C182.121 24.2042 181.725 24.2848 181.49 24.4462C181.255 24.5928 181.109 24.7982 181.05 25.0622C180.991 25.3115 180.962 25.5902 180.962 25.8982C180.962 26.1915 180.984 26.4702 181.028 26.7342C181.087 26.9982 181.233 27.2108 181.468 27.3722Z" fill="#3452EF"></path><path d="M181.468 27.3722C181.703 27.5335 182.099 27.6142 182.656 27.6142C183.213 27.6142 183.609 27.5408 183.844 27.3942C184.079 27.2328 184.218 27.0202 184.262 26.7562C184.321 26.4922 184.35 26.2135 184.35 25.9202C184.35 25.6268 184.321 25.3482 184.262 25.0842C184.218 24.8202 184.079 24.6075 183.844 24.4462C183.609 24.2848 183.221 24.2042 182.678 24.2042C182.121 24.2042 181.725 24.2848 181.49 24.4462C181.255 24.5928 181.109 24.7982 181.05 25.0622C180.991 25.3115 180.962 25.5902 180.962 25.8982C180.962 26.1915 180.984 26.4702 181.028 26.7342C181.087 26.9982 181.233 27.2108 181.468 27.3722Z" fill="#242424"></path><path d="M191.504 40.2862C191.152 40.2862 190.852 40.2202 190.602 40.0882C190.353 39.9562 190.155 39.7508 190.008 39.4722L186.048 31.5742C185.784 31.0462 185.704 30.6135 185.806 30.2762C185.924 29.9242 186.261 29.6088 186.818 29.3302C187.376 29.0662 187.816 28.9782 188.138 29.0662C188.476 29.1395 188.776 29.4768 189.04 30.0782L191.504 35.8202L193.968 30.1662C194.247 29.5355 194.548 29.1688 194.87 29.0662C195.193 28.9635 195.648 29.0588 196.234 29.3522C196.836 29.6308 197.166 29.9608 197.224 30.3422C197.298 30.7088 197.21 31.1342 196.96 31.6182L193.022 39.4722C192.89 39.7508 192.7 39.9562 192.45 40.0882C192.201 40.2202 191.886 40.2862 191.504 40.2862Z" fill="#3452EF"></path><path d="M191.504 40.2862C191.152 40.2862 190.852 40.2202 190.602 40.0882C190.353 39.9562 190.155 39.7508 190.008 39.4722L186.048 31.5742C185.784 31.0462 185.704 30.6135 185.806 30.2762C185.924 29.9242 186.261 29.6088 186.818 29.3302C187.376 29.0662 187.816 28.9782 188.138 29.0662C188.476 29.1395 188.776 29.4768 189.04 30.0782L191.504 35.8202L193.968 30.1662C194.247 29.5355 194.548 29.1688 194.87 29.0662C195.193 28.9635 195.648 29.0588 196.234 29.3522C196.836 29.6308 197.166 29.9608 197.224 30.3422C197.298 30.7088 197.21 31.1342 196.96 31.6182L193.022 39.4722C192.89 39.7508 192.7 39.9562 192.45 40.0882C192.201 40.2202 191.886 40.2862 191.504 40.2862Z" fill="#242424"></path><path fill-rule="evenodd" clip-rule="evenodd" d="M200.77 39.8902C201.518 40.2275 202.406 40.3962 203.432 40.3962C204.356 40.3962 205.141 40.3155 205.786 40.1542C206.446 39.9928 206.952 39.7728 207.304 39.4942C207.671 39.2155 207.854 38.9002 207.854 38.5482C207.854 38.4015 207.832 38.2548 207.788 38.1082C207.759 37.9615 207.693 37.8075 207.59 37.6462C207.444 37.3675 207.275 37.1622 207.084 37.0302C206.908 36.8835 206.71 36.8175 206.49 36.8322C206.373 36.8468 206.248 36.8762 206.116 36.9202C205.999 36.9642 205.86 37.0228 205.698 37.0962C205.537 37.1548 205.361 37.2208 205.17 37.2942C204.98 37.3528 204.752 37.4042 204.488 37.4482C204.224 37.4775 203.916 37.4922 203.564 37.4922C203.154 37.4922 202.765 37.4188 202.398 37.2722C202.032 37.1255 201.724 36.9202 201.474 36.6562C201.24 36.3922 201.108 36.0695 201.078 35.6882H206.314C206.916 35.6882 207.407 35.4975 207.788 35.1162C208.184 34.7202 208.382 34.1188 208.382 33.3122C208.382 32.8575 208.28 32.3808 208.074 31.8822C207.884 31.3835 207.583 30.9215 207.172 30.4962C206.776 30.0562 206.263 29.7042 205.632 29.4402C205.016 29.1615 204.283 29.0222 203.432 29.0222C202.288 29.0222 201.276 29.2715 200.396 29.7702C199.516 30.2542 198.827 30.9215 198.328 31.7722C197.83 32.6228 197.58 33.5982 197.58 34.6982C197.58 35.3728 197.69 36.0475 197.91 36.7222C198.145 37.3968 198.497 38.0128 198.966 38.5702C199.436 39.1128 200.037 39.5528 200.77 39.8902ZM205.06 33.7742C204.958 33.8475 204.789 33.8842 204.554 33.8842H201.078C201.078 33.5468 201.174 33.2315 201.364 32.9382C201.57 32.6448 201.848 32.4102 202.2 32.2342C202.552 32.0582 202.956 31.9702 203.41 31.9702C203.762 31.9702 204.07 32.0288 204.334 32.1462C204.613 32.2488 204.833 32.4028 204.994 32.6082C205.156 32.7988 205.236 33.0262 205.236 33.2902C205.236 33.5248 205.178 33.6862 205.06 33.7742Z" fill="#3452EF"></path><path fill-rule="evenodd" clip-rule="evenodd" d="M200.77 39.8902C201.518 40.2275 202.406 40.3962 203.432 40.3962C204.356 40.3962 205.141 40.3155 205.786 40.1542C206.446 39.9928 206.952 39.7728 207.304 39.4942C207.671 39.2155 207.854 38.9002 207.854 38.5482C207.854 38.4015 207.832 38.2548 207.788 38.1082C207.759 37.9615 207.693 37.8075 207.59 37.6462C207.444 37.3675 207.275 37.1622 207.084 37.0302C206.908 36.8835 206.71 36.8175 206.49 36.8322C206.373 36.8468 206.248 36.8762 206.116 36.9202C205.999 36.9642 205.86 37.0228 205.698 37.0962C205.537 37.1548 205.361 37.2208 205.17 37.2942C204.98 37.3528 204.752 37.4042 204.488 37.4482C204.224 37.4775 203.916 37.4922 203.564 37.4922C203.154 37.4922 202.765 37.4188 202.398 37.2722C202.032 37.1255 201.724 36.9202 201.474 36.6562C201.24 36.3922 201.108 36.0695 201.078 35.6882H206.314C206.916 35.6882 207.407 35.4975 207.788 35.1162C208.184 34.7202 208.382 34.1188 208.382 33.3122C208.382 32.8575 208.28 32.3808 208.074 31.8822C207.884 31.3835 207.583 30.9215 207.172 30.4962C206.776 30.0562 206.263 29.7042 205.632 29.4402C205.016 29.1615 204.283 29.0222 203.432 29.0222C202.288 29.0222 201.276 29.2715 200.396 29.7702C199.516 30.2542 198.827 30.9215 198.328 31.7722C197.83 32.6228 197.58 33.5982 197.58 34.6982C197.58 35.3728 197.69 36.0475 197.91 36.7222C198.145 37.3968 198.497 38.0128 198.966 38.5702C199.436 39.1128 200.037 39.5528 200.77 39.8902ZM205.06 33.7742C204.958 33.8475 204.789 33.8842 204.554 33.8842H201.078C201.078 33.5468 201.174 33.2315 201.364 32.9382C201.57 32.6448 201.848 32.4102 202.2 32.2342C202.552 32.0582 202.956 31.9702 203.41 31.9702C203.762 31.9702 204.07 32.0288 204.334 32.1462C204.613 32.2488 204.833 32.4028 204.994 32.6082C205.156 32.7988 205.236 33.0262 205.236 33.2902C205.236 33.5248 205.178 33.6862 205.06 33.7742Z" fill="#242424"></path><path d="M211.443 40.1982C210.9 40.1982 210.511 40.1248 210.277 39.9782C210.057 39.8168 209.917 39.6042 209.859 39.3402C209.815 39.0762 209.793 38.8048 209.793 38.5262V30.8482C209.793 30.5548 209.822 30.2835 209.881 30.0342C209.939 29.7848 210.079 29.5868 210.299 29.4402C210.533 29.2788 210.922 29.1982 211.465 29.1982C211.978 29.1982 212.345 29.2715 212.565 29.4182C212.799 29.5502 212.946 29.7115 213.005 29.9022C213.035 29.9939 213.058 30.0798 213.072 30.1596C213.202 30.0078 213.37 29.856 213.577 29.7042C213.797 29.5282 214.061 29.3815 214.369 29.2642C214.691 29.1468 215.058 29.0882 215.469 29.0882C215.63 29.0882 215.806 29.1028 215.997 29.1322C216.202 29.1468 216.407 29.1908 216.613 29.2642C216.833 29.3228 217.031 29.4108 217.207 29.5282C217.383 29.6308 217.522 29.7628 217.625 29.9242C217.742 30.0855 217.801 30.2835 217.801 30.5182C217.801 31.1195 217.661 31.6328 217.383 32.0582C217.104 32.4688 216.752 32.6742 216.327 32.6742C216.077 32.6742 215.901 32.6522 215.799 32.6082C215.696 32.5642 215.608 32.5202 215.535 32.4762C215.476 32.4322 215.403 32.3955 215.315 32.3662C215.227 32.3222 215.065 32.3002 214.831 32.3002C214.611 32.3002 214.398 32.3295 214.193 32.3882C214.002 32.4468 213.819 32.5422 213.643 32.6742C213.481 32.7915 213.349 32.9455 213.247 33.1362C213.159 33.3122 213.115 33.5102 213.115 33.7302V38.5702C213.115 38.8488 213.085 39.1202 213.027 39.3842C212.983 39.6335 212.843 39.8315 212.609 39.9782C212.374 40.1248 211.985 40.1982 211.443 40.1982Z" fill="#3452EF"></path><path d="M211.443 40.1982C210.9 40.1982 210.511 40.1248 210.277 39.9782C210.057 39.8168 209.917 39.6042 209.859 39.3402C209.815 39.0762 209.793 38.8048 209.793 38.5262V30.8482C209.793 30.5548 209.822 30.2835 209.881 30.0342C209.939 29.7848 210.079 29.5868 210.299 29.4402C210.533 29.2788 210.922 29.1982 211.465 29.1982C211.978 29.1982 212.345 29.2715 212.565 29.4182C212.799 29.5502 212.946 29.7115 213.005 29.9022C213.035 29.9939 213.058 30.0798 213.072 30.1596C213.202 30.0078 213.37 29.856 213.577 29.7042C213.797 29.5282 214.061 29.3815 214.369 29.2642C214.691 29.1468 215.058 29.0882 215.469 29.0882C215.63 29.0882 215.806 29.1028 215.997 29.1322C216.202 29.1468 216.407 29.1908 216.613 29.2642C216.833 29.3228 217.031 29.4108 217.207 29.5282C217.383 29.6308 217.522 29.7628 217.625 29.9242C217.742 30.0855 217.801 30.2835 217.801 30.5182C217.801 31.1195 217.661 31.6328 217.383 32.0582C217.104 32.4688 216.752 32.6742 216.327 32.6742C216.077 32.6742 215.901 32.6522 215.799 32.6082C215.696 32.5642 215.608 32.5202 215.535 32.4762C215.476 32.4322 215.403 32.3955 215.315 32.3662C215.227 32.3222 215.065 32.3002 214.831 32.3002C214.611 32.3002 214.398 32.3295 214.193 32.3882C214.002 32.4468 213.819 32.5422 213.643 32.6742C213.481 32.7915 213.349 32.9455 213.247 33.1362C213.159 33.3122 213.115 33.5102 213.115 33.7302V38.5702C213.115 38.8488 213.085 39.1202 213.027 39.3842C212.983 39.6335 212.843 39.8315 212.609 39.9782C212.374 40.1248 211.985 40.1982 211.443 40.1982Z" fill="#242424"></path><path d="M220.949 43.7622C221.051 44.0848 221.403 44.3782 222.005 44.6422C222.606 44.9062 223.053 44.9795 223.347 44.8622C223.64 44.7448 223.911 44.4002 224.161 43.8282L229.705 31.3982C229.939 30.8848 230.005 30.4742 229.903 30.1662C229.815 29.8582 229.477 29.5648 228.891 29.2862C228.289 29.0515 227.835 28.9928 227.527 29.1102C227.233 29.2128 226.962 29.5502 226.713 30.1222L224.66 34.7106L221.521 29.9022C221.198 29.4035 220.875 29.1175 220.553 29.0442C220.245 28.9562 219.805 29.0882 219.233 29.4402C218.719 29.7775 218.426 30.1075 218.353 30.4302C218.294 30.7528 218.426 31.1562 218.749 31.6402L223.081 38.2397L221.191 42.4642C220.941 43.0068 220.861 43.4395 220.949 43.7622Z" fill="#3452EF"></path><path d="M220.949 43.7622C221.051 44.0848 221.403 44.3782 222.005 44.6422C222.606 44.9062 223.053 44.9795 223.347 44.8622C223.64 44.7448 223.911 44.4002 224.161 43.8282L229.705 31.3982C229.939 30.8848 230.005 30.4742 229.903 30.1662C229.815 29.8582 229.477 29.5648 228.891 29.2862C228.289 29.0515 227.835 28.9928 227.527 29.1102C227.233 29.2128 226.962 29.5502 226.713 30.1222L224.66 34.7106L221.521 29.9022C221.198 29.4035 220.875 29.1175 220.553 29.0442C220.245 28.9562 219.805 29.0882 219.233 29.4402C218.719 29.7775 218.426 30.1075 218.353 30.4302C218.294 30.7528 218.426 31.1562 218.749 31.6402L223.081 38.2397L221.191 42.4642C220.941 43.0068 220.861 43.4395 220.949 43.7622Z" fill="#242424"></path><path d="M99.772 64.1982C99.244 64.1982 98.8627 64.1248 98.628 63.9782C98.3933 63.8168 98.2467 63.6042 98.188 63.3402C98.144 63.0762 98.122 62.8048 98.122 62.5262V50.4922C98.122 49.8468 98.2467 49.4068 98.496 49.1722C98.7453 48.9375 99.1927 48.8202 99.838 48.8202H108.154C108.447 48.8202 108.719 48.8495 108.968 48.9082C109.217 48.9522 109.415 49.0915 109.562 49.3262C109.723 49.5608 109.804 49.9568 109.804 50.5142C109.804 51.0422 109.723 51.4235 109.562 51.6582C109.401 51.8928 109.188 52.0395 108.924 52.0982C108.675 52.1422 108.403 52.1642 108.11 52.1642H101.466V55.0022H105.976C106.269 55.0022 106.526 55.0242 106.746 55.0682C106.981 55.1122 107.164 55.2368 107.296 55.4422C107.428 55.6475 107.494 55.9922 107.494 56.4762C107.494 56.9455 107.428 57.2828 107.296 57.4882C107.164 57.6788 106.981 57.7962 106.746 57.8402C106.526 57.8842 106.262 57.9062 105.954 57.9062H101.466V62.5482C101.466 62.8268 101.437 63.0982 101.378 63.3622C101.319 63.6115 101.173 63.8168 100.938 63.9782C100.718 64.1248 100.329 64.1982 99.772 64.1982Z" fill="#3452EF"></path><path d="M99.772 64.1982C99.244 64.1982 98.8627 64.1248 98.628 63.9782C98.3933 63.8168 98.2467 63.6042 98.188 63.3402C98.144 63.0762 98.122 62.8048 98.122 62.5262V50.4922C98.122 49.8468 98.2467 49.4068 98.496 49.1722C98.7453 48.9375 99.1927 48.8202 99.838 48.8202H108.154C108.447 48.8202 108.719 48.8495 108.968 48.9082C109.217 48.9522 109.415 49.0915 109.562 49.3262C109.723 49.5608 109.804 49.9568 109.804 50.5142C109.804 51.0422 109.723 51.4235 109.562 51.6582C109.401 51.8928 109.188 52.0395 108.924 52.0982C108.675 52.1422 108.403 52.1642 108.11 52.1642H101.466V55.0022H105.976C106.269 55.0022 106.526 55.0242 106.746 55.0682C106.981 55.1122 107.164 55.2368 107.296 55.4422C107.428 55.6475 107.494 55.9922 107.494 56.4762C107.494 56.9455 107.428 57.2828 107.296 57.4882C107.164 57.6788 106.981 57.7962 106.746 57.8402C106.526 57.8842 106.262 57.9062 105.954 57.9062H101.466V62.5482C101.466 62.8268 101.437 63.0982 101.378 63.3622C101.319 63.6115 101.173 63.8168 100.938 63.9782C100.718 64.1248 100.329 64.1982 99.772 64.1982Z" fill="#242424"></path><path d="M110.697 63.9782C110.931 64.1248 111.32 64.1982 111.863 64.1982C112.405 64.1982 112.794 64.1248 113.029 63.9782C113.263 63.8315 113.403 63.6335 113.447 63.3842C113.505 63.1202 113.535 62.8488 113.535 62.5702V57.7302C113.535 57.5102 113.579 57.3122 113.667 57.1362C113.769 56.9455 113.901 56.7915 114.063 56.6742C114.239 56.5422 114.422 56.4468 114.613 56.3882C114.818 56.3295 115.031 56.3002 115.251 56.3002C115.485 56.3002 115.647 56.3222 115.735 56.3662C115.823 56.3955 115.896 56.4322 115.955 56.4762C116.028 56.5202 116.116 56.5642 116.219 56.6082C116.321 56.6522 116.497 56.6742 116.747 56.6742C117.172 56.6742 117.524 56.4688 117.803 56.0582C118.081 55.6328 118.221 55.1195 118.221 54.5182C118.221 54.2835 118.162 54.0855 118.045 53.9242C117.942 53.7628 117.803 53.6308 117.627 53.5282C117.451 53.4108 117.253 53.3228 117.033 53.2642C116.827 53.1908 116.622 53.1468 116.417 53.1322C116.226 53.1028 116.05 53.0882 115.889 53.0882C115.478 53.0882 115.111 53.1468 114.789 53.2642C114.481 53.3815 114.217 53.5282 113.997 53.7042C113.79 53.856 113.622 54.0078 113.492 54.1596C113.478 54.0798 113.455 53.9939 113.425 53.9022C113.366 53.7115 113.219 53.5502 112.985 53.4182C112.765 53.2715 112.398 53.1982 111.885 53.1982C111.342 53.1982 110.953 53.2788 110.719 53.4402C110.499 53.5868 110.359 53.7848 110.301 54.0342C110.242 54.2835 110.213 54.5548 110.213 54.8482V62.5262C110.213 62.8048 110.235 63.0762 110.279 63.3402C110.337 63.6042 110.477 63.8168 110.697 63.9782Z" fill="#3452EF"></path><path d="M110.697 63.9782C110.931 64.1248 111.32 64.1982 111.863 64.1982C112.405 64.1982 112.794 64.1248 113.029 63.9782C113.263 63.8315 113.403 63.6335 113.447 63.3842C113.505 63.1202 113.535 62.8488 113.535 62.5702V57.7302C113.535 57.5102 113.579 57.3122 113.667 57.1362C113.769 56.9455 113.901 56.7915 114.063 56.6742C114.239 56.5422 114.422 56.4468 114.613 56.3882C114.818 56.3295 115.031 56.3002 115.251 56.3002C115.485 56.3002 115.647 56.3222 115.735 56.3662C115.823 56.3955 115.896 56.4322 115.955 56.4762C116.028 56.5202 116.116 56.5642 116.219 56.6082C116.321 56.6522 116.497 56.6742 116.747 56.6742C117.172 56.6742 117.524 56.4688 117.803 56.0582C118.081 55.6328 118.221 55.1195 118.221 54.5182C118.221 54.2835 118.162 54.0855 118.045 53.9242C117.942 53.7628 117.803 53.6308 117.627 53.5282C117.451 53.4108 117.253 53.3228 117.033 53.2642C116.827 53.1908 116.622 53.1468 116.417 53.1322C116.226 53.1028 116.05 53.0882 115.889 53.0882C115.478 53.0882 115.111 53.1468 114.789 53.2642C114.481 53.3815 114.217 53.5282 113.997 53.7042C113.79 53.856 113.622 54.0078 113.492 54.1596C113.478 54.0798 113.455 53.9939 113.425 53.9022C113.366 53.7115 113.219 53.5502 112.985 53.4182C112.765 53.2715 112.398 53.1982 111.885 53.1982C111.342 53.1982 110.953 53.2788 110.719 53.4402C110.499 53.5868 110.359 53.7848 110.301 54.0342C110.242 54.2835 110.213 54.5548 110.213 54.8482V62.5262C110.213 62.8048 110.235 63.0762 110.279 63.3402C110.337 63.6042 110.477 63.8168 110.697 63.9782Z" fill="#242424"></path><path fill-rule="evenodd" clip-rule="evenodd" d="M124.258 64.3742C123.569 64.3742 122.88 64.2422 122.19 63.9782C121.516 63.6995 120.9 63.3108 120.342 62.8122C119.785 62.3135 119.345 61.7195 119.022 61.0302C118.7 60.3262 118.538 59.5488 118.538 58.6982C118.538 57.9062 118.685 57.1728 118.978 56.4982C119.272 55.8088 119.682 55.2002 120.21 54.6722C120.738 54.1442 121.34 53.7335 122.014 53.4402C122.704 53.1322 123.437 52.9782 124.214 52.9782C125.27 52.9782 126.224 53.2348 127.074 53.7482C127.94 54.2468 128.629 54.9288 129.142 55.7942C129.656 56.6595 129.912 57.6202 129.912 58.6762C129.912 59.5708 129.744 60.3702 129.406 61.0742C129.084 61.7635 128.644 62.3575 128.086 62.8562C127.544 63.3548 126.935 63.7362 126.26 64.0002C125.6 64.2495 124.933 64.3742 124.258 64.3742ZM124.214 61.0522C124.566 61.0522 124.926 60.9642 125.292 60.7882C125.659 60.6122 125.967 60.3482 126.216 59.9962C126.466 59.6442 126.59 59.1968 126.59 58.6542C126.59 58.1848 126.488 57.7742 126.282 57.4222C126.077 57.0702 125.791 56.7988 125.424 56.6082C125.072 56.4028 124.662 56.3002 124.192 56.3002C123.752 56.3002 123.356 56.4028 123.004 56.6082C122.667 56.8135 122.388 57.0995 122.168 57.4662C121.963 57.8182 121.86 58.2215 121.86 58.6762C121.86 59.2042 121.978 59.6515 122.212 60.0182C122.462 60.3702 122.77 60.6342 123.136 60.8102C123.503 60.9715 123.862 61.0522 124.214 61.0522Z" fill="#3452EF"></path><path fill-rule="evenodd" clip-rule="evenodd" d="M124.258 64.3742C123.569 64.3742 122.88 64.2422 122.19 63.9782C121.516 63.6995 120.9 63.3108 120.342 62.8122C119.785 62.3135 119.345 61.7195 119.022 61.0302C118.7 60.3262 118.538 59.5488 118.538 58.6982C118.538 57.9062 118.685 57.1728 118.978 56.4982C119.272 55.8088 119.682 55.2002 120.21 54.6722C120.738 54.1442 121.34 53.7335 122.014 53.4402C122.704 53.1322 123.437 52.9782 124.214 52.9782C125.27 52.9782 126.224 53.2348 127.074 53.7482C127.94 54.2468 128.629 54.9288 129.142 55.7942C129.656 56.6595 129.912 57.6202 129.912 58.6762C129.912 59.5708 129.744 60.3702 129.406 61.0742C129.084 61.7635 128.644 62.3575 128.086 62.8562C127.544 63.3548 126.935 63.7362 126.26 64.0002C125.6 64.2495 124.933 64.3742 124.258 64.3742ZM124.214 61.0522C124.566 61.0522 124.926 60.9642 125.292 60.7882C125.659 60.6122 125.967 60.3482 126.216 59.9962C126.466 59.6442 126.59 59.1968 126.59 58.6542C126.59 58.1848 126.488 57.7742 126.282 57.4222C126.077 57.0702 125.791 56.7988 125.424 56.6082C125.072 56.4028 124.662 56.3002 124.192 56.3002C123.752 56.3002 123.356 56.4028 123.004 56.6082C122.667 56.8135 122.388 57.0995 122.168 57.4662C121.963 57.8182 121.86 58.2215 121.86 58.6762C121.86 59.2042 121.978 59.6515 122.212 60.0182C122.462 60.3702 122.77 60.6342 123.136 60.8102C123.503 60.9715 123.862 61.0522 124.214 61.0522Z" fill="#242424"></path><path d="M131.729 63.9562C131.964 64.1175 132.345 64.1982 132.873 64.1982C133.416 64.1982 133.805 64.1248 134.039 63.9782C134.274 63.8168 134.413 63.6115 134.457 63.3622C134.516 63.1128 134.545 62.8415 134.545 62.5482V58.5882C134.545 58.1922 134.597 57.8402 134.699 57.5322C134.817 57.2095 134.993 56.9528 135.227 56.7622C135.462 56.5715 135.763 56.4762 136.129 56.4762C136.467 56.4762 136.738 56.5568 136.943 56.7182C137.149 56.8795 137.303 57.1215 137.405 57.4442C137.508 57.7522 137.559 58.1335 137.559 58.5882V62.5262C137.559 62.7902 137.581 63.0542 137.625 63.3182C137.669 63.5675 137.801 63.7728 138.021 63.9342C138.241 64.0955 138.615 64.1835 139.143 64.1982C139.671 64.2128 140.053 64.1468 140.287 64.0002C140.537 63.8388 140.698 63.6335 140.771 63.3842C140.845 63.1202 140.881 62.8415 140.881 62.5482V58.6102C140.881 58.1262 140.94 57.7302 141.057 57.4222C141.175 57.0995 141.351 56.8648 141.585 56.7182C141.82 56.5568 142.106 56.4762 142.443 56.4762C142.766 56.4762 143.03 56.5642 143.235 56.7402C143.455 56.9015 143.617 57.1362 143.719 57.4442C143.822 57.7522 143.873 58.1335 143.873 58.5882V62.5262C143.873 62.8048 143.895 63.0762 143.939 63.3402C143.998 63.5895 144.137 63.7948 144.357 63.9562C144.592 64.1175 144.981 64.1982 145.523 64.1982C146.066 64.1982 146.455 64.1248 146.689 63.9782C146.924 63.8168 147.063 63.6115 147.107 63.3622C147.166 63.0982 147.195 62.8268 147.195 62.5482V58.6102C147.195 57.4662 147.041 56.4908 146.733 55.6842C146.425 54.8775 145.971 54.2615 145.369 53.8362C144.783 53.3962 144.064 53.1762 143.213 53.1762C142.715 53.1762 142.26 53.2715 141.849 53.4622C141.453 53.6528 141.109 53.8875 140.815 54.1662C140.522 54.4448 140.273 54.7308 140.067 55.0242C139.833 54.6135 139.554 54.2762 139.231 54.0122C138.923 53.7335 138.571 53.5282 138.175 53.3962C137.794 53.2495 137.361 53.1762 136.877 53.1762C136.511 53.1762 136.166 53.2495 135.843 53.3962C135.535 53.5282 135.264 53.6895 135.029 53.8802C134.804 54.0633 134.619 54.2397 134.475 54.4093C134.451 54.0049 134.327 53.7112 134.105 53.5282C133.856 53.3082 133.46 53.1982 132.917 53.1982C132.375 53.1982 131.986 53.2788 131.751 53.4402C131.517 53.5868 131.37 53.7848 131.311 54.0342C131.267 54.2688 131.245 54.5328 131.245 54.8262V62.5262C131.245 62.8195 131.267 63.0908 131.311 63.3402C131.355 63.5895 131.495 63.7948 131.729 63.9562Z" fill="#3452EF"></path><path d="M131.729 63.9562C131.964 64.1175 132.345 64.1982 132.873 64.1982C133.416 64.1982 133.805 64.1248 134.039 63.9782C134.274 63.8168 134.413 63.6115 134.457 63.3622C134.516 63.1128 134.545 62.8415 134.545 62.5482V58.5882C134.545 58.1922 134.597 57.8402 134.699 57.5322C134.817 57.2095 134.993 56.9528 135.227 56.7622C135.462 56.5715 135.763 56.4762 136.129 56.4762C136.467 56.4762 136.738 56.5568 136.943 56.7182C137.149 56.8795 137.303 57.1215 137.405 57.4442C137.508 57.7522 137.559 58.1335 137.559 58.5882V62.5262C137.559 62.7902 137.581 63.0542 137.625 63.3182C137.669 63.5675 137.801 63.7728 138.021 63.9342C138.241 64.0955 138.615 64.1835 139.143 64.1982C139.671 64.2128 140.053 64.1468 140.287 64.0002C140.537 63.8388 140.698 63.6335 140.771 63.3842C140.845 63.1202 140.881 62.8415 140.881 62.5482V58.6102C140.881 58.1262 140.94 57.7302 141.057 57.4222C141.175 57.0995 141.351 56.8648 141.585 56.7182C141.82 56.5568 142.106 56.4762 142.443 56.4762C142.766 56.4762 143.03 56.5642 143.235 56.7402C143.455 56.9015 143.617 57.1362 143.719 57.4442C143.822 57.7522 143.873 58.1335 143.873 58.5882V62.5262C143.873 62.8048 143.895 63.0762 143.939 63.3402C143.998 63.5895 144.137 63.7948 144.357 63.9562C144.592 64.1175 144.981 64.1982 145.523 64.1982C146.066 64.1982 146.455 64.1248 146.689 63.9782C146.924 63.8168 147.063 63.6115 147.107 63.3622C147.166 63.0982 147.195 62.8268 147.195 62.5482V58.6102C147.195 57.4662 147.041 56.4908 146.733 55.6842C146.425 54.8775 145.971 54.2615 145.369 53.8362C144.783 53.3962 144.064 53.1762 143.213 53.1762C142.715 53.1762 142.26 53.2715 141.849 53.4622C141.453 53.6528 141.109 53.8875 140.815 54.1662C140.522 54.4448 140.273 54.7308 140.067 55.0242C139.833 54.6135 139.554 54.2762 139.231 54.0122C138.923 53.7335 138.571 53.5282 138.175 53.3962C137.794 53.2495 137.361 53.1762 136.877 53.1762C136.511 53.1762 136.166 53.2495 135.843 53.3962C135.535 53.5282 135.264 53.6895 135.029 53.8802C134.804 54.0633 134.619 54.2397 134.475 54.4093C134.451 54.0049 134.327 53.7112 134.105 53.5282C133.856 53.3082 133.46 53.1982 132.917 53.1982C132.375 53.1982 131.986 53.2788 131.751 53.4402C131.517 53.5868 131.37 53.7848 131.311 54.0342C131.267 54.2688 131.245 54.5328 131.245 54.8262V62.5262C131.245 62.8195 131.267 63.0908 131.311 63.3402C131.355 63.5895 131.495 63.7948 131.729 63.9562Z" fill="#242424"></path><path d="M163.907 58.5502C163.907 59.1335 163.815 59.6668 163.632 60.1502C163.465 60.6335 163.215 61.0585 162.882 61.4252C162.565 61.7918 162.182 62.1002 161.732 62.3502C161.282 62.5835 160.774 62.7585 160.207 62.8752V64.4002C160.207 64.6835 160.182 64.9502 160.132 65.2002C160.082 65.4502 159.957 65.6502 159.757 65.8002C159.557 65.9502 159.24 66.0252 158.807 66.0252C158.374 66.0252 158.057 65.9418 157.857 65.7752C157.657 65.6252 157.532 65.4252 157.482 65.1752C157.449 64.9252 157.432 64.6585 157.432 64.3752V62.8502C156.999 62.7668 156.582 62.6335 156.182 62.4502C155.799 62.2668 155.44 62.0418 155.107 61.7752C154.79 61.5085 154.515 61.2168 154.282 60.9002C153.965 60.4502 153.815 60.0668 153.832 59.7502C153.865 59.4335 154.107 59.0668 154.557 58.6502C154.857 58.4002 155.14 58.2668 155.407 58.2502C155.674 58.2168 155.932 58.2752 156.182 58.4252C156.432 58.5752 156.657 58.7835 156.857 59.0502C157.124 59.4002 157.407 59.6585 157.707 59.8252C158.024 59.9918 158.374 60.0752 158.757 60.0752C159.19 60.0752 159.549 60.0252 159.832 59.9252C160.132 59.8085 160.349 59.6418 160.482 59.4252C160.632 59.1918 160.707 58.9168 160.707 58.6002C160.707 58.2168 160.515 57.9335 160.132 57.7502C159.749 57.5668 159.257 57.4002 158.657 57.2502C158.074 57.0835 157.482 56.8752 156.882 56.6252C156.515 56.4585 156.165 56.2752 155.832 56.0752C155.499 55.8585 155.199 55.6002 154.932 55.3002C154.682 55.0002 154.482 54.6418 154.332 54.2252C154.182 53.8085 154.107 53.3168 154.107 52.7502C154.107 52.2168 154.182 51.7335 154.332 51.3002C154.482 50.8502 154.699 50.4585 154.982 50.1252C155.282 49.7918 155.632 49.5168 156.032 49.3002C156.449 49.0668 156.915 48.9002 157.432 48.8002V47.4502C157.432 47.1668 157.449 46.9085 157.482 46.6752C157.532 46.4252 157.657 46.2252 157.857 46.0752C158.057 45.9085 158.374 45.8252 158.807 45.8252C159.24 45.8252 159.557 45.9085 159.757 46.0752C159.957 46.2252 160.082 46.4252 160.132 46.6752C160.182 46.9252 160.207 47.1918 160.207 47.4752V48.7752C160.674 48.8418 161.082 48.9752 161.432 49.1752C161.799 49.3752 162.157 49.6252 162.507 49.9252C162.907 50.2752 163.124 50.5835 163.157 50.8502C163.19 51.1002 163.04 51.4585 162.707 51.9252C162.49 52.2585 162.265 52.4918 162.032 52.6252C161.799 52.7585 161.557 52.8002 161.307 52.7502C161.074 52.7002 160.815 52.5752 160.532 52.3752C160.399 52.2585 160.249 52.1418 160.082 52.0252C159.915 51.9085 159.724 51.8168 159.507 51.7502C159.29 51.6668 159.015 51.6252 158.682 51.6252C158.465 51.6252 158.274 51.6585 158.107 51.7252C157.94 51.7752 157.79 51.8502 157.657 51.9502C157.54 52.0502 157.44 52.1752 157.357 52.3252C157.29 52.4585 157.257 52.6085 157.257 52.7752C157.257 53.1252 157.39 53.3918 157.657 53.5752C157.924 53.7585 158.274 53.9085 158.707 54.0252C159.157 54.1418 159.632 54.2668 160.132 54.4002C160.582 54.5168 161.024 54.6668 161.457 54.8502C161.907 55.0168 162.315 55.2502 162.682 55.5502C163.049 55.8502 163.34 56.2418 163.557 56.7252C163.79 57.2085 163.907 57.8168 163.907 58.5502Z" fill="#3452EF"></path><path d="M163.907 58.5502C163.907 59.1335 163.815 59.6668 163.632 60.1502C163.465 60.6335 163.215 61.0585 162.882 61.4252C162.565 61.7918 162.182 62.1002 161.732 62.3502C161.282 62.5835 160.774 62.7585 160.207 62.8752V64.4002C160.207 64.6835 160.182 64.9502 160.132 65.2002C160.082 65.4502 159.957 65.6502 159.757 65.8002C159.557 65.9502 159.24 66.0252 158.807 66.0252C158.374 66.0252 158.057 65.9418 157.857 65.7752C157.657 65.6252 157.532 65.4252 157.482 65.1752C157.449 64.9252 157.432 64.6585 157.432 64.3752V62.8502C156.999 62.7668 156.582 62.6335 156.182 62.4502C155.799 62.2668 155.44 62.0418 155.107 61.7752C154.79 61.5085 154.515 61.2168 154.282 60.9002C153.965 60.4502 153.815 60.0668 153.832 59.7502C153.865 59.4335 154.107 59.0668 154.557 58.6502C154.857 58.4002 155.14 58.2668 155.407 58.2502C155.674 58.2168 155.932 58.2752 156.182 58.4252C156.432 58.5752 156.657 58.7835 156.857 59.0502C157.124 59.4002 157.407 59.6585 157.707 59.8252C158.024 59.9918 158.374 60.0752 158.757 60.0752C159.19 60.0752 159.549 60.0252 159.832 59.9252C160.132 59.8085 160.349 59.6418 160.482 59.4252C160.632 59.1918 160.707 58.9168 160.707 58.6002C160.707 58.2168 160.515 57.9335 160.132 57.7502C159.749 57.5668 159.257 57.4002 158.657 57.2502C158.074 57.0835 157.482 56.8752 156.882 56.6252C156.515 56.4585 156.165 56.2752 155.832 56.0752C155.499 55.8585 155.199 55.6002 154.932 55.3002C154.682 55.0002 154.482 54.6418 154.332 54.2252C154.182 53.8085 154.107 53.3168 154.107 52.7502C154.107 52.2168 154.182 51.7335 154.332 51.3002C154.482 50.8502 154.699 50.4585 154.982 50.1252C155.282 49.7918 155.632 49.5168 156.032 49.3002C156.449 49.0668 156.915 48.9002 157.432 48.8002V47.4502C157.432 47.1668 157.449 46.9085 157.482 46.6752C157.532 46.4252 157.657 46.2252 157.857 46.0752C158.057 45.9085 158.374 45.8252 158.807 45.8252C159.24 45.8252 159.557 45.9085 159.757 46.0752C159.957 46.2252 160.082 46.4252 160.132 46.6752C160.182 46.9252 160.207 47.1918 160.207 47.4752V48.7752C160.674 48.8418 161.082 48.9752 161.432 49.1752C161.799 49.3752 162.157 49.6252 162.507 49.9252C162.907 50.2752 163.124 50.5835 163.157 50.8502C163.19 51.1002 163.04 51.4585 162.707 51.9252C162.49 52.2585 162.265 52.4918 162.032 52.6252C161.799 52.7585 161.557 52.8002 161.307 52.7502C161.074 52.7002 160.815 52.5752 160.532 52.3752C160.399 52.2585 160.249 52.1418 160.082 52.0252C159.915 51.9085 159.724 51.8168 159.507 51.7502C159.29 51.6668 159.015 51.6252 158.682 51.6252C158.465 51.6252 158.274 51.6585 158.107 51.7252C157.94 51.7752 157.79 51.8502 157.657 51.9502C157.54 52.0502 157.44 52.1752 157.357 52.3252C157.29 52.4585 157.257 52.6085 157.257 52.7752C157.257 53.1252 157.39 53.3918 157.657 53.5752C157.924 53.7585 158.274 53.9085 158.707 54.0252C159.157 54.1418 159.632 54.2668 160.132 54.4002C160.582 54.5168 161.024 54.6668 161.457 54.8502C161.907 55.0168 162.315 55.2502 162.682 55.5502C163.049 55.8502 163.34 56.2418 163.557 56.7252C163.79 57.2085 163.907 57.8168 163.907 58.5502Z" fill="#242424"></path><path d="M168.712 64.2752C169.279 64.4252 169.92 64.5002 170.637 64.5002C171.737 64.5002 172.729 64.2335 173.612 63.7002C174.512 63.1668 175.22 62.4418 175.737 61.5252C176.254 60.6085 176.512 59.5752 176.512 58.4252C176.512 57.6585 176.354 56.9335 176.037 56.2502C175.72 55.5668 175.287 54.9585 174.737 54.4252C174.204 53.8918 173.587 53.4752 172.887 53.1752C172.204 52.8752 171.487 52.7252 170.737 52.7252H170.587C170.47 52.7252 170.354 52.7418 170.237 52.7752C170.12 52.7918 170.004 52.8168 169.887 52.8502C169.77 52.8835 169.662 52.9335 169.562 53.0002L169.912 50.4752H174.312C174.612 50.4752 174.895 50.4502 175.162 50.4002C175.445 50.3502 175.67 50.2002 175.837 49.9502C176.004 49.6835 176.087 49.2585 176.087 48.6752C176.087 48.0418 175.995 47.5918 175.812 47.3252C175.645 47.0585 175.42 46.8918 175.137 46.8252C174.854 46.7585 174.545 46.7252 174.212 46.7252L168.237 46.7002C167.687 46.7002 167.279 46.8168 167.012 47.0502C166.762 47.2668 166.595 47.5252 166.512 47.8252C166.429 48.1252 166.37 48.3918 166.337 48.6252L165.362 55.9002C165.362 56.1502 165.454 56.3668 165.637 56.5502C165.82 56.7335 166.137 56.9418 166.587 57.1752C166.87 57.3252 167.129 57.4335 167.362 57.5002C167.595 57.5502 167.82 57.5668 168.037 57.5502C168.304 57.5502 168.52 57.5002 168.687 57.4002C168.87 57.2835 169.037 57.1585 169.187 57.0252C169.254 56.9585 169.345 56.8835 169.462 56.8002C169.595 56.7168 169.754 56.6502 169.937 56.6002C170.12 56.5502 170.329 56.5252 170.562 56.5252C170.962 56.5252 171.32 56.6168 171.637 56.8002C171.954 56.9668 172.204 57.2085 172.387 57.5252C172.587 57.8418 172.687 58.2002 172.687 58.6002C172.687 59.0335 172.595 59.4085 172.412 59.7252C172.229 60.0252 171.97 60.2585 171.637 60.4252C171.32 60.5918 170.929 60.6752 170.462 60.6752C170.029 60.6752 169.679 60.6335 169.412 60.5502C169.162 60.4668 168.962 60.3752 168.812 60.2752L168.512 60.0502C168.195 59.7835 167.929 59.6002 167.712 59.5002C167.495 59.4002 167.287 59.3502 167.087 59.3502C166.87 59.3502 166.654 59.4168 166.437 59.5502C166.22 59.6668 166.004 59.8502 165.787 60.1002C165.52 60.3668 165.329 60.6168 165.212 60.8502C165.095 61.0835 165.037 61.3085 165.037 61.5252C165.037 61.7918 165.112 62.0252 165.262 62.2252C165.429 62.4252 165.629 62.6168 165.862 62.8002C165.945 62.8668 166.104 62.9918 166.337 63.1752C166.587 63.3418 166.904 63.5335 167.287 63.7502C167.687 63.9502 168.162 64.1252 168.712 64.2752Z" fill="#3452EF"></path><path d="M168.712 64.2752C169.279 64.4252 169.92 64.5002 170.637 64.5002C171.737 64.5002 172.729 64.2335 173.612 63.7002C174.512 63.1668 175.22 62.4418 175.737 61.5252C176.254 60.6085 176.512 59.5752 176.512 58.4252C176.512 57.6585 176.354 56.9335 176.037 56.2502C175.72 55.5668 175.287 54.9585 174.737 54.4252C174.204 53.8918 173.587 53.4752 172.887 53.1752C172.204 52.8752 171.487 52.7252 170.737 52.7252H170.587C170.47 52.7252 170.354 52.7418 170.237 52.7752C170.12 52.7918 170.004 52.8168 169.887 52.8502C169.77 52.8835 169.662 52.9335 169.562 53.0002L169.912 50.4752H174.312C174.612 50.4752 174.895 50.4502 175.162 50.4002C175.445 50.3502 175.67 50.2002 175.837 49.9502C176.004 49.6835 176.087 49.2585 176.087 48.6752C176.087 48.0418 175.995 47.5918 175.812 47.3252C175.645 47.0585 175.42 46.8918 175.137 46.8252C174.854 46.7585 174.545 46.7252 174.212 46.7252L168.237 46.7002C167.687 46.7002 167.279 46.8168 167.012 47.0502C166.762 47.2668 166.595 47.5252 166.512 47.8252C166.429 48.1252 166.37 48.3918 166.337 48.6252L165.362 55.9002C165.362 56.1502 165.454 56.3668 165.637 56.5502C165.82 56.7335 166.137 56.9418 166.587 57.1752C166.87 57.3252 167.129 57.4335 167.362 57.5002C167.595 57.5502 167.82 57.5668 168.037 57.5502C168.304 57.5502 168.52 57.5002 168.687 57.4002C168.87 57.2835 169.037 57.1585 169.187 57.0252C169.254 56.9585 169.345 56.8835 169.462 56.8002C169.595 56.7168 169.754 56.6502 169.937 56.6002C170.12 56.5502 170.329 56.5252 170.562 56.5252C170.962 56.5252 171.32 56.6168 171.637 56.8002C171.954 56.9668 172.204 57.2085 172.387 57.5252C172.587 57.8418 172.687 58.2002 172.687 58.6002C172.687 59.0335 172.595 59.4085 172.412 59.7252C172.229 60.0252 171.97 60.2585 171.637 60.4252C171.32 60.5918 170.929 60.6752 170.462 60.6752C170.029 60.6752 169.679 60.6335 169.412 60.5502C169.162 60.4668 168.962 60.3752 168.812 60.2752L168.512 60.0502C168.195 59.7835 167.929 59.6002 167.712 59.5002C167.495 59.4002 167.287 59.3502 167.087 59.3502C166.87 59.3502 166.654 59.4168 166.437 59.5502C166.22 59.6668 166.004 59.8502 165.787 60.1002C165.52 60.3668 165.329 60.6168 165.212 60.8502C165.095 61.0835 165.037 61.3085 165.037 61.5252C165.037 61.7918 165.112 62.0252 165.262 62.2252C165.429 62.4252 165.629 62.6168 165.862 62.8002C165.945 62.8668 166.104 62.9918 166.337 63.1752C166.587 63.3418 166.904 63.5335 167.287 63.7502C167.687 63.9502 168.162 64.1252 168.712 64.2752Z" fill="#242424"></path><path fill-rule="evenodd" clip-rule="evenodd" d="M179.961 64.2502C179.661 64.2502 179.378 64.2085 179.111 64.1252C178.845 64.0585 178.628 63.9002 178.461 63.6502C178.295 63.3835 178.211 62.9418 178.211 62.3252C178.211 61.7085 178.295 61.2752 178.461 61.0252C178.645 60.7585 178.886 60.6002 179.186 60.5502C179.486 60.4835 179.803 60.4502 180.136 60.4502C180.92 60.4502 181.603 60.3502 182.186 60.1502C182.786 59.9335 183.295 59.6585 183.711 59.3252C184.128 58.9918 184.47 58.6335 184.736 58.2502C185.003 57.8502 185.195 57.4752 185.311 57.1252C185.36 56.9707 185.399 56.8251 185.428 56.6884L185.411 56.7002C185.178 56.8502 184.87 56.9835 184.486 57.1002C184.12 57.2168 183.728 57.2752 183.311 57.2752C182.278 57.2752 181.336 57.0418 180.486 56.5752C179.636 56.1085 178.961 55.4918 178.461 54.7252C177.961 53.9418 177.711 53.0835 177.711 52.1502C177.711 51.0668 177.961 50.1002 178.461 49.2502C178.978 48.4002 179.67 47.7335 180.536 47.2502C181.403 46.7502 182.395 46.5002 183.511 46.5002C184.778 46.5002 185.87 46.7835 186.786 47.3502C187.72 47.9002 188.428 48.7002 188.911 49.7502C189.411 50.8002 189.661 52.0752 189.661 53.5752C189.661 54.8585 189.511 56.0502 189.211 57.1502C188.911 58.2335 188.478 59.2168 187.911 60.1002C187.361 60.9668 186.686 61.7168 185.886 62.3502C185.103 62.9668 184.211 63.4418 183.211 63.7752C182.211 64.0918 181.128 64.2502 179.961 64.2502ZM183.461 53.8502C183.945 53.8502 184.353 53.7835 184.686 53.6502C185.02 53.5002 185.278 53.2835 185.461 53.0002C185.645 52.7168 185.736 52.4002 185.736 52.0502C185.736 51.6002 185.653 51.2335 185.486 50.9502C185.336 50.6502 185.103 50.4252 184.786 50.2752C184.47 50.1252 184.078 50.0502 183.611 50.0502C183.128 50.0502 182.72 50.1252 182.386 50.2752C182.07 50.4252 181.828 50.6418 181.661 50.9252C181.511 51.2085 181.436 51.5668 181.436 52.0002C181.436 52.3502 181.52 52.6752 181.686 52.9752C181.853 53.2585 182.086 53.4752 182.386 53.6252C182.703 53.7752 183.061 53.8502 183.461 53.8502Z" fill="#3452EF"></path><path fill-rule="evenodd" clip-rule="evenodd" d="M179.961 64.2502C179.661 64.2502 179.378 64.2085 179.111 64.1252C178.845 64.0585 178.628 63.9002 178.461 63.6502C178.295 63.3835 178.211 62.9418 178.211 62.3252C178.211 61.7085 178.295 61.2752 178.461 61.0252C178.645 60.7585 178.886 60.6002 179.186 60.5502C179.486 60.4835 179.803 60.4502 180.136 60.4502C180.92 60.4502 181.603 60.3502 182.186 60.1502C182.786 59.9335 183.295 59.6585 183.711 59.3252C184.128 58.9918 184.47 58.6335 184.736 58.2502C185.003 57.8502 185.195 57.4752 185.311 57.1252C185.36 56.9707 185.399 56.8251 185.428 56.6884L185.411 56.7002C185.178 56.8502 184.87 56.9835 184.486 57.1002C184.12 57.2168 183.728 57.2752 183.311 57.2752C182.278 57.2752 181.336 57.0418 180.486 56.5752C179.636 56.1085 178.961 55.4918 178.461 54.7252C177.961 53.9418 177.711 53.0835 177.711 52.1502C177.711 51.0668 177.961 50.1002 178.461 49.2502C178.978 48.4002 179.67 47.7335 180.536 47.2502C181.403 46.7502 182.395 46.5002 183.511 46.5002C184.778 46.5002 185.87 46.7835 186.786 47.3502C187.72 47.9002 188.428 48.7002 188.911 49.7502C189.411 50.8002 189.661 52.0752 189.661 53.5752C189.661 54.8585 189.511 56.0502 189.211 57.1502C188.911 58.2335 188.478 59.2168 187.911 60.1002C187.361 60.9668 186.686 61.7168 185.886 62.3502C185.103 62.9668 184.211 63.4418 183.211 63.7752C182.211 64.0918 181.128 64.2502 179.961 64.2502ZM183.461 53.8502C183.945 53.8502 184.353 53.7835 184.686 53.6502C185.02 53.5002 185.278 53.2835 185.461 53.0002C185.645 52.7168 185.736 52.4002 185.736 52.0502C185.736 51.6002 185.653 51.2335 185.486 50.9502C185.336 50.6502 185.103 50.4252 184.786 50.2752C184.47 50.1252 184.078 50.0502 183.611 50.0502C183.128 50.0502 182.72 50.1252 182.386 50.2752C182.07 50.4252 181.828 50.6418 181.661 50.9252C181.511 51.2085 181.436 51.5668 181.436 52.0002C181.436 52.3502 181.52 52.6752 181.686 52.9752C181.853 53.2585 182.086 53.4752 182.386 53.6252C182.703 53.7752 183.061 53.8502 183.461 53.8502Z" fill="#242424"></path><path d="M191.146 67.0752C191.246 67.2085 191.337 67.2918 191.421 67.3252L191.571 67.3752C192.154 67.3752 192.696 67.1752 193.196 66.7752C193.696 66.3752 194.112 65.8418 194.446 65.1752C194.779 64.5252 194.979 63.8002 195.046 63.0002C195.079 62.8668 195.096 62.7335 195.096 62.6002V62.2002C195.096 61.9002 195.079 61.6085 195.046 61.3252C195.012 61.0418 194.896 60.8002 194.696 60.6002C194.396 60.2835 193.862 60.1252 193.096 60.1252C192.412 60.1252 191.921 60.2335 191.621 60.4502C191.337 60.6502 191.162 60.9002 191.096 61.2002C191.046 61.5002 191.021 61.8085 191.021 62.1252C191.021 62.3918 191.037 62.6752 191.071 62.9752C191.104 63.2752 191.221 63.5252 191.421 63.7252C191.537 63.8252 191.671 63.9168 191.821 64.0002C191.971 64.0668 192.137 64.1252 192.321 64.1752C192.271 64.6418 192.121 64.9668 191.871 65.1502C191.637 65.3502 191.512 65.4668 191.496 65.5002C191.429 65.5168 191.329 65.5835 191.196 65.7002C191.079 65.8168 191.021 66.0668 191.021 66.4502C191.021 66.7502 191.062 66.9585 191.146 67.0752Z" fill="#3452EF"></path><path d="M191.146 67.0752C191.246 67.2085 191.337 67.2918 191.421 67.3252L191.571 67.3752C192.154 67.3752 192.696 67.1752 193.196 66.7752C193.696 66.3752 194.112 65.8418 194.446 65.1752C194.779 64.5252 194.979 63.8002 195.046 63.0002C195.079 62.8668 195.096 62.7335 195.096 62.6002V62.2002C195.096 61.9002 195.079 61.6085 195.046 61.3252C195.012 61.0418 194.896 60.8002 194.696 60.6002C194.396 60.2835 193.862 60.1252 193.096 60.1252C192.412 60.1252 191.921 60.2335 191.621 60.4502C191.337 60.6502 191.162 60.9002 191.096 61.2002C191.046 61.5002 191.021 61.8085 191.021 62.1252C191.021 62.3918 191.037 62.6752 191.071 62.9752C191.104 63.2752 191.221 63.5252 191.421 63.7252C191.537 63.8252 191.671 63.9168 191.821 64.0002C191.971 64.0668 192.137 64.1252 192.321 64.1752C192.271 64.6418 192.121 64.9668 191.871 65.1502C191.637 65.3502 191.512 65.4668 191.496 65.5002C191.429 65.5168 191.329 65.5835 191.196 65.7002C191.079 65.8168 191.021 66.0668 191.021 66.4502C191.021 66.7502 191.062 66.9585 191.146 67.0752Z" fill="#242424"></path><path fill-rule="evenodd" clip-rule="evenodd" d="M198.711 64.2502C198.411 64.2502 198.128 64.2085 197.861 64.1252C197.595 64.0585 197.378 63.9002 197.211 63.6502C197.045 63.3835 196.961 62.9418 196.961 62.3252C196.961 61.7085 197.045 61.2752 197.211 61.0252C197.395 60.7585 197.636 60.6002 197.936 60.5502C198.236 60.4835 198.553 60.4502 198.886 60.4502C199.67 60.4502 200.353 60.3502 200.936 60.1502C201.536 59.9335 202.045 59.6585 202.461 59.3252C202.878 58.9918 203.22 58.6335 203.486 58.2502C203.753 57.8502 203.945 57.4752 204.061 57.1252C204.11 56.9707 204.149 56.8251 204.178 56.6884L204.161 56.7002C203.928 56.8502 203.62 56.9835 203.236 57.1002C202.87 57.2168 202.478 57.2752 202.061 57.2752C201.028 57.2752 200.086 57.0418 199.236 56.5752C198.386 56.1085 197.711 55.4918 197.211 54.7252C196.711 53.9418 196.461 53.0835 196.461 52.1502C196.461 51.0668 196.711 50.1002 197.211 49.2502C197.728 48.4002 198.42 47.7335 199.286 47.2502C200.153 46.7502 201.145 46.5002 202.261 46.5002C203.528 46.5002 204.62 46.7835 205.536 47.3502C206.47 47.9002 207.178 48.7002 207.661 49.7502C208.161 50.8002 208.411 52.0752 208.411 53.5752C208.411 54.8585 208.261 56.0502 207.961 57.1502C207.661 58.2335 207.228 59.2168 206.661 60.1002C206.111 60.9668 205.436 61.7168 204.636 62.3502C203.853 62.9668 202.961 63.4418 201.961 63.7752C200.961 64.0918 199.878 64.2502 198.711 64.2502ZM202.211 53.8502C202.695 53.8502 203.103 53.7835 203.436 53.6502C203.77 53.5002 204.028 53.2835 204.211 53.0002C204.395 52.7168 204.486 52.4002 204.486 52.0502C204.486 51.6002 204.403 51.2335 204.236 50.9502C204.086 50.6502 203.853 50.4252 203.536 50.2752C203.22 50.1252 202.828 50.0502 202.361 50.0502C201.878 50.0502 201.47 50.1252 201.136 50.2752C200.82 50.4252 200.578 50.6418 200.411 50.9252C200.261 51.2085 200.186 51.5668 200.186 52.0002C200.186 52.3502 200.27 52.6752 200.436 52.9752C200.603 53.2585 200.836 53.4752 201.136 53.6252C201.453 53.7752 201.811 53.8502 202.211 53.8502Z" fill="#3452EF"></path><path fill-rule="evenodd" clip-rule="evenodd" d="M198.711 64.2502C198.411 64.2502 198.128 64.2085 197.861 64.1252C197.595 64.0585 197.378 63.9002 197.211 63.6502C197.045 63.3835 196.961 62.9418 196.961 62.3252C196.961 61.7085 197.045 61.2752 197.211 61.0252C197.395 60.7585 197.636 60.6002 197.936 60.5502C198.236 60.4835 198.553 60.4502 198.886 60.4502C199.67 60.4502 200.353 60.3502 200.936 60.1502C201.536 59.9335 202.045 59.6585 202.461 59.3252C202.878 58.9918 203.22 58.6335 203.486 58.2502C203.753 57.8502 203.945 57.4752 204.061 57.1252C204.11 56.9707 204.149 56.8251 204.178 56.6884L204.161 56.7002C203.928 56.8502 203.62 56.9835 203.236 57.1002C202.87 57.2168 202.478 57.2752 202.061 57.2752C201.028 57.2752 200.086 57.0418 199.236 56.5752C198.386 56.1085 197.711 55.4918 197.211 54.7252C196.711 53.9418 196.461 53.0835 196.461 52.1502C196.461 51.0668 196.711 50.1002 197.211 49.2502C197.728 48.4002 198.42 47.7335 199.286 47.2502C200.153 46.7502 201.145 46.5002 202.261 46.5002C203.528 46.5002 204.62 46.7835 205.536 47.3502C206.47 47.9002 207.178 48.7002 207.661 49.7502C208.161 50.8002 208.411 52.0752 208.411 53.5752C208.411 54.8585 208.261 56.0502 207.961 57.1502C207.661 58.2335 207.228 59.2168 206.661 60.1002C206.111 60.9668 205.436 61.7168 204.636 62.3502C203.853 62.9668 202.961 63.4418 201.961 63.7752C200.961 64.0918 199.878 64.2502 198.711 64.2502ZM202.211 53.8502C202.695 53.8502 203.103 53.7835 203.436 53.6502C203.77 53.5002 204.028 53.2835 204.211 53.0002C204.395 52.7168 204.486 52.4002 204.486 52.0502C204.486 51.6002 204.403 51.2335 204.236 50.9502C204.086 50.6502 203.853 50.4252 203.536 50.2752C203.22 50.1252 202.828 50.0502 202.361 50.0502C201.878 50.0502 201.47 50.1252 201.136 50.2752C200.82 50.4252 200.578 50.6418 200.411 50.9252C200.261 51.2085 200.186 51.5668 200.186 52.0002C200.186 52.3502 200.27 52.6752 200.436 52.9752C200.603 53.2585 200.836 53.4752 201.136 53.6252C201.453 53.7752 201.811 53.8502 202.211 53.8502Z" fill="#242424"></path><path fill-rule="evenodd" clip-rule="evenodd" d="M211.021 64.1252C211.287 64.2085 211.571 64.2502 211.871 64.2502C213.037 64.2502 214.121 64.0918 215.121 63.7752C216.121 63.4418 217.012 62.9668 217.796 62.3502C218.596 61.7168 219.271 60.9668 219.821 60.1002C220.387 59.2168 220.821 58.2335 221.121 57.1502C221.421 56.0502 221.571 54.8585 221.571 53.5752C221.571 52.0752 221.321 50.8002 220.821 49.7502C220.337 48.7002 219.629 47.9002 218.696 47.3502C217.779 46.7835 216.687 46.5002 215.421 46.5002C214.304 46.5002 213.312 46.7502 212.446 47.2502C211.579 47.7335 210.887 48.4002 210.371 49.2502C209.871 50.1002 209.621 51.0668 209.621 52.1502C209.621 53.0835 209.871 53.9418 210.371 54.7252C210.871 55.4918 211.546 56.1085 212.396 56.5752C213.246 57.0418 214.187 57.2752 215.221 57.2752C215.637 57.2752 216.029 57.2168 216.396 57.1002C216.779 56.9835 217.087 56.8502 217.321 56.7002L217.337 56.6884C217.308 56.8251 217.27 56.9707 217.221 57.1252C217.104 57.4752 216.912 57.8502 216.646 58.2502C216.379 58.6335 216.037 58.9918 215.621 59.3252C215.204 59.6585 214.696 59.9335 214.096 60.1502C213.512 60.3502 212.829 60.4502 212.046 60.4502C211.712 60.4502 211.396 60.4835 211.096 60.5502C210.796 60.6002 210.554 60.7585 210.371 61.0252C210.204 61.2752 210.121 61.7085 210.121 62.3252C210.121 62.9418 210.204 63.3835 210.371 63.6502C210.537 63.9002 210.754 64.0585 211.021 64.1252ZM216.596 53.6502C216.262 53.7835 215.854 53.8502 215.371 53.8502C214.971 53.8502 214.612 53.7752 214.296 53.6252C213.996 53.4752 213.762 53.2585 213.596 52.9752C213.429 52.6752 213.346 52.3502 213.346 52.0002C213.346 51.5668 213.421 51.2085 213.571 50.9252C213.737 50.6418 213.979 50.4252 214.296 50.2752C214.629 50.1252 215.037 50.0502 215.521 50.0502C215.987 50.0502 216.379 50.1252 216.696 50.2752C217.012 50.4252 217.246 50.6502 217.396 50.9502C217.562 51.2335 217.646 51.6002 217.646 52.0502C217.646 52.4002 217.554 52.7168 217.371 53.0002C217.187 53.2835 216.929 53.5002 216.596 53.6502Z" fill="#3452EF"></path><path fill-rule="evenodd" clip-rule="evenodd" d="M211.021 64.1252C211.287 64.2085 211.571 64.2502 211.871 64.2502C213.037 64.2502 214.121 64.0918 215.121 63.7752C216.121 63.4418 217.012 62.9668 217.796 62.3502C218.596 61.7168 219.271 60.9668 219.821 60.1002C220.387 59.2168 220.821 58.2335 221.121 57.1502C221.421 56.0502 221.571 54.8585 221.571 53.5752C221.571 52.0752 221.321 50.8002 220.821 49.7502C220.337 48.7002 219.629 47.9002 218.696 47.3502C217.779 46.7835 216.687 46.5002 215.421 46.5002C214.304 46.5002 213.312 46.7502 212.446 47.2502C211.579 47.7335 210.887 48.4002 210.371 49.2502C209.871 50.1002 209.621 51.0668 209.621 52.1502C209.621 53.0835 209.871 53.9418 210.371 54.7252C210.871 55.4918 211.546 56.1085 212.396 56.5752C213.246 57.0418 214.187 57.2752 215.221 57.2752C215.637 57.2752 216.029 57.2168 216.396 57.1002C216.779 56.9835 217.087 56.8502 217.321 56.7002L217.337 56.6884C217.308 56.8251 217.27 56.9707 217.221 57.1252C217.104 57.4752 216.912 57.8502 216.646 58.2502C216.379 58.6335 216.037 58.9918 215.621 59.3252C215.204 59.6585 214.696 59.9335 214.096 60.1502C213.512 60.3502 212.829 60.4502 212.046 60.4502C211.712 60.4502 211.396 60.4835 211.096 60.5502C210.796 60.6002 210.554 60.7585 210.371 61.0252C210.204 61.2752 210.121 61.7085 210.121 62.3252C210.121 62.9418 210.204 63.3835 210.371 63.6502C210.537 63.9002 210.754 64.0585 211.021 64.1252ZM216.596 53.6502C216.262 53.7835 215.854 53.8502 215.371 53.8502C214.971 53.8502 214.612 53.7752 214.296 53.6252C213.996 53.4752 213.762 53.2585 213.596 52.9752C213.429 52.6752 213.346 52.3502 213.346 52.0002C213.346 51.5668 213.421 51.2085 213.571 50.9252C213.737 50.6418 213.979 50.4252 214.296 50.2752C214.629 50.1252 215.037 50.0502 215.521 50.0502C215.987 50.0502 216.379 50.1252 216.696 50.2752C217.012 50.4252 217.246 50.6502 217.396 50.9502C217.562 51.2335 217.646 51.6002 217.646 52.0502C217.646 52.4002 217.554 52.7168 217.371 53.0002C217.187 53.2835 216.929 53.5002 216.596 53.6502Z" fill="#242424"></path><g clip-path="url(#clip0_23153_68340)"><path d="M51.096 11.2067L22.4374 25.042C22.2613 25.127 22.1127 25.2599 22.0088 25.4255C21.9049 25.5911 21.8497 25.7827 21.8497 25.9782V60.0217C21.8498 60.2172 21.9049 60.4088 22.0088 60.5744C22.1128 60.74 22.2613 60.8729 22.4374 60.958L51.096 74.7932C51.3779 74.9293 51.6869 75 52 75C52.3131 75 52.6221 74.9293 52.904 74.7932L81.5626 60.958C81.7387 60.873 81.8872 60.74 81.9912 60.5744C82.0951 60.4088 82.1503 60.2172 82.1502 60.0217V25.9782C82.1502 25.7827 82.0951 25.5911 81.9912 25.4255C81.8872 25.2599 81.7387 25.127 81.5626 25.042L52.904 11.2067C52.6221 11.0707 52.313 11 52 11C51.6869 11 51.3779 11.0707 51.096 11.2067Z" fill="#FABA5B"></path><path d="M51.096 11.2067L22.4374 25.042C22.2613 25.127 22.1127 25.2599 22.0088 25.4255C21.9049 25.5911 21.8497 25.7827 21.8497 25.9782V60.0217C21.8498 60.2172 21.9049 60.4088 22.0088 60.5744C22.1128 60.74 22.2613 60.8729 22.4374 60.958L51.096 74.7932C51.3779 74.9293 51.6869 75 52 75C52.3131 75 52.6221 74.9293 52.904 74.7932L81.5626 60.958C81.7387 60.873 81.8872 60.74 81.9912 60.5744C82.0951 60.4088 82.1503 60.2172 82.1502 60.0217V25.9782C82.1502 25.7827 82.0951 25.5911 81.9912 25.4255C81.8872 25.2599 81.7387 25.127 81.5626 25.042L52.904 11.2067C52.6221 11.0707 52.313 11 52 11C51.6869 11 51.3779 11.0707 51.096 11.2067Z" fill="white" fill-opacity="0.3"></path><path d="M22.0226 25.4092C21.9106 25.5779 21.8505 25.7758 21.8497 25.9783V60.0218C21.8498 60.2173 21.9049 60.4089 22.0088 60.5745C22.1128 60.7401 22.2613 60.873 22.4374 60.9581L51.096 74.7932C51.3779 74.9293 51.6869 75 52 74.9999C52.3131 74.9999 52.6221 74.9293 52.904 74.7932L81.5626 60.958C81.7387 60.873 81.8872 60.7401 81.9912 60.5745C82.0951 60.4089 82.1502 60.2173 82.1502 60.0218V25.9783C82.1495 25.7758 82.0894 25.5779 81.9774 25.4092L52 39.8811L22.0226 25.4092Z" fill="#FABA5B"></path><path d="M34.0475 55.4529C34.188 55.5208 34.3421 55.5562 34.4982 55.5564C34.8851 55.5564 35.2567 55.34 35.4352 54.9686C35.685 54.4519 35.4677 53.8305 34.951 53.5807L26.4601 49.482C25.9454 49.2342 25.321 49.4505 25.0722 49.9662C24.8225 50.483 25.0397 51.1044 25.5565 51.3541L34.0475 55.4529Z" fill="#242424"></path><path d="M29.9751 58.1037C30.1157 58.1717 30.2697 58.2071 30.4259 58.2072C30.8127 58.2072 31.1844 57.9909 31.363 57.6196C31.4224 57.4967 31.457 57.3632 31.4648 57.2269C31.4727 57.0906 31.4535 56.9541 31.4086 56.8252C31.3636 56.6963 31.2936 56.5776 31.2027 56.4757C31.1118 56.3739 31.0017 56.291 30.8787 56.2317L26.4541 54.0954C25.9384 53.8477 25.315 54.0629 25.0662 54.5797C25.0068 54.7026 24.9722 54.836 24.9644 54.9723C24.9566 55.1086 24.9757 55.2451 25.0207 55.374C25.0657 55.5029 25.1356 55.6217 25.2265 55.7235C25.3174 55.8254 25.4275 55.9083 25.5505 55.9676L29.9751 58.1037Z" fill="#242424"></path><path d="M41.7359 15.7637L71.8186 30.2965L71.8186 41.8189C71.8186 42.0144 71.7635 42.206 71.6596 42.3716C71.5556 42.5372 71.4071 42.6701 71.231 42.7551L64.702 45.907C64.3567 46.0736 63.9561 45.8221 63.9561 45.4389L63.9561 34.1628L33.8059 19.6074L41.7359 15.7637Z" fill="#242424"></path></g><defs><clipPath id="clip0_23153_68340"><rect width="64" height="64" fill="white" transform="translate(20 11)"></rect></clipPath></defs></svg> 