<?xml version="1.0" encoding="UTF-8"?> <svg xmlns="http://www.w3.org/2000/svg" width="261" height="86" viewBox="0 0 261 86" fill="none"><path d="M2.96152 22.9817C3.8487 12.5912 12.3527 5.00057 22.7287 3.95775C39.9567 2.22628 66.8928 -0.0641475 88.2992 0.00137463C124.416 0.111922 144.556 1.06721 180.672 1.17704C200.625 1.23772 225.684 3.13691 241.105 4.49276C249.948 5.27026 257.852 10.8198 259.368 19.5669C259.961 22.9888 260.313 26.7954 260.103 30.6759C259.409 43.5037 258.863 43.685 259.849 56.5107C260.013 58.6453 259.733 61.5054 259.244 64.5169C257.605 74.6137 248.671 81.5641 238.464 82.2214C217.789 83.5526 179.756 85.4894 133.471 85.4894C85.116 85.4894 42.906 83.3756 21.1469 82.0468C11.5684 81.4618 2.87776 75.3428 1.47017 65.8503C1.16512 63.7931 0.980555 61.7079 1.00163 59.724C1.10581 49.9184 2.19831 40.1033 2.50918 30.6151C2.5975 27.9193 2.75844 25.3601 2.96152 22.9817Z" fill="#FABA5B"></path><path d="M2.96152 22.9817C3.8487 12.5912 12.3527 5.00057 22.7287 3.95775C39.9567 2.22628 66.8928 -0.0641475 88.2992 0.00137463C124.416 0.111922 144.556 1.06721 180.672 1.17704C200.625 1.23772 225.684 3.13691 241.105 4.49276C249.948 5.27026 257.852 10.8198 259.368 19.5669C259.961 22.9888 260.313 26.7954 260.103 30.6759C259.409 43.5037 258.863 43.685 259.849 56.5107C260.013 58.6453 259.733 61.5054 259.244 64.5169C257.605 74.6137 248.671 81.5641 238.464 82.2214C217.789 83.5526 179.756 85.4894 133.471 85.4894C85.116 85.4894 42.906 83.3756 21.1469 82.0468C11.5684 81.4618 2.87776 75.3428 1.47017 65.8503C1.16512 63.7931 0.980555 61.7079 1.00163 59.724C1.10581 49.9184 2.19831 40.1033 2.50918 30.6151C2.5975 27.9193 2.75844 25.3601 2.96152 22.9817Z" fill="#F9F9F9" fill-opacity="0.83"></path><path d="M98.738 38.9781C98.9727 39.1248 99.354 39.1981 99.882 39.1981H107.582C107.831 39.1981 108.059 39.1761 108.264 39.1321C108.484 39.0881 108.667 38.9634 108.814 38.7581C108.961 38.5381 109.034 38.2008 109.034 37.7461C109.034 37.2768 108.961 36.9394 108.814 36.7341C108.682 36.5288 108.506 36.4041 108.286 36.3601C108.066 36.3161 107.831 36.2941 107.582 36.2941H101.554V25.4921C101.554 25.1988 101.525 24.9274 101.466 24.6781C101.422 24.4288 101.283 24.2234 101.048 24.0621C100.828 23.9008 100.439 23.8201 99.882 23.8201C99.3393 23.8201 98.9507 23.9008 98.716 24.0621C98.4813 24.2234 98.3347 24.4288 98.276 24.6781C98.232 24.9274 98.21 25.1988 98.21 25.4921V37.5261C98.21 37.8048 98.2393 38.0761 98.298 38.3401C98.3567 38.6041 98.5033 38.8168 98.738 38.9781Z" fill="#3452EF"></path><path d="M98.738 38.9781C98.9727 39.1248 99.354 39.1981 99.882 39.1981H107.582C107.831 39.1981 108.059 39.1761 108.264 39.1321C108.484 39.0881 108.667 38.9634 108.814 38.7581C108.961 38.5381 109.034 38.2008 109.034 37.7461C109.034 37.2768 108.961 36.9394 108.814 36.7341C108.682 36.5288 108.506 36.4041 108.286 36.3601C108.066 36.3161 107.831 36.2941 107.582 36.2941H101.554V25.4921C101.554 25.1988 101.525 24.9274 101.466 24.6781C101.422 24.4288 101.283 24.2234 101.048 24.0621C100.828 23.9008 100.439 23.8201 99.882 23.8201C99.3393 23.8201 98.9507 23.9008 98.716 24.0621C98.4813 24.2234 98.3347 24.4288 98.276 24.6781C98.232 24.9274 98.21 25.1988 98.21 25.4921V37.5261C98.21 37.8048 98.2393 38.0761 98.298 38.3401C98.3567 38.6041 98.5033 38.8168 98.738 38.9781Z" fill="#242424"></path><path fill-rule="evenodd" clip-rule="evenodd" d="M113.553 38.9781C114.243 39.2421 114.932 39.3741 115.621 39.3741C116.296 39.3741 116.963 39.2494 117.623 39.0001C118.298 38.7361 118.907 38.3548 119.449 37.8561C120.007 37.3574 120.447 36.7634 120.769 36.0741C121.107 35.3701 121.275 34.5708 121.275 33.6761C121.275 32.6201 121.019 31.6594 120.505 30.7941C119.992 29.9288 119.303 29.2468 118.437 28.7481C117.587 28.2348 116.633 27.9781 115.577 27.9781C114.8 27.9781 114.067 28.1321 113.377 28.4401C112.703 28.7334 112.101 29.1441 111.573 29.6721C111.045 30.2001 110.635 30.8088 110.341 31.4981C110.048 32.1728 109.901 32.9061 109.901 33.6981C109.901 34.5488 110.063 35.3261 110.385 36.0301C110.708 36.7194 111.148 37.3134 111.705 37.8121C112.263 38.3108 112.879 38.6994 113.553 38.9781ZM116.655 35.7881C116.289 35.9641 115.929 36.0521 115.577 36.0521C115.225 36.0521 114.866 35.9714 114.499 35.8101C114.133 35.6341 113.825 35.3701 113.575 35.0181C113.341 34.6514 113.223 34.2041 113.223 33.6761C113.223 33.2214 113.326 32.8181 113.531 32.4661C113.751 32.0994 114.03 31.8134 114.367 31.6081C114.719 31.4028 115.115 31.3001 115.555 31.3001C116.025 31.3001 116.435 31.4028 116.787 31.6081C117.154 31.7988 117.44 32.0701 117.645 32.4221C117.851 32.7741 117.953 33.1848 117.953 33.6541C117.953 34.1968 117.829 34.6441 117.579 34.9961C117.33 35.3481 117.022 35.6121 116.655 35.7881Z" fill="#3452EF"></path><path fill-rule="evenodd" clip-rule="evenodd" d="M113.553 38.9781C114.243 39.2421 114.932 39.3741 115.621 39.3741C116.296 39.3741 116.963 39.2494 117.623 39.0001C118.298 38.7361 118.907 38.3548 119.449 37.8561C120.007 37.3574 120.447 36.7634 120.769 36.0741C121.107 35.3701 121.275 34.5708 121.275 33.6761C121.275 32.6201 121.019 31.6594 120.505 30.7941C119.992 29.9288 119.303 29.2468 118.437 28.7481C117.587 28.2348 116.633 27.9781 115.577 27.9781C114.8 27.9781 114.067 28.1321 113.377 28.4401C112.703 28.7334 112.101 29.1441 111.573 29.6721C111.045 30.2001 110.635 30.8088 110.341 31.4981C110.048 32.1728 109.901 32.9061 109.901 33.6981C109.901 34.5488 110.063 35.3261 110.385 36.0301C110.708 36.7194 111.148 37.3134 111.705 37.8121C112.263 38.3108 112.879 38.6994 113.553 38.9781ZM116.655 35.7881C116.289 35.9641 115.929 36.0521 115.577 36.0521C115.225 36.0521 114.866 35.9714 114.499 35.8101C114.133 35.6341 113.825 35.3701 113.575 35.0181C113.341 34.6514 113.223 34.2041 113.223 33.6761C113.223 33.2214 113.326 32.8181 113.531 32.4661C113.751 32.0994 114.03 31.8134 114.367 31.6081C114.719 31.4028 115.115 31.3001 115.555 31.3001C116.025 31.3001 116.435 31.4028 116.787 31.6081C117.154 31.7988 117.44 32.0701 117.645 32.4221C117.851 32.7741 117.953 33.1848 117.953 33.6541C117.953 34.1968 117.829 34.6441 117.579 34.9961C117.33 35.3481 117.022 35.6121 116.655 35.7881Z" fill="#242424"></path><path d="M125.523 39.0001C125.743 39.1468 126.051 39.2201 126.447 39.2201C126.843 39.2201 127.136 39.1688 127.327 39.0661C127.532 38.9634 127.679 38.8168 127.767 38.6261C127.855 38.4208 127.95 38.1861 128.053 37.9221L129.505 33.8741L130.979 37.9221C131.052 38.1274 131.14 38.3328 131.243 38.5381C131.36 38.7434 131.521 38.9048 131.727 39.0221C131.932 39.1541 132.225 39.2201 132.607 39.2201C132.973 39.2201 133.259 39.1468 133.465 39.0001C133.67 38.8681 133.824 38.6994 133.927 38.4941C134.029 38.2888 134.11 38.1054 134.169 37.9441L137.271 30.2881C137.505 29.7894 137.527 29.3788 137.337 29.0561C137.146 28.7334 136.794 28.4621 136.281 28.2421C135.723 28.0074 135.276 27.9854 134.939 28.1761C134.601 28.3668 134.33 28.7334 134.125 29.2761L132.585 33.4341L131.133 29.3641C131.089 29.2321 131.008 29.0708 130.891 28.8801C130.788 28.6894 130.627 28.5208 130.407 28.3741C130.187 28.2274 129.879 28.1541 129.483 28.1541C129.116 28.1541 128.823 28.2274 128.603 28.3741C128.397 28.5208 128.243 28.6894 128.141 28.8801C128.038 29.0561 127.957 29.2174 127.899 29.3641L126.447 33.4341L124.819 29.0121C124.643 28.5134 124.379 28.2128 124.027 28.1101C123.675 28.0074 123.22 28.0734 122.663 28.3081C122.296 28.4401 122.025 28.5941 121.849 28.7701C121.687 28.9314 121.599 29.1368 121.585 29.3861C121.585 29.6208 121.636 29.9141 121.739 30.2661L124.841 37.9441C124.899 38.0908 124.973 38.2668 125.061 38.4721C125.163 38.6774 125.317 38.8534 125.523 39.0001Z" fill="#3452EF"></path><path d="M125.523 39.0001C125.743 39.1468 126.051 39.2201 126.447 39.2201C126.843 39.2201 127.136 39.1688 127.327 39.0661C127.532 38.9634 127.679 38.8168 127.767 38.6261C127.855 38.4208 127.95 38.1861 128.053 37.9221L129.505 33.8741L130.979 37.9221C131.052 38.1274 131.14 38.3328 131.243 38.5381C131.36 38.7434 131.521 38.9048 131.727 39.0221C131.932 39.1541 132.225 39.2201 132.607 39.2201C132.973 39.2201 133.259 39.1468 133.465 39.0001C133.67 38.8681 133.824 38.6994 133.927 38.4941C134.029 38.2888 134.11 38.1054 134.169 37.9441L137.271 30.2881C137.505 29.7894 137.527 29.3788 137.337 29.0561C137.146 28.7334 136.794 28.4621 136.281 28.2421C135.723 28.0074 135.276 27.9854 134.939 28.1761C134.601 28.3668 134.33 28.7334 134.125 29.2761L132.585 33.4341L131.133 29.3641C131.089 29.2321 131.008 29.0708 130.891 28.8801C130.788 28.6894 130.627 28.5208 130.407 28.3741C130.187 28.2274 129.879 28.1541 129.483 28.1541C129.116 28.1541 128.823 28.2274 128.603 28.3741C128.397 28.5208 128.243 28.6894 128.141 28.8801C128.038 29.0561 127.957 29.2174 127.899 29.3641L126.447 33.4341L124.819 29.0121C124.643 28.5134 124.379 28.2128 124.027 28.1101C123.675 28.0074 123.22 28.0734 122.663 28.3081C122.296 28.4401 122.025 28.5941 121.849 28.7701C121.687 28.9314 121.599 29.1368 121.585 29.3861C121.585 29.6208 121.636 29.9141 121.739 30.2661L124.841 37.9441C124.899 38.0908 124.973 38.2668 125.061 38.4721C125.163 38.6774 125.317 38.8534 125.523 39.0001Z" fill="#242424"></path><path fill-rule="evenodd" clip-rule="evenodd" d="M144.538 38.9561C144.772 39.1174 145.161 39.1981 145.704 39.1981C146.246 39.1981 146.635 39.1174 146.87 38.9561C147.104 38.7948 147.251 38.5894 147.31 38.3401C147.368 38.0761 147.398 37.8048 147.398 37.5261V34.6441H150.214C150.83 34.6441 151.453 34.5341 152.084 34.3141C152.714 34.0794 153.294 33.7421 153.822 33.3021C154.364 32.8474 154.797 32.2828 155.12 31.6081C155.457 30.9334 155.626 30.1488 155.626 29.2541C155.626 28.3448 155.457 27.5528 155.12 26.8781C154.797 26.2034 154.364 25.6388 153.822 25.1841C153.294 24.7148 152.714 24.3701 152.084 24.1501C151.468 23.9301 150.852 23.8201 150.236 23.8201H145.726C145.183 23.8201 144.794 23.9008 144.56 24.0621C144.325 24.2234 144.178 24.4361 144.12 24.7001C144.061 24.9494 144.032 25.2134 144.032 25.4921V37.5041C144.032 37.7828 144.061 38.0541 144.12 38.3181C144.178 38.5821 144.318 38.7948 144.538 38.9561ZM151.182 31.1021C150.874 31.2341 150.558 31.3001 150.236 31.3001H147.398V27.1641H150.214C150.624 27.1641 150.984 27.2521 151.292 27.4281C151.614 27.6041 151.864 27.8461 152.04 28.1541C152.216 28.4621 152.304 28.8214 152.304 29.2321C152.304 29.7161 152.194 30.1121 151.974 30.4201C151.768 30.7281 151.504 30.9554 151.182 31.1021Z" fill="#3452EF"></path><path fill-rule="evenodd" clip-rule="evenodd" d="M144.538 38.9561C144.772 39.1174 145.161 39.1981 145.704 39.1981C146.246 39.1981 146.635 39.1174 146.87 38.9561C147.104 38.7948 147.251 38.5894 147.31 38.3401C147.368 38.0761 147.398 37.8048 147.398 37.5261V34.6441H150.214C150.83 34.6441 151.453 34.5341 152.084 34.3141C152.714 34.0794 153.294 33.7421 153.822 33.3021C154.364 32.8474 154.797 32.2828 155.12 31.6081C155.457 30.9334 155.626 30.1488 155.626 29.2541C155.626 28.3448 155.457 27.5528 155.12 26.8781C154.797 26.2034 154.364 25.6388 153.822 25.1841C153.294 24.7148 152.714 24.3701 152.084 24.1501C151.468 23.9301 150.852 23.8201 150.236 23.8201H145.726C145.183 23.8201 144.794 23.9008 144.56 24.0621C144.325 24.2234 144.178 24.4361 144.12 24.7001C144.061 24.9494 144.032 25.2134 144.032 25.4921V37.5041C144.032 37.7828 144.061 38.0541 144.12 38.3181C144.178 38.5821 144.318 38.7948 144.538 38.9561ZM151.182 31.1021C150.874 31.2341 150.558 31.3001 150.236 31.3001H147.398V27.1641H150.214C150.624 27.1641 150.984 27.2521 151.292 27.4281C151.614 27.6041 151.864 27.8461 152.04 28.1541C152.216 28.4621 152.304 28.8214 152.304 29.2321C152.304 29.7161 152.194 30.1121 151.974 30.4201C151.768 30.7281 151.504 30.9554 151.182 31.1021Z" fill="#242424"></path><path d="M157.532 38.9781C157.767 39.1248 158.156 39.1981 158.698 39.1981C159.241 39.1981 159.63 39.1248 159.864 38.9781C160.099 38.8314 160.238 38.6334 160.282 38.3841C160.341 38.1201 160.37 37.8488 160.37 37.5701V32.7301C160.37 32.5101 160.414 32.3121 160.502 32.1361C160.605 31.9454 160.737 31.7914 160.898 31.6741C161.074 31.5421 161.258 31.4468 161.448 31.3881C161.654 31.3294 161.866 31.3001 162.086 31.3001C162.321 31.3001 162.482 31.3221 162.57 31.3661C162.658 31.3954 162.732 31.4321 162.79 31.4761C162.864 31.5201 162.952 31.5641 163.054 31.6081C163.157 31.6521 163.333 31.6741 163.582 31.6741C164.008 31.6741 164.36 31.4688 164.638 31.0581C164.917 30.6328 165.056 30.1194 165.056 29.5181C165.056 29.2834 164.998 29.0854 164.88 28.9241C164.778 28.7628 164.638 28.6308 164.462 28.5281C164.286 28.4108 164.088 28.3228 163.868 28.2641C163.663 28.1908 163.458 28.1468 163.252 28.1321C163.062 28.1028 162.886 28.0881 162.724 28.0881C162.314 28.0881 161.947 28.1468 161.624 28.2641C161.316 28.3814 161.052 28.5281 160.832 28.7041C160.625 28.8559 160.457 29.0077 160.328 29.1595C160.314 29.0797 160.291 28.9939 160.26 28.9021C160.202 28.7114 160.055 28.5501 159.82 28.4181C159.6 28.2714 159.234 28.1981 158.72 28.1981C158.178 28.1981 157.789 28.2788 157.554 28.4401C157.334 28.5868 157.195 28.7848 157.136 29.0341C157.078 29.2834 157.048 29.5548 157.048 29.8481V37.5261C157.048 37.8048 157.07 38.0761 157.114 38.3401C157.173 38.6041 157.312 38.8168 157.532 38.9781Z" fill="#3452EF"></path><path d="M157.532 38.9781C157.767 39.1248 158.156 39.1981 158.698 39.1981C159.241 39.1981 159.63 39.1248 159.864 38.9781C160.099 38.8314 160.238 38.6334 160.282 38.3841C160.341 38.1201 160.37 37.8488 160.37 37.5701V32.7301C160.37 32.5101 160.414 32.3121 160.502 32.1361C160.605 31.9454 160.737 31.7914 160.898 31.6741C161.074 31.5421 161.258 31.4468 161.448 31.3881C161.654 31.3294 161.866 31.3001 162.086 31.3001C162.321 31.3001 162.482 31.3221 162.57 31.3661C162.658 31.3954 162.732 31.4321 162.79 31.4761C162.864 31.5201 162.952 31.5641 163.054 31.6081C163.157 31.6521 163.333 31.6741 163.582 31.6741C164.008 31.6741 164.36 31.4688 164.638 31.0581C164.917 30.6328 165.056 30.1194 165.056 29.5181C165.056 29.2834 164.998 29.0854 164.88 28.9241C164.778 28.7628 164.638 28.6308 164.462 28.5281C164.286 28.4108 164.088 28.3228 163.868 28.2641C163.663 28.1908 163.458 28.1468 163.252 28.1321C163.062 28.1028 162.886 28.0881 162.724 28.0881C162.314 28.0881 161.947 28.1468 161.624 28.2641C161.316 28.3814 161.052 28.5281 160.832 28.7041C160.625 28.8559 160.457 29.0077 160.328 29.1595C160.314 29.0797 160.291 28.9939 160.26 28.9021C160.202 28.7114 160.055 28.5501 159.82 28.4181C159.6 28.2714 159.234 28.1981 158.72 28.1981C158.178 28.1981 157.789 28.2788 157.554 28.4401C157.334 28.5868 157.195 28.7848 157.136 29.0341C157.078 29.2834 157.048 29.5548 157.048 29.8481V37.5261C157.048 37.8048 157.07 38.0761 157.114 38.3401C157.173 38.6041 157.312 38.8168 157.532 38.9781Z" fill="#242424"></path><path d="M166.945 38.9781C167.18 39.1248 167.569 39.1981 168.111 39.1981C168.654 39.1981 169.035 39.1248 169.255 38.9781C169.49 38.8314 169.629 38.6334 169.673 38.3841C169.732 38.1201 169.761 37.8488 169.761 37.5701V29.9141C169.761 29.6061 169.732 29.3274 169.673 29.0781C169.629 28.8288 169.49 28.6234 169.255 28.4621C169.035 28.3008 168.661 28.2201 168.133 28.2201C167.591 28.2201 167.202 28.3008 166.967 28.4621C166.733 28.6088 166.586 28.8068 166.527 29.0561C166.483 29.3054 166.461 29.5768 166.461 29.8701V37.5481C166.461 37.8268 166.483 38.0981 166.527 38.3621C166.586 38.6114 166.725 38.8168 166.945 38.9781Z" fill="#3452EF"></path><path d="M166.945 38.9781C167.18 39.1248 167.569 39.1981 168.111 39.1981C168.654 39.1981 169.035 39.1248 169.255 38.9781C169.49 38.8314 169.629 38.6334 169.673 38.3841C169.732 38.1201 169.761 37.8488 169.761 37.5701V29.9141C169.761 29.6061 169.732 29.3274 169.673 29.0781C169.629 28.8288 169.49 28.6234 169.255 28.4621C169.035 28.3008 168.661 28.2201 168.133 28.2201C167.591 28.2201 167.202 28.3008 166.967 28.4621C166.733 28.6088 166.586 28.8068 166.527 29.0561C166.483 29.3054 166.461 29.5768 166.461 29.8701V37.5481C166.461 37.8268 166.483 38.0981 166.527 38.3621C166.586 38.6114 166.725 38.8168 166.945 38.9781Z" fill="#242424"></path><path d="M166.923 26.3721C167.158 26.5334 167.554 26.6141 168.111 26.6141C168.669 26.6141 169.065 26.5408 169.299 26.3941C169.534 26.2328 169.673 26.0201 169.717 25.7561C169.776 25.4921 169.805 25.2134 169.805 24.9201C169.805 24.6268 169.776 24.3481 169.717 24.0841C169.673 23.8201 169.534 23.6074 169.299 23.4461C169.065 23.2848 168.676 23.2041 168.133 23.2041C167.576 23.2041 167.18 23.2848 166.945 23.4461C166.711 23.5928 166.564 23.7981 166.505 24.0621C166.447 24.3114 166.417 24.5901 166.417 24.8981C166.417 25.1914 166.439 25.4701 166.483 25.7341C166.542 25.9981 166.689 26.2108 166.923 26.3721Z" fill="#3452EF"></path><path d="M166.923 26.3721C167.158 26.5334 167.554 26.6141 168.111 26.6141C168.669 26.6141 169.065 26.5408 169.299 26.3941C169.534 26.2328 169.673 26.0201 169.717 25.7561C169.776 25.4921 169.805 25.2134 169.805 24.9201C169.805 24.6268 169.776 24.3481 169.717 24.0841C169.673 23.8201 169.534 23.6074 169.299 23.4461C169.065 23.2848 168.676 23.2041 168.133 23.2041C167.576 23.2041 167.18 23.2848 166.945 23.4461C166.711 23.5928 166.564 23.7981 166.505 24.0621C166.447 24.3114 166.417 24.5901 166.417 24.8981C166.417 25.1914 166.439 25.4701 166.483 25.7341C166.542 25.9981 166.689 26.2108 166.923 26.3721Z" fill="#242424"></path><path d="M174.79 38.9341C175.464 39.1688 176.124 39.2861 176.77 39.2861C177.312 39.2861 177.796 39.2201 178.222 39.0881C178.662 38.9561 179.028 38.8094 179.322 38.6481C179.63 38.4868 179.842 38.3548 179.96 38.2521C180.297 38.0321 180.546 37.8048 180.708 37.5701C180.869 37.3354 180.928 37.0861 180.884 36.8221C180.854 36.5581 180.722 36.2721 180.488 35.9641C180.224 35.6268 179.982 35.3848 179.762 35.2381C179.542 35.0768 179.329 34.9961 179.124 34.9961C178.948 34.9961 178.779 35.0474 178.618 35.1501C178.456 35.2381 178.288 35.3408 178.112 35.4581C178.038 35.5021 177.936 35.5681 177.804 35.6561C177.672 35.7294 177.51 35.7954 177.32 35.8541C177.144 35.9128 176.931 35.9421 176.682 35.9421C176.271 35.9421 175.897 35.8468 175.56 35.6561C175.237 35.4508 174.973 35.1794 174.768 34.8421C174.577 34.5048 174.482 34.1234 174.482 33.6981C174.482 33.2581 174.577 32.8694 174.768 32.5321C174.973 32.1948 175.244 31.9308 175.582 31.7401C175.919 31.5494 176.3 31.4541 176.726 31.4541C176.975 31.4541 177.195 31.4908 177.386 31.5641C177.576 31.6374 177.752 31.7328 177.914 31.8501L178.442 32.1581C178.632 32.2608 178.838 32.3341 179.058 32.3781C179.498 32.4368 179.938 32.1581 180.378 31.5421C180.51 31.3661 180.62 31.1974 180.708 31.0361C180.796 30.8601 180.847 30.6914 180.862 30.5301C180.876 30.2221 180.788 29.9728 180.598 29.7821C180.407 29.5914 180.187 29.4008 179.938 29.2101C179.806 29.0781 179.586 28.9241 179.278 28.7481C178.984 28.5721 178.618 28.4254 178.178 28.3081C177.752 28.1761 177.268 28.1101 176.726 28.1101C176.095 28.1101 175.442 28.2348 174.768 28.4841C174.108 28.7188 173.499 29.0708 172.942 29.5401C172.384 30.0094 171.937 30.5888 171.6 31.2781C171.262 31.9674 171.094 32.7668 171.094 33.6761C171.094 34.5854 171.262 35.3921 171.6 36.0961C171.937 36.7854 172.384 37.3721 172.942 37.8561C173.514 38.3254 174.13 38.6848 174.79 38.9341Z" fill="#3452EF"></path><path d="M174.79 38.9341C175.464 39.1688 176.124 39.2861 176.77 39.2861C177.312 39.2861 177.796 39.2201 178.222 39.0881C178.662 38.9561 179.028 38.8094 179.322 38.6481C179.63 38.4868 179.842 38.3548 179.96 38.2521C180.297 38.0321 180.546 37.8048 180.708 37.5701C180.869 37.3354 180.928 37.0861 180.884 36.8221C180.854 36.5581 180.722 36.2721 180.488 35.9641C180.224 35.6268 179.982 35.3848 179.762 35.2381C179.542 35.0768 179.329 34.9961 179.124 34.9961C178.948 34.9961 178.779 35.0474 178.618 35.1501C178.456 35.2381 178.288 35.3408 178.112 35.4581C178.038 35.5021 177.936 35.5681 177.804 35.6561C177.672 35.7294 177.51 35.7954 177.32 35.8541C177.144 35.9128 176.931 35.9421 176.682 35.9421C176.271 35.9421 175.897 35.8468 175.56 35.6561C175.237 35.4508 174.973 35.1794 174.768 34.8421C174.577 34.5048 174.482 34.1234 174.482 33.6981C174.482 33.2581 174.577 32.8694 174.768 32.5321C174.973 32.1948 175.244 31.9308 175.582 31.7401C175.919 31.5494 176.3 31.4541 176.726 31.4541C176.975 31.4541 177.195 31.4908 177.386 31.5641C177.576 31.6374 177.752 31.7328 177.914 31.8501L178.442 32.1581C178.632 32.2608 178.838 32.3341 179.058 32.3781C179.498 32.4368 179.938 32.1581 180.378 31.5421C180.51 31.3661 180.62 31.1974 180.708 31.0361C180.796 30.8601 180.847 30.6914 180.862 30.5301C180.876 30.2221 180.788 29.9728 180.598 29.7821C180.407 29.5914 180.187 29.4008 179.938 29.2101C179.806 29.0781 179.586 28.9241 179.278 28.7481C178.984 28.5721 178.618 28.4254 178.178 28.3081C177.752 28.1761 177.268 28.1101 176.726 28.1101C176.095 28.1101 175.442 28.2348 174.768 28.4841C174.108 28.7188 173.499 29.0708 172.942 29.5401C172.384 30.0094 171.937 30.5888 171.6 31.2781C171.262 31.9674 171.094 32.7668 171.094 33.6761C171.094 34.5854 171.262 35.3921 171.6 36.0961C171.937 36.7854 172.384 37.3721 172.942 37.8561C173.514 38.3254 174.13 38.6848 174.79 38.9341Z" fill="#242424"></path><path fill-rule="evenodd" clip-rule="evenodd" d="M185.237 38.8901C185.985 39.2274 186.872 39.3961 187.899 39.3961C188.823 39.3961 189.608 39.3154 190.253 39.1541C190.913 38.9928 191.419 38.7728 191.771 38.4941C192.138 38.2154 192.321 37.9001 192.321 37.5481C192.321 37.4014 192.299 37.2548 192.255 37.1081C192.226 36.9614 192.16 36.8074 192.057 36.6461C191.91 36.3674 191.742 36.1621 191.551 36.0301C191.375 35.8834 191.177 35.8174 190.957 35.8321C190.84 35.8468 190.715 35.8761 190.583 35.9201C190.466 35.9641 190.326 36.0228 190.165 36.0961C190.004 36.1548 189.828 36.2208 189.637 36.2941C189.446 36.3528 189.219 36.4041 188.955 36.4481C188.691 36.4774 188.383 36.4921 188.031 36.4921C187.62 36.4921 187.232 36.4188 186.865 36.2721C186.498 36.1254 186.19 35.9201 185.941 35.6561C185.706 35.3921 185.574 35.0694 185.545 34.6881H190.781C191.382 34.6881 191.874 34.4974 192.255 34.1161C192.651 33.7201 192.849 33.1188 192.849 32.3121C192.849 31.8574 192.746 31.3808 192.541 30.8821C192.35 30.3834 192.05 29.9214 191.639 29.4961C191.243 29.0561 190.73 28.7041 190.099 28.4401C189.483 28.1614 188.75 28.0221 187.899 28.0221C186.755 28.0221 185.743 28.2714 184.863 28.7701C183.983 29.2541 183.294 29.9214 182.795 30.7721C182.296 31.6228 182.047 32.5981 182.047 33.6981C182.047 34.3728 182.157 35.0474 182.377 35.7221C182.612 36.3968 182.964 37.0128 183.433 37.5701C183.902 38.1128 184.504 38.5528 185.237 38.8901ZM189.527 32.7741C189.424 32.8474 189.256 32.8841 189.021 32.8841H185.545C185.545 32.5468 185.64 32.2314 185.831 31.9381C186.036 31.6448 186.315 31.4101 186.667 31.2341C187.019 31.0581 187.422 30.9701 187.877 30.9701C188.229 30.9701 188.537 31.0288 188.801 31.1461C189.08 31.2488 189.3 31.4028 189.461 31.6081C189.622 31.7988 189.703 32.0261 189.703 32.2901C189.703 32.5248 189.644 32.6861 189.527 32.7741Z" fill="#3452EF"></path><path fill-rule="evenodd" clip-rule="evenodd" d="M185.237 38.8901C185.985 39.2274 186.872 39.3961 187.899 39.3961C188.823 39.3961 189.608 39.3154 190.253 39.1541C190.913 38.9928 191.419 38.7728 191.771 38.4941C192.138 38.2154 192.321 37.9001 192.321 37.5481C192.321 37.4014 192.299 37.2548 192.255 37.1081C192.226 36.9614 192.16 36.8074 192.057 36.6461C191.91 36.3674 191.742 36.1621 191.551 36.0301C191.375 35.8834 191.177 35.8174 190.957 35.8321C190.84 35.8468 190.715 35.8761 190.583 35.9201C190.466 35.9641 190.326 36.0228 190.165 36.0961C190.004 36.1548 189.828 36.2208 189.637 36.2941C189.446 36.3528 189.219 36.4041 188.955 36.4481C188.691 36.4774 188.383 36.4921 188.031 36.4921C187.62 36.4921 187.232 36.4188 186.865 36.2721C186.498 36.1254 186.19 35.9201 185.941 35.6561C185.706 35.3921 185.574 35.0694 185.545 34.6881H190.781C191.382 34.6881 191.874 34.4974 192.255 34.1161C192.651 33.7201 192.849 33.1188 192.849 32.3121C192.849 31.8574 192.746 31.3808 192.541 30.8821C192.35 30.3834 192.05 29.9214 191.639 29.4961C191.243 29.0561 190.73 28.7041 190.099 28.4401C189.483 28.1614 188.75 28.0221 187.899 28.0221C186.755 28.0221 185.743 28.2714 184.863 28.7701C183.983 29.2541 183.294 29.9214 182.795 30.7721C182.296 31.6228 182.047 32.5981 182.047 33.6981C182.047 34.3728 182.157 35.0474 182.377 35.7221C182.612 36.3968 182.964 37.0128 183.433 37.5701C183.902 38.1128 184.504 38.5528 185.237 38.8901ZM189.527 32.7741C189.424 32.8474 189.256 32.8841 189.021 32.8841H185.545C185.545 32.5468 185.64 32.2314 185.831 31.9381C186.036 31.6448 186.315 31.4101 186.667 31.2341C187.019 31.0581 187.422 30.9701 187.877 30.9701C188.229 30.9701 188.537 31.0288 188.801 31.1461C189.08 31.2488 189.3 31.4028 189.461 31.6081C189.622 31.7988 189.703 32.0261 189.703 32.2901C189.703 32.5248 189.644 32.6861 189.527 32.7741Z" fill="#242424"></path><path d="M196.921 39.2421C197.391 39.3301 197.823 39.3741 198.219 39.3741C199.715 39.3741 200.867 39.0661 201.673 38.4501C202.48 37.8341 202.883 36.9468 202.883 35.7881C202.883 35.1428 202.773 34.6221 202.553 34.2261C202.348 33.8301 202.069 33.5148 201.717 33.2801C201.38 33.0454 200.999 32.8694 200.573 32.7521C200.163 32.6201 199.759 32.5174 199.363 32.4441C199.07 32.3854 198.799 32.3268 198.549 32.2681C198.3 32.2094 198.08 32.1434 197.889 32.0701C197.699 31.9968 197.545 31.9088 197.427 31.8061C197.325 31.6888 197.273 31.5348 197.273 31.3441C197.273 31.1974 197.317 31.0728 197.405 30.9701C197.493 30.8528 197.625 30.7648 197.801 30.7061C197.977 30.6328 198.19 30.5961 198.439 30.5961C198.733 30.5961 199.026 30.6548 199.319 30.7721C199.627 30.8894 199.913 31.0141 200.177 31.1461C200.456 31.2781 200.713 31.3734 200.947 31.4321C201.138 31.4761 201.321 31.4468 201.497 31.3441C201.673 31.2268 201.842 31.0434 202.003 30.7941C202.267 30.4274 202.392 30.0681 202.377 29.7161C202.363 29.3641 202.135 29.0854 201.695 28.8801C201.446 28.7334 201.197 28.6088 200.947 28.5061C200.698 28.4034 200.441 28.3154 200.177 28.2421C199.928 28.1688 199.671 28.1174 199.407 28.0881C199.143 28.0588 198.879 28.0441 198.615 28.0441C197.691 28.0441 196.907 28.1761 196.261 28.4401C195.616 28.6894 195.125 29.0561 194.787 29.5401C194.45 30.0241 194.281 30.6254 194.281 31.3441C194.281 31.8868 194.362 32.3488 194.523 32.7301C194.685 33.0968 194.905 33.4121 195.183 33.6761C195.462 33.9254 195.77 34.1308 196.107 34.2921C196.445 34.4534 196.797 34.5854 197.163 34.6881C197.427 34.7614 197.684 34.8348 197.933 34.9081C198.197 34.9668 198.439 35.0254 198.659 35.0841C198.879 35.1428 199.07 35.2161 199.231 35.3041C199.407 35.3774 199.539 35.4654 199.627 35.5681C199.73 35.6708 199.781 35.8028 199.781 35.9641C199.781 36.1841 199.664 36.3601 199.429 36.4921C199.209 36.6094 198.894 36.6681 198.483 36.6681C198.205 36.6681 197.933 36.6241 197.669 36.5361C197.405 36.4334 197.149 36.3234 196.899 36.2061C196.665 36.0741 196.423 35.9568 196.173 35.8541C195.939 35.7368 195.704 35.6561 195.469 35.6121C195.279 35.5534 195.11 35.5461 194.963 35.5901C194.817 35.6341 194.685 35.7368 194.567 35.8981C194.421 36.1034 194.296 36.3014 194.193 36.4921C194.091 36.6681 194.017 36.8441 193.973 37.0201C193.944 37.1814 193.944 37.3354 193.973 37.4821C194.017 37.7754 194.186 38.0394 194.479 38.2741C194.773 38.4941 195.139 38.6921 195.579 38.8681C196.019 39.0294 196.467 39.1541 196.921 39.2421Z" fill="#3452EF"></path><path d="M196.921 39.2421C197.391 39.3301 197.823 39.3741 198.219 39.3741C199.715 39.3741 200.867 39.0661 201.673 38.4501C202.48 37.8341 202.883 36.9468 202.883 35.7881C202.883 35.1428 202.773 34.6221 202.553 34.2261C202.348 33.8301 202.069 33.5148 201.717 33.2801C201.38 33.0454 200.999 32.8694 200.573 32.7521C200.163 32.6201 199.759 32.5174 199.363 32.4441C199.07 32.3854 198.799 32.3268 198.549 32.2681C198.3 32.2094 198.08 32.1434 197.889 32.0701C197.699 31.9968 197.545 31.9088 197.427 31.8061C197.325 31.6888 197.273 31.5348 197.273 31.3441C197.273 31.1974 197.317 31.0728 197.405 30.9701C197.493 30.8528 197.625 30.7648 197.801 30.7061C197.977 30.6328 198.19 30.5961 198.439 30.5961C198.733 30.5961 199.026 30.6548 199.319 30.7721C199.627 30.8894 199.913 31.0141 200.177 31.1461C200.456 31.2781 200.713 31.3734 200.947 31.4321C201.138 31.4761 201.321 31.4468 201.497 31.3441C201.673 31.2268 201.842 31.0434 202.003 30.7941C202.267 30.4274 202.392 30.0681 202.377 29.7161C202.363 29.3641 202.135 29.0854 201.695 28.8801C201.446 28.7334 201.197 28.6088 200.947 28.5061C200.698 28.4034 200.441 28.3154 200.177 28.2421C199.928 28.1688 199.671 28.1174 199.407 28.0881C199.143 28.0588 198.879 28.0441 198.615 28.0441C197.691 28.0441 196.907 28.1761 196.261 28.4401C195.616 28.6894 195.125 29.0561 194.787 29.5401C194.45 30.0241 194.281 30.6254 194.281 31.3441C194.281 31.8868 194.362 32.3488 194.523 32.7301C194.685 33.0968 194.905 33.4121 195.183 33.6761C195.462 33.9254 195.77 34.1308 196.107 34.2921C196.445 34.4534 196.797 34.5854 197.163 34.6881C197.427 34.7614 197.684 34.8348 197.933 34.9081C198.197 34.9668 198.439 35.0254 198.659 35.0841C198.879 35.1428 199.07 35.2161 199.231 35.3041C199.407 35.3774 199.539 35.4654 199.627 35.5681C199.73 35.6708 199.781 35.8028 199.781 35.9641C199.781 36.1841 199.664 36.3601 199.429 36.4921C199.209 36.6094 198.894 36.6681 198.483 36.6681C198.205 36.6681 197.933 36.6241 197.669 36.5361C197.405 36.4334 197.149 36.3234 196.899 36.2061C196.665 36.0741 196.423 35.9568 196.173 35.8541C195.939 35.7368 195.704 35.6561 195.469 35.6121C195.279 35.5534 195.11 35.5461 194.963 35.5901C194.817 35.6341 194.685 35.7368 194.567 35.8981C194.421 36.1034 194.296 36.3014 194.193 36.4921C194.091 36.6681 194.017 36.8441 193.973 37.0201C193.944 37.1814 193.944 37.3354 193.973 37.4821C194.017 37.7754 194.186 38.0394 194.479 38.2741C194.773 38.4941 195.139 38.6921 195.579 38.8681C196.019 39.0294 196.467 39.1541 196.921 39.2421Z" fill="#242424"></path><path d="M204.204 41.7061C204.292 41.8234 204.372 41.8968 204.446 41.9261L204.578 41.9701C205.091 41.9701 205.568 41.7941 206.008 41.4421C206.448 41.0901 206.814 40.6208 207.108 40.0341C207.401 39.4621 207.577 38.8241 207.636 38.1201C207.665 38.0028 207.68 37.8854 207.68 37.7681V37.4161C207.68 37.1521 207.665 36.8954 207.636 36.6461C207.606 36.3968 207.504 36.1841 207.328 36.0081C207.064 35.7294 206.594 35.5901 205.92 35.5901C205.318 35.5901 204.886 35.6854 204.622 35.8761C204.372 36.0521 204.218 36.2721 204.16 36.5361C204.116 36.8001 204.094 37.0714 204.094 37.3501C204.094 37.5848 204.108 37.8341 204.138 38.0981C204.167 38.3621 204.27 38.5821 204.446 38.7581C204.548 38.8461 204.666 38.9268 204.798 39.0001C204.93 39.0588 205.076 39.1101 205.238 39.1541C205.194 39.5648 205.062 39.8508 204.842 40.0121C204.636 40.1881 204.526 40.2908 204.512 40.3201C204.453 40.3348 204.365 40.3934 204.248 40.4961C204.145 40.5988 204.094 40.8188 204.094 41.1561C204.094 41.4201 204.13 41.6034 204.204 41.7061Z" fill="#3452EF"></path><path d="M204.204 41.7061C204.292 41.8234 204.372 41.8968 204.446 41.9261L204.578 41.9701C205.091 41.9701 205.568 41.7941 206.008 41.4421C206.448 41.0901 206.814 40.6208 207.108 40.0341C207.401 39.4621 207.577 38.8241 207.636 38.1201C207.665 38.0028 207.68 37.8854 207.68 37.7681V37.4161C207.68 37.1521 207.665 36.8954 207.636 36.6461C207.606 36.3968 207.504 36.1841 207.328 36.0081C207.064 35.7294 206.594 35.5901 205.92 35.5901C205.318 35.5901 204.886 35.6854 204.622 35.8761C204.372 36.0521 204.218 36.2721 204.16 36.5361C204.116 36.8001 204.094 37.0714 204.094 37.3501C204.094 37.5848 204.108 37.8341 204.138 38.0981C204.167 38.3621 204.27 38.5821 204.446 38.7581C204.548 38.8461 204.666 38.9268 204.798 39.0001C204.93 39.0588 205.076 39.1101 205.238 39.1541C205.194 39.5648 205.062 39.8508 204.842 40.0121C204.636 40.1881 204.526 40.2908 204.512 40.3201C204.453 40.3348 204.365 40.3934 204.248 40.4961C204.145 40.5988 204.094 40.8188 204.094 41.1561C204.094 41.4201 204.13 41.6034 204.204 41.7061Z" fill="#242424"></path><path d="M107.78 62.9561C108.015 63.1174 108.403 63.1981 108.946 63.1981C109.489 63.1981 109.877 63.1174 110.112 62.9561C110.347 62.7948 110.486 62.5894 110.53 62.3401C110.589 62.0761 110.618 61.8048 110.618 61.5261V49.5141C110.618 49.2061 110.589 48.9274 110.53 48.6781C110.486 48.4288 110.347 48.2234 110.112 48.0621C109.892 47.9008 109.511 47.8201 108.968 47.8201C108.425 47.8201 108.037 47.9008 107.802 48.0621C107.567 48.2234 107.421 48.4288 107.362 48.6781C107.303 48.9274 107.274 49.1988 107.274 49.4921V54.0021H101.29V49.5141C101.29 49.2061 101.261 48.9274 101.202 48.6781C101.158 48.4288 101.019 48.2234 100.784 48.0621C100.564 47.9008 100.183 47.8201 99.64 47.8201C99.0827 47.8201 98.6867 47.9008 98.452 48.0621C98.232 48.2234 98.0927 48.4288 98.034 48.6781C97.9753 48.9274 97.946 49.1988 97.946 49.4921V61.5041C97.946 61.7828 97.968 62.0541 98.012 62.3181C98.0707 62.5821 98.2173 62.7948 98.452 62.9561C98.6867 63.1174 99.0753 63.1981 99.618 63.1981C100.161 63.1981 100.549 63.1174 100.784 62.9561C101.019 62.7948 101.158 62.5894 101.202 62.3401C101.261 62.0761 101.29 61.8048 101.29 61.5261V56.9061H107.274V61.5041C107.274 61.7828 107.303 62.0541 107.362 62.3181C107.421 62.5821 107.56 62.7948 107.78 62.9561Z" fill="#3452EF"></path><path d="M107.78 62.9561C108.015 63.1174 108.403 63.1981 108.946 63.1981C109.489 63.1981 109.877 63.1174 110.112 62.9561C110.347 62.7948 110.486 62.5894 110.53 62.3401C110.589 62.0761 110.618 61.8048 110.618 61.5261V49.5141C110.618 49.2061 110.589 48.9274 110.53 48.6781C110.486 48.4288 110.347 48.2234 110.112 48.0621C109.892 47.9008 109.511 47.8201 108.968 47.8201C108.425 47.8201 108.037 47.9008 107.802 48.0621C107.567 48.2234 107.421 48.4288 107.362 48.6781C107.303 48.9274 107.274 49.1988 107.274 49.4921V54.0021H101.29V49.5141C101.29 49.2061 101.261 48.9274 101.202 48.6781C101.158 48.4288 101.019 48.2234 100.784 48.0621C100.564 47.9008 100.183 47.8201 99.64 47.8201C99.0827 47.8201 98.6867 47.9008 98.452 48.0621C98.232 48.2234 98.0927 48.4288 98.034 48.6781C97.9753 48.9274 97.946 49.1988 97.946 49.4921V61.5041C97.946 61.7828 97.968 62.0541 98.012 62.3181C98.0707 62.5821 98.2173 62.7948 98.452 62.9561C98.6867 63.1174 99.0753 63.1981 99.618 63.1981C100.161 63.1981 100.549 63.1174 100.784 62.9561C101.019 62.7948 101.158 62.5894 101.202 62.3401C101.261 62.0761 101.29 61.8048 101.29 61.5261V56.9061H107.274V61.5041C107.274 61.7828 107.303 62.0541 107.362 62.3181C107.421 62.5821 107.56 62.7948 107.78 62.9561Z" fill="#242424"></path><path d="M113.062 62.9781C113.297 63.1248 113.686 63.1981 114.228 63.1981C114.771 63.1981 115.152 63.1248 115.372 62.9781C115.607 62.8314 115.746 62.6334 115.79 62.3841C115.849 62.1201 115.878 61.8488 115.878 61.5701V53.9141C115.878 53.6061 115.849 53.3274 115.79 53.0781C115.746 52.8288 115.607 52.6234 115.372 52.4621C115.152 52.3008 114.778 52.2201 114.25 52.2201C113.708 52.2201 113.319 52.3008 113.084 52.4621C112.85 52.6088 112.703 52.8068 112.644 53.0561C112.6 53.3054 112.578 53.5768 112.578 53.8701V61.5481C112.578 61.8268 112.6 62.0981 112.644 62.3621C112.703 62.6114 112.842 62.8168 113.062 62.9781Z" fill="#3452EF"></path><path d="M113.062 62.9781C113.297 63.1248 113.686 63.1981 114.228 63.1981C114.771 63.1981 115.152 63.1248 115.372 62.9781C115.607 62.8314 115.746 62.6334 115.79 62.3841C115.849 62.1201 115.878 61.8488 115.878 61.5701V53.9141C115.878 53.6061 115.849 53.3274 115.79 53.0781C115.746 52.8288 115.607 52.6234 115.372 52.4621C115.152 52.3008 114.778 52.2201 114.25 52.2201C113.708 52.2201 113.319 52.3008 113.084 52.4621C112.85 52.6088 112.703 52.8068 112.644 53.0561C112.6 53.3054 112.578 53.5768 112.578 53.8701V61.5481C112.578 61.8268 112.6 62.0981 112.644 62.3621C112.703 62.6114 112.842 62.8168 113.062 62.9781Z" fill="#242424"></path><path d="M113.04 50.3721C113.275 50.5334 113.671 50.6141 114.228 50.6141C114.786 50.6141 115.182 50.5408 115.416 50.3941C115.651 50.2328 115.79 50.0201 115.834 49.7561C115.893 49.4921 115.922 49.2134 115.922 48.9201C115.922 48.6268 115.893 48.3481 115.834 48.0841C115.79 47.8201 115.651 47.6074 115.416 47.4461C115.182 47.2848 114.793 47.2041 114.25 47.2041C113.693 47.2041 113.297 47.2848 113.062 47.4461C112.828 47.5928 112.681 47.7981 112.622 48.0621C112.564 48.3114 112.534 48.5901 112.534 48.8981C112.534 49.1914 112.556 49.4701 112.6 49.7341C112.659 49.9981 112.806 50.2108 113.04 50.3721Z" fill="#3452EF"></path><path d="M113.04 50.3721C113.275 50.5334 113.671 50.6141 114.228 50.6141C114.786 50.6141 115.182 50.5408 115.416 50.3941C115.651 50.2328 115.79 50.0201 115.834 49.7561C115.893 49.4921 115.922 49.2134 115.922 48.9201C115.922 48.6268 115.893 48.3481 115.834 48.0841C115.79 47.8201 115.651 47.6074 115.416 47.4461C115.182 47.2848 114.793 47.2041 114.25 47.2041C113.693 47.2041 113.297 47.2848 113.062 47.4461C112.828 47.5928 112.681 47.7981 112.622 48.0621C112.564 48.3114 112.534 48.5901 112.534 48.8981C112.534 49.1914 112.556 49.4701 112.6 49.7341C112.659 49.9981 112.806 50.2108 113.04 50.3721Z" fill="#242424"></path><path fill-rule="evenodd" clip-rule="evenodd" d="M121.207 67.5321C121.72 67.6641 122.233 67.7301 122.747 67.7301C123.421 67.7301 124.074 67.6128 124.705 67.3781C125.335 67.1434 125.907 66.7988 126.421 66.3441C126.934 65.9041 127.345 65.3541 127.653 64.6941C127.961 64.0488 128.115 63.3081 128.115 62.4721V53.7821C128.115 53.5034 128.085 53.2394 128.027 52.9901C127.983 52.7408 127.851 52.5428 127.631 52.3961C127.425 52.2348 127.059 52.1541 126.531 52.1541C126.003 52.1541 125.607 52.2421 125.343 52.4181C125.093 52.5794 124.947 52.8508 124.903 53.2321V53.4119C124.655 53.0755 124.355 52.8102 124.001 52.6161C123.546 52.3521 122.996 52.2201 122.351 52.2201C121.691 52.2201 121.06 52.3668 120.459 52.6601C119.872 52.9388 119.344 53.3274 118.875 53.8261C118.42 54.3101 118.061 54.8748 117.797 55.5201C117.533 56.1508 117.401 56.8254 117.401 57.5441C117.401 58.2628 117.533 58.9448 117.797 59.5901C118.061 60.2354 118.42 60.8074 118.875 61.3061C119.344 61.8048 119.872 62.2008 120.459 62.4941C121.06 62.7728 121.691 62.9121 122.351 62.9121C123.216 62.9121 123.913 62.6994 124.441 62.2741C124.61 62.1332 124.764 61.9743 124.903 61.7974V62.3401C124.903 62.6921 124.851 63.0074 124.749 63.2861C124.646 63.5794 124.499 63.8288 124.309 64.0341C124.118 64.2541 123.898 64.4154 123.649 64.5181C123.399 64.6354 123.121 64.6941 122.813 64.6941C122.387 64.6941 122.035 64.6354 121.757 64.5181C121.478 64.4154 121.243 64.2981 121.053 64.1661C120.877 64.0341 120.708 63.9094 120.547 63.7921C120.385 63.6894 120.202 63.6381 119.997 63.6381C119.791 63.6381 119.615 63.6968 119.469 63.8141C119.322 63.9314 119.146 64.1001 118.941 64.3201C118.765 64.5108 118.633 64.7014 118.545 64.8921C118.457 65.0974 118.413 65.3174 118.413 65.5521C118.413 65.8014 118.537 66.0508 118.787 66.3001C119.036 66.5494 119.373 66.7841 119.799 67.0041C120.224 67.2241 120.693 67.4001 121.207 67.5321ZM123.781 59.4361C123.473 59.6268 123.128 59.7221 122.747 59.7221C122.351 59.7221 121.991 59.6268 121.669 59.4361C121.361 59.2308 121.111 58.9668 120.921 58.6441C120.73 58.3214 120.635 57.9621 120.635 57.5661C120.635 57.1554 120.723 56.7888 120.899 56.4661C121.089 56.1288 121.339 55.8648 121.647 55.6741C121.955 55.4834 122.307 55.3881 122.703 55.3881C123.099 55.3881 123.451 55.4834 123.759 55.6741C124.081 55.8648 124.331 56.1214 124.507 56.4441C124.697 56.7668 124.793 57.1334 124.793 57.5441C124.793 57.9548 124.697 58.3214 124.507 58.6441C124.331 58.9668 124.089 59.2308 123.781 59.4361Z" fill="#3452EF"></path><path fill-rule="evenodd" clip-rule="evenodd" d="M121.207 67.5321C121.72 67.6641 122.233 67.7301 122.747 67.7301C123.421 67.7301 124.074 67.6128 124.705 67.3781C125.335 67.1434 125.907 66.7988 126.421 66.3441C126.934 65.9041 127.345 65.3541 127.653 64.6941C127.961 64.0488 128.115 63.3081 128.115 62.4721V53.7821C128.115 53.5034 128.085 53.2394 128.027 52.9901C127.983 52.7408 127.851 52.5428 127.631 52.3961C127.425 52.2348 127.059 52.1541 126.531 52.1541C126.003 52.1541 125.607 52.2421 125.343 52.4181C125.093 52.5794 124.947 52.8508 124.903 53.2321V53.4119C124.655 53.0755 124.355 52.8102 124.001 52.6161C123.546 52.3521 122.996 52.2201 122.351 52.2201C121.691 52.2201 121.06 52.3668 120.459 52.6601C119.872 52.9388 119.344 53.3274 118.875 53.8261C118.42 54.3101 118.061 54.8748 117.797 55.5201C117.533 56.1508 117.401 56.8254 117.401 57.5441C117.401 58.2628 117.533 58.9448 117.797 59.5901C118.061 60.2354 118.42 60.8074 118.875 61.3061C119.344 61.8048 119.872 62.2008 120.459 62.4941C121.06 62.7728 121.691 62.9121 122.351 62.9121C123.216 62.9121 123.913 62.6994 124.441 62.2741C124.61 62.1332 124.764 61.9743 124.903 61.7974V62.3401C124.903 62.6921 124.851 63.0074 124.749 63.2861C124.646 63.5794 124.499 63.8288 124.309 64.0341C124.118 64.2541 123.898 64.4154 123.649 64.5181C123.399 64.6354 123.121 64.6941 122.813 64.6941C122.387 64.6941 122.035 64.6354 121.757 64.5181C121.478 64.4154 121.243 64.2981 121.053 64.1661C120.877 64.0341 120.708 63.9094 120.547 63.7921C120.385 63.6894 120.202 63.6381 119.997 63.6381C119.791 63.6381 119.615 63.6968 119.469 63.8141C119.322 63.9314 119.146 64.1001 118.941 64.3201C118.765 64.5108 118.633 64.7014 118.545 64.8921C118.457 65.0974 118.413 65.3174 118.413 65.5521C118.413 65.8014 118.537 66.0508 118.787 66.3001C119.036 66.5494 119.373 66.7841 119.799 67.0041C120.224 67.2241 120.693 67.4001 121.207 67.5321ZM123.781 59.4361C123.473 59.6268 123.128 59.7221 122.747 59.7221C122.351 59.7221 121.991 59.6268 121.669 59.4361C121.361 59.2308 121.111 58.9668 120.921 58.6441C120.73 58.3214 120.635 57.9621 120.635 57.5661C120.635 57.1554 120.723 56.7888 120.899 56.4661C121.089 56.1288 121.339 55.8648 121.647 55.6741C121.955 55.4834 122.307 55.3881 122.703 55.3881C123.099 55.3881 123.451 55.4834 123.759 55.6741C124.081 55.8648 124.331 56.1214 124.507 56.4441C124.697 56.7668 124.793 57.1334 124.793 57.5441C124.793 57.9548 124.697 58.3214 124.507 58.6441C124.331 58.9668 124.089 59.2308 123.781 59.4361Z" fill="#242424"></path><path d="M130.353 62.9781C130.588 63.1248 130.969 63.1981 131.497 63.1981C132.04 63.1981 132.421 63.1248 132.641 62.9781C132.876 62.8168 133.023 62.6114 133.081 62.3621C133.14 62.1128 133.169 61.8414 133.169 61.5481V57.1701C133.228 56.7008 133.455 56.3048 133.851 55.9821C134.262 55.6448 134.739 55.4761 135.281 55.4761C135.692 55.4761 136.037 55.5641 136.315 55.7401C136.609 55.9161 136.829 56.1581 136.975 56.4661C137.122 56.7594 137.195 57.1188 137.195 57.5441V61.5261C137.195 61.8194 137.217 62.0981 137.261 62.3621C137.32 62.6114 137.467 62.8168 137.701 62.9781C137.951 63.1248 138.332 63.1981 138.845 63.1981C139.403 63.1981 139.791 63.1248 140.011 62.9781C140.231 62.8168 140.371 62.6114 140.429 62.3621C140.488 62.1128 140.517 61.8414 140.517 61.5481V57.5661C140.517 56.5248 140.297 55.6008 139.857 54.7941C139.432 53.9874 138.853 53.3568 138.119 52.9021C137.401 52.4328 136.587 52.1981 135.677 52.1981C135.105 52.1981 134.607 52.3228 134.181 52.5721C133.771 52.8214 133.433 53.0854 133.169 53.3641V48.8761C133.169 48.5828 133.14 48.3114 133.081 48.0621C133.037 47.8128 132.898 47.6074 132.663 47.4461C132.443 47.2848 132.062 47.2041 131.519 47.2041C130.991 47.2041 130.61 47.2848 130.375 47.4461C130.141 47.5928 129.994 47.7908 129.935 48.0401C129.877 48.2894 129.847 48.5608 129.847 48.8541V61.5261C129.847 61.8194 129.869 62.0981 129.913 62.3621C129.972 62.6114 130.119 62.8168 130.353 62.9781Z" fill="#3452EF"></path><path d="M130.353 62.9781C130.588 63.1248 130.969 63.1981 131.497 63.1981C132.04 63.1981 132.421 63.1248 132.641 62.9781C132.876 62.8168 133.023 62.6114 133.081 62.3621C133.14 62.1128 133.169 61.8414 133.169 61.5481V57.1701C133.228 56.7008 133.455 56.3048 133.851 55.9821C134.262 55.6448 134.739 55.4761 135.281 55.4761C135.692 55.4761 136.037 55.5641 136.315 55.7401C136.609 55.9161 136.829 56.1581 136.975 56.4661C137.122 56.7594 137.195 57.1188 137.195 57.5441V61.5261C137.195 61.8194 137.217 62.0981 137.261 62.3621C137.32 62.6114 137.467 62.8168 137.701 62.9781C137.951 63.1248 138.332 63.1981 138.845 63.1981C139.403 63.1981 139.791 63.1248 140.011 62.9781C140.231 62.8168 140.371 62.6114 140.429 62.3621C140.488 62.1128 140.517 61.8414 140.517 61.5481V57.5661C140.517 56.5248 140.297 55.6008 139.857 54.7941C139.432 53.9874 138.853 53.3568 138.119 52.9021C137.401 52.4328 136.587 52.1981 135.677 52.1981C135.105 52.1981 134.607 52.3228 134.181 52.5721C133.771 52.8214 133.433 53.0854 133.169 53.3641V48.8761C133.169 48.5828 133.14 48.3114 133.081 48.0621C133.037 47.8128 132.898 47.6074 132.663 47.4461C132.443 47.2848 132.062 47.2041 131.519 47.2041C130.991 47.2041 130.61 47.2848 130.375 47.4461C130.141 47.5928 129.994 47.7908 129.935 48.0401C129.877 48.2894 129.847 48.5608 129.847 48.8541V61.5261C129.847 61.8194 129.869 62.0981 129.913 62.3621C129.972 62.6114 130.119 62.8168 130.353 62.9781Z" fill="#242424"></path><path fill-rule="evenodd" clip-rule="evenodd" d="M163.505 61.1081C163.447 60.7708 163.161 60.4334 162.647 60.0961L161.195 59.1281C161.474 58.5854 161.687 58.0134 161.833 57.4121C161.995 56.8108 162.075 56.1948 162.075 55.5641C162.075 54.4494 161.877 53.4154 161.481 52.4621C161.085 51.5088 160.535 50.6728 159.831 49.9541C159.142 49.2354 158.328 48.6781 157.389 48.2821C156.465 47.8714 155.475 47.6661 154.419 47.6661C153.378 47.6661 152.403 47.8714 151.493 48.2821C150.584 48.6928 149.785 49.2648 149.095 49.9981C148.421 50.7314 147.885 51.5821 147.489 52.5501C147.108 53.5034 146.917 54.5374 146.917 55.6521C146.917 56.7081 147.115 57.7128 147.511 58.6661C147.922 59.6048 148.472 60.4334 149.161 61.1521C149.865 61.8561 150.679 62.4134 151.603 62.8241C152.542 63.2201 153.539 63.4181 154.595 63.4181C155.446 63.4181 156.253 63.2714 157.015 62.9781C157.778 62.6848 158.475 62.2814 159.105 61.7681L160.733 62.8241C161.071 63.0441 161.364 63.1908 161.613 63.2641C161.863 63.3374 162.097 63.3081 162.317 63.1761C162.537 63.0441 162.779 62.7874 163.043 62.4061C163.425 61.8781 163.579 61.4454 163.505 61.1081ZM156.135 59.7221C155.622 59.9568 155.072 60.0741 154.485 60.0741C153.913 60.0741 153.371 59.9568 152.857 59.7221C152.359 59.4874 151.911 59.1648 151.515 58.7541C151.134 58.3434 150.826 57.8668 150.591 57.3241C150.371 56.7668 150.261 56.1801 150.261 55.5641C150.261 54.9334 150.371 54.3468 150.591 53.8041C150.811 53.2468 151.112 52.7628 151.493 52.3521C151.889 51.9268 152.344 51.5968 152.857 51.3621C153.371 51.1274 153.921 51.0101 154.507 51.0101C155.079 51.0101 155.615 51.1274 156.113 51.3621C156.627 51.5968 157.074 51.9268 157.455 52.3521C157.851 52.7628 158.159 53.2468 158.379 53.8041C158.599 54.3468 158.709 54.9261 158.709 55.5421C158.709 56.1728 158.599 56.7668 158.379 57.3241C158.174 57.8814 157.873 58.3654 157.477 58.7761C157.096 59.1721 156.649 59.4874 156.135 59.7221Z" fill="#3452EF"></path><path fill-rule="evenodd" clip-rule="evenodd" d="M163.505 61.1081C163.447 60.7708 163.161 60.4334 162.647 60.0961L161.195 59.1281C161.474 58.5854 161.687 58.0134 161.833 57.4121C161.995 56.8108 162.075 56.1948 162.075 55.5641C162.075 54.4494 161.877 53.4154 161.481 52.4621C161.085 51.5088 160.535 50.6728 159.831 49.9541C159.142 49.2354 158.328 48.6781 157.389 48.2821C156.465 47.8714 155.475 47.6661 154.419 47.6661C153.378 47.6661 152.403 47.8714 151.493 48.2821C150.584 48.6928 149.785 49.2648 149.095 49.9981C148.421 50.7314 147.885 51.5821 147.489 52.5501C147.108 53.5034 146.917 54.5374 146.917 55.6521C146.917 56.7081 147.115 57.7128 147.511 58.6661C147.922 59.6048 148.472 60.4334 149.161 61.1521C149.865 61.8561 150.679 62.4134 151.603 62.8241C152.542 63.2201 153.539 63.4181 154.595 63.4181C155.446 63.4181 156.253 63.2714 157.015 62.9781C157.778 62.6848 158.475 62.2814 159.105 61.7681L160.733 62.8241C161.071 63.0441 161.364 63.1908 161.613 63.2641C161.863 63.3374 162.097 63.3081 162.317 63.1761C162.537 63.0441 162.779 62.7874 163.043 62.4061C163.425 61.8781 163.579 61.4454 163.505 61.1081ZM156.135 59.7221C155.622 59.9568 155.072 60.0741 154.485 60.0741C153.913 60.0741 153.371 59.9568 152.857 59.7221C152.359 59.4874 151.911 59.1648 151.515 58.7541C151.134 58.3434 150.826 57.8668 150.591 57.3241C150.371 56.7668 150.261 56.1801 150.261 55.5641C150.261 54.9334 150.371 54.3468 150.591 53.8041C150.811 53.2468 151.112 52.7628 151.493 52.3521C151.889 51.9268 152.344 51.5968 152.857 51.3621C153.371 51.1274 153.921 51.0101 154.507 51.0101C155.079 51.0101 155.615 51.1274 156.113 51.3621C156.627 51.5968 157.074 51.9268 157.455 52.3521C157.851 52.7628 158.159 53.2468 158.379 53.8041C158.599 54.3468 158.709 54.9261 158.709 55.5421C158.709 56.1728 158.599 56.7668 158.379 57.3241C158.174 57.8814 157.873 58.3654 157.477 58.7761C157.096 59.1721 156.649 59.4874 156.135 59.7221Z" fill="#242424"></path><path d="M166.997 62.7801C167.599 63.0441 168.237 63.1761 168.911 63.1761C169.337 63.1761 169.711 63.1101 170.033 62.9781C170.356 62.8461 170.635 62.6921 170.869 62.5161C171.119 62.3254 171.317 62.1494 171.463 61.9881L171.465 61.9867C171.467 62.0814 171.474 62.1845 171.485 62.2961C171.515 62.4428 171.581 62.5821 171.683 62.7141C171.786 62.8461 171.947 62.9561 172.167 63.0441C172.387 63.1321 172.695 63.1761 173.091 63.1761C173.619 63.1761 174.001 63.1028 174.235 62.9561C174.47 62.8094 174.609 62.6188 174.653 62.3841C174.712 62.1348 174.741 61.8708 174.741 61.5921V53.8481C174.741 53.5694 174.712 53.3054 174.653 53.0561C174.609 52.7921 174.47 52.5794 174.235 52.4181C174.015 52.2568 173.634 52.1761 173.091 52.1761C172.549 52.1761 172.16 52.2568 171.925 52.4181C171.705 52.5648 171.566 52.7628 171.507 53.0121C171.449 53.2614 171.419 53.5328 171.419 53.8261V57.8301C171.419 58.2554 171.331 58.6221 171.155 58.9301C170.994 59.2381 170.759 59.4801 170.451 59.6561C170.158 59.8174 169.799 59.8981 169.373 59.8981C168.963 59.8981 168.603 59.8174 168.295 59.6561C168.002 59.4948 167.775 59.2601 167.613 58.9521C167.467 58.6294 167.393 58.2554 167.393 57.8301V53.8701C167.393 53.5768 167.364 53.3054 167.305 53.0561C167.261 52.7921 167.122 52.5794 166.887 52.4181C166.667 52.2568 166.286 52.1761 165.743 52.1761C165.201 52.1761 164.812 52.2568 164.577 52.4181C164.357 52.5794 164.218 52.7848 164.159 53.0341C164.101 53.2834 164.071 53.5548 164.071 53.8481V57.8301C164.071 58.6074 164.189 59.3261 164.423 59.9861C164.673 60.6314 165.017 61.1961 165.457 61.6801C165.897 62.1494 166.411 62.5161 166.997 62.7801Z" fill="#3452EF"></path><path d="M166.997 62.7801C167.599 63.0441 168.237 63.1761 168.911 63.1761C169.337 63.1761 169.711 63.1101 170.033 62.9781C170.356 62.8461 170.635 62.6921 170.869 62.5161C171.119 62.3254 171.317 62.1494 171.463 61.9881L171.465 61.9867C171.467 62.0814 171.474 62.1845 171.485 62.2961C171.515 62.4428 171.581 62.5821 171.683 62.7141C171.786 62.8461 171.947 62.9561 172.167 63.0441C172.387 63.1321 172.695 63.1761 173.091 63.1761C173.619 63.1761 174.001 63.1028 174.235 62.9561C174.47 62.8094 174.609 62.6188 174.653 62.3841C174.712 62.1348 174.741 61.8708 174.741 61.5921V53.8481C174.741 53.5694 174.712 53.3054 174.653 53.0561C174.609 52.7921 174.47 52.5794 174.235 52.4181C174.015 52.2568 173.634 52.1761 173.091 52.1761C172.549 52.1761 172.16 52.2568 171.925 52.4181C171.705 52.5648 171.566 52.7628 171.507 53.0121C171.449 53.2614 171.419 53.5328 171.419 53.8261V57.8301C171.419 58.2554 171.331 58.6221 171.155 58.9301C170.994 59.2381 170.759 59.4801 170.451 59.6561C170.158 59.8174 169.799 59.8981 169.373 59.8981C168.963 59.8981 168.603 59.8174 168.295 59.6561C168.002 59.4948 167.775 59.2601 167.613 58.9521C167.467 58.6294 167.393 58.2554 167.393 57.8301V53.8701C167.393 53.5768 167.364 53.3054 167.305 53.0561C167.261 52.7921 167.122 52.5794 166.887 52.4181C166.667 52.2568 166.286 52.1761 165.743 52.1761C165.201 52.1761 164.812 52.2568 164.577 52.4181C164.357 52.5794 164.218 52.7848 164.159 53.0341C164.101 53.2834 164.071 53.5548 164.071 53.8481V57.8301C164.071 58.6074 164.189 59.3261 164.423 59.9861C164.673 60.6314 165.017 61.1961 165.457 61.6801C165.897 62.1494 166.411 62.5161 166.997 62.7801Z" fill="#242424"></path><path fill-rule="evenodd" clip-rule="evenodd" d="M184.258 62.8901C184.522 63.0808 184.925 63.1761 185.468 63.1761C186.01 63.1761 186.392 63.1028 186.612 62.9561C186.846 62.7948 186.986 62.5821 187.03 62.3181C187.088 62.0541 187.118 61.7828 187.118 61.5041V53.9141C187.118 53.6208 187.088 53.3421 187.03 53.0781C186.986 52.8141 186.846 52.6014 186.612 52.4401C186.392 52.2788 186.018 52.1981 185.49 52.1981C184.932 52.1981 184.522 52.2934 184.258 52.4841C184.008 52.6601 183.891 52.9241 183.906 53.2761L184.082 53.5841C183.95 53.3934 183.752 53.1954 183.488 52.9901C183.238 52.7848 182.923 52.6088 182.542 52.4621C182.16 52.3008 181.698 52.2201 181.156 52.2201C180.481 52.2201 179.843 52.3668 179.242 52.6601C178.64 52.9534 178.098 53.3568 177.614 53.8701C177.144 54.3688 176.77 54.9481 176.492 55.6081C176.228 56.2534 176.096 56.9354 176.096 57.6541C176.096 58.3874 176.228 59.0841 176.492 59.7441C176.77 60.4041 177.144 60.9981 177.614 61.5261C178.083 62.0394 178.618 62.4428 179.22 62.7361C179.836 63.0294 180.481 63.1761 181.156 63.1761C181.742 63.1761 182.234 63.0954 182.63 62.9341C183.026 62.7581 183.348 62.5674 183.598 62.3621C183.847 62.1421 184.016 61.9588 184.104 61.8121L183.884 62.1861C183.884 62.4648 184.008 62.6994 184.258 62.8901ZM182.674 59.6121C182.366 59.8028 182.021 59.8981 181.64 59.8981C181.214 59.8981 180.826 59.8028 180.474 59.6121C180.136 59.4068 179.865 59.1428 179.66 58.8201C179.469 58.4828 179.374 58.1161 179.374 57.7201C179.374 57.2948 179.469 56.9134 179.66 56.5761C179.865 56.2388 180.129 55.9674 180.452 55.7621C180.789 55.5568 181.17 55.4541 181.596 55.4541C181.977 55.4541 182.329 55.5568 182.652 55.7621C182.974 55.9528 183.231 56.2168 183.422 56.5541C183.612 56.8768 183.708 57.2508 183.708 57.6761C183.708 58.0868 183.612 58.4608 183.422 58.7981C183.246 59.1354 182.996 59.4068 182.674 59.6121Z" fill="#3452EF"></path><path fill-rule="evenodd" clip-rule="evenodd" d="M184.258 62.8901C184.522 63.0808 184.925 63.1761 185.468 63.1761C186.01 63.1761 186.392 63.1028 186.612 62.9561C186.846 62.7948 186.986 62.5821 187.03 62.3181C187.088 62.0541 187.118 61.7828 187.118 61.5041V53.9141C187.118 53.6208 187.088 53.3421 187.03 53.0781C186.986 52.8141 186.846 52.6014 186.612 52.4401C186.392 52.2788 186.018 52.1981 185.49 52.1981C184.932 52.1981 184.522 52.2934 184.258 52.4841C184.008 52.6601 183.891 52.9241 183.906 53.2761L184.082 53.5841C183.95 53.3934 183.752 53.1954 183.488 52.9901C183.238 52.7848 182.923 52.6088 182.542 52.4621C182.16 52.3008 181.698 52.2201 181.156 52.2201C180.481 52.2201 179.843 52.3668 179.242 52.6601C178.64 52.9534 178.098 53.3568 177.614 53.8701C177.144 54.3688 176.77 54.9481 176.492 55.6081C176.228 56.2534 176.096 56.9354 176.096 57.6541C176.096 58.3874 176.228 59.0841 176.492 59.7441C176.77 60.4041 177.144 60.9981 177.614 61.5261C178.083 62.0394 178.618 62.4428 179.22 62.7361C179.836 63.0294 180.481 63.1761 181.156 63.1761C181.742 63.1761 182.234 63.0954 182.63 62.9341C183.026 62.7581 183.348 62.5674 183.598 62.3621C183.847 62.1421 184.016 61.9588 184.104 61.8121L183.884 62.1861C183.884 62.4648 184.008 62.6994 184.258 62.8901ZM182.674 59.6121C182.366 59.8028 182.021 59.8981 181.64 59.8981C181.214 59.8981 180.826 59.8028 180.474 59.6121C180.136 59.4068 179.865 59.1428 179.66 58.8201C179.469 58.4828 179.374 58.1161 179.374 57.7201C179.374 57.2948 179.469 56.9134 179.66 56.5761C179.865 56.2388 180.129 55.9674 180.452 55.7621C180.789 55.5568 181.17 55.4541 181.596 55.4541C181.977 55.4541 182.329 55.5568 182.652 55.7621C182.974 55.9528 183.231 56.2168 183.422 56.5541C183.612 56.8768 183.708 57.2508 183.708 57.6761C183.708 58.0868 183.612 58.4608 183.422 58.7981C183.246 59.1354 182.996 59.4068 182.674 59.6121Z" fill="#242424"></path><path d="M191.506 63.0881C191.976 63.1614 192.511 63.1981 193.112 63.1981C193.303 63.1981 193.486 63.1761 193.662 63.1321C193.853 63.0881 194.014 62.9488 194.146 62.7141C194.278 62.4794 194.344 62.0981 194.344 61.5701C194.344 61.0568 194.278 60.6901 194.146 60.4701C194.014 60.2501 193.853 60.1181 193.662 60.0741C193.486 60.0301 193.31 60.0081 193.134 60.0081C192.944 60.0081 192.79 59.9934 192.672 59.9641C192.555 59.9348 192.46 59.8761 192.386 59.7881C192.328 59.7001 192.284 59.5828 192.254 59.4361C192.24 59.2748 192.232 59.0768 192.232 58.8421V48.8321C192.232 48.5388 192.203 48.2674 192.144 48.0181C192.086 47.7688 191.939 47.5634 191.704 47.4021C191.484 47.2408 191.11 47.1601 190.582 47.1601C190.054 47.1601 189.673 47.2408 189.438 47.4021C189.204 47.5634 189.057 47.7688 188.998 48.0181C188.954 48.2674 188.932 48.5388 188.932 48.8321V58.9961C188.932 59.7148 188.976 60.3234 189.064 60.8221C189.167 61.3061 189.321 61.7021 189.526 62.0101C189.732 62.3181 189.996 62.5601 190.318 62.7361C190.656 62.9121 191.052 63.0294 191.506 63.0881Z" fill="#3452EF"></path><path d="M191.506 63.0881C191.976 63.1614 192.511 63.1981 193.112 63.1981C193.303 63.1981 193.486 63.1761 193.662 63.1321C193.853 63.0881 194.014 62.9488 194.146 62.7141C194.278 62.4794 194.344 62.0981 194.344 61.5701C194.344 61.0568 194.278 60.6901 194.146 60.4701C194.014 60.2501 193.853 60.1181 193.662 60.0741C193.486 60.0301 193.31 60.0081 193.134 60.0081C192.944 60.0081 192.79 59.9934 192.672 59.9641C192.555 59.9348 192.46 59.8761 192.386 59.7881C192.328 59.7001 192.284 59.5828 192.254 59.4361C192.24 59.2748 192.232 59.0768 192.232 58.8421V48.8321C192.232 48.5388 192.203 48.2674 192.144 48.0181C192.086 47.7688 191.939 47.5634 191.704 47.4021C191.484 47.2408 191.11 47.1601 190.582 47.1601C190.054 47.1601 189.673 47.2408 189.438 47.4021C189.204 47.5634 189.057 47.7688 188.998 48.0181C188.954 48.2674 188.932 48.5388 188.932 48.8321V58.9961C188.932 59.7148 188.976 60.3234 189.064 60.8221C189.167 61.3061 189.321 61.7021 189.526 62.0101C189.732 62.3181 189.996 62.5601 190.318 62.7361C190.656 62.9121 191.052 63.0294 191.506 63.0881Z" fill="#242424"></path><path d="M196.1 62.9781C196.334 63.1248 196.723 63.1981 197.266 63.1981C197.808 63.1981 198.189 63.1248 198.41 62.9781C198.644 62.8314 198.784 62.6334 198.827 62.3841C198.886 62.1201 198.915 61.8488 198.915 61.5701V53.9141C198.915 53.6061 198.886 53.3274 198.827 53.0781C198.784 52.8288 198.644 52.6234 198.41 52.4621C198.189 52.3008 197.815 52.2201 197.287 52.2201C196.745 52.2201 196.356 52.3008 196.121 52.4621C195.887 52.6088 195.74 52.8068 195.682 53.0561C195.637 53.3054 195.616 53.5768 195.616 53.8701V61.5481C195.616 61.8268 195.637 62.0981 195.682 62.3621C195.74 62.6114 195.88 62.8168 196.1 62.9781Z" fill="#3452EF"></path><path d="M196.1 62.9781C196.334 63.1248 196.723 63.1981 197.266 63.1981C197.808 63.1981 198.189 63.1248 198.41 62.9781C198.644 62.8314 198.784 62.6334 198.827 62.3841C198.886 62.1201 198.915 61.8488 198.915 61.5701V53.9141C198.915 53.6061 198.886 53.3274 198.827 53.0781C198.784 52.8288 198.644 52.6234 198.41 52.4621C198.189 52.3008 197.815 52.2201 197.287 52.2201C196.745 52.2201 196.356 52.3008 196.121 52.4621C195.887 52.6088 195.74 52.8068 195.682 53.0561C195.637 53.3054 195.616 53.5768 195.616 53.8701V61.5481C195.616 61.8268 195.637 62.0981 195.682 62.3621C195.74 62.6114 195.88 62.8168 196.1 62.9781Z" fill="#242424"></path><path d="M196.077 50.3721C196.312 50.5334 196.708 50.6141 197.266 50.6141C197.823 50.6141 198.219 50.5408 198.453 50.3941C198.688 50.2328 198.827 50.0201 198.871 49.7561C198.93 49.4921 198.96 49.2134 198.96 48.9201C198.96 48.6268 198.93 48.3481 198.871 48.0841C198.827 47.8201 198.688 47.6074 198.453 47.4461C198.219 47.2848 197.83 47.2041 197.287 47.2041C196.73 47.2041 196.334 47.2848 196.1 47.4461C195.865 47.5928 195.718 47.7981 195.66 48.0621C195.601 48.3114 195.572 48.5901 195.572 48.8981C195.572 49.1914 195.593 49.4701 195.637 49.7341C195.696 49.9981 195.843 50.2108 196.077 50.3721Z" fill="#3452EF"></path><path d="M196.077 50.3721C196.312 50.5334 196.708 50.6141 197.266 50.6141C197.823 50.6141 198.219 50.5408 198.453 50.3941C198.688 50.2328 198.827 50.0201 198.871 49.7561C198.93 49.4921 198.96 49.2134 198.96 48.9201C198.96 48.6268 198.93 48.3481 198.871 48.0841C198.827 47.8201 198.688 47.6074 198.453 47.4461C198.219 47.2848 197.83 47.2041 197.287 47.2041C196.73 47.2041 196.334 47.2848 196.1 47.4461C195.865 47.5928 195.718 47.7981 195.66 48.0621C195.601 48.3114 195.572 48.5901 195.572 48.8981C195.572 49.1914 195.593 49.4701 195.637 49.7341C195.696 49.9981 195.843 50.2108 196.077 50.3721Z" fill="#242424"></path><path d="M204.401 62.9561C204.944 63.1174 205.589 63.1981 206.337 63.1981C206.616 63.1981 206.88 63.1761 207.129 63.1321C207.393 63.0881 207.606 62.9488 207.767 62.7141C207.929 62.4794 208.009 62.0981 208.009 61.5701C208.009 61.0861 207.936 60.7414 207.789 60.5361C207.657 60.3308 207.467 60.1988 207.217 60.1401C206.968 60.0814 206.682 60.0521 206.359 60.0521C206.169 60.0521 206.007 60.0374 205.875 60.0081C205.743 59.9788 205.641 59.9274 205.567 59.8541C205.494 59.7808 205.435 59.6708 205.391 59.5241C205.362 59.3628 205.347 59.1648 205.347 58.9301V55.5743L206.821 55.6081C207.115 55.6081 207.386 55.5788 207.635 55.5201C207.885 55.4468 208.083 55.2928 208.229 55.0581C208.391 54.8234 208.471 54.4568 208.471 53.9581C208.471 53.4154 208.391 53.0268 208.229 52.7921C208.068 52.5574 207.863 52.4181 207.613 52.3741C207.364 52.3154 207.1 52.2861 206.821 52.2861L205.347 52.3288V50.1961C205.347 49.9028 205.318 49.6314 205.259 49.3821C205.215 49.1328 205.076 48.9274 204.841 48.7661C204.607 48.6048 204.225 48.5241 203.697 48.5241C203.169 48.5241 202.788 48.6048 202.553 48.7661C202.319 48.9128 202.172 49.1034 202.113 49.3381C202.069 49.5728 202.047 49.8368 202.047 50.1301V52.3741H201.365C200.955 52.3741 200.647 52.5061 200.441 52.7701C200.236 53.0194 200.133 53.4081 200.133 53.9361C200.133 54.5081 200.214 54.9188 200.375 55.1681C200.551 55.4028 200.852 55.5274 201.277 55.5421H202.047V59.0621C202.047 59.7808 202.128 60.4041 202.289 60.9321C202.465 61.4454 202.729 61.8708 203.081 62.2081C203.433 62.5454 203.873 62.7948 204.401 62.9561Z" fill="#3452EF"></path><path d="M204.401 62.9561C204.944 63.1174 205.589 63.1981 206.337 63.1981C206.616 63.1981 206.88 63.1761 207.129 63.1321C207.393 63.0881 207.606 62.9488 207.767 62.7141C207.929 62.4794 208.009 62.0981 208.009 61.5701C208.009 61.0861 207.936 60.7414 207.789 60.5361C207.657 60.3308 207.467 60.1988 207.217 60.1401C206.968 60.0814 206.682 60.0521 206.359 60.0521C206.169 60.0521 206.007 60.0374 205.875 60.0081C205.743 59.9788 205.641 59.9274 205.567 59.8541C205.494 59.7808 205.435 59.6708 205.391 59.5241C205.362 59.3628 205.347 59.1648 205.347 58.9301V55.5743L206.821 55.6081C207.115 55.6081 207.386 55.5788 207.635 55.5201C207.885 55.4468 208.083 55.2928 208.229 55.0581C208.391 54.8234 208.471 54.4568 208.471 53.9581C208.471 53.4154 208.391 53.0268 208.229 52.7921C208.068 52.5574 207.863 52.4181 207.613 52.3741C207.364 52.3154 207.1 52.2861 206.821 52.2861L205.347 52.3288V50.1961C205.347 49.9028 205.318 49.6314 205.259 49.3821C205.215 49.1328 205.076 48.9274 204.841 48.7661C204.607 48.6048 204.225 48.5241 203.697 48.5241C203.169 48.5241 202.788 48.6048 202.553 48.7661C202.319 48.9128 202.172 49.1034 202.113 49.3381C202.069 49.5728 202.047 49.8368 202.047 50.1301V52.3741H201.365C200.955 52.3741 200.647 52.5061 200.441 52.7701C200.236 53.0194 200.133 53.4081 200.133 53.9361C200.133 54.5081 200.214 54.9188 200.375 55.1681C200.551 55.4028 200.852 55.5274 201.277 55.5421H202.047V59.0621C202.047 59.7808 202.128 60.4041 202.289 60.9321C202.465 61.4454 202.729 61.8708 203.081 62.2081C203.433 62.5454 203.873 62.7948 204.401 62.9561Z" fill="#242424"></path><path d="M211.56 66.7621C211.662 67.0848 212.014 67.3781 212.616 67.6421C213.217 67.9061 213.664 67.9794 213.958 67.8621C214.251 67.7448 214.522 67.4001 214.772 66.8281L220.316 54.3981C220.55 53.8848 220.616 53.4741 220.514 53.1661C220.426 52.8581 220.088 52.5648 219.502 52.2861C218.9 52.0514 218.446 51.9928 218.138 52.1101C217.844 52.2128 217.573 52.5501 217.324 53.1221L215.271 57.7105L212.132 52.9021C211.809 52.4034 211.486 52.1174 211.164 52.0441C210.856 51.9561 210.416 52.0881 209.844 52.4401C209.33 52.7774 209.037 53.1074 208.964 53.4301C208.905 53.7528 209.037 54.1561 209.36 54.6401L213.692 61.2396L211.802 65.4641C211.552 66.0068 211.472 66.4394 211.56 66.7621Z" fill="#3452EF"></path><path d="M211.56 66.7621C211.662 67.0848 212.014 67.3781 212.616 67.6421C213.217 67.9061 213.664 67.9794 213.958 67.8621C214.251 67.7448 214.522 67.4001 214.772 66.8281L220.316 54.3981C220.55 53.8848 220.616 53.4741 220.514 53.1661C220.426 52.8581 220.088 52.5648 219.502 52.2861C218.9 52.0514 218.446 51.9928 218.138 52.1101C217.844 52.2128 217.573 52.5501 217.324 53.1221L215.271 57.7105L212.132 52.9021C211.809 52.4034 211.486 52.1174 211.164 52.0441C210.856 51.9561 210.416 52.0881 209.844 52.4401C209.33 52.7774 209.037 53.1074 208.964 53.4301C208.905 53.7528 209.037 54.1561 209.36 54.6401L213.692 61.2396L211.802 65.4641C211.552 66.0068 211.472 66.4394 211.56 66.7621Z" fill="#242424"></path><g clip-path="url(#clip0_23153_68351)"><path d="M63.2447 56.0163C65.8912 56.0163 67.2413 59.1936 65.4043 61.0987L54.1595 72.7604C52.9797 73.9839 51.0201 73.9839 49.8404 72.7604L38.5956 61.0987C36.7586 59.1936 38.1087 56.0163 40.7552 56.0163H43.3912V46.7476H60.6087V56.0163H63.2447Z" fill="#3452EF"></path><path d="M63.2447 56.0163C65.8912 56.0163 67.2413 59.1936 65.4043 61.0987L54.1595 72.7604C52.9797 73.9839 51.0201 73.9839 49.8404 72.7604L38.5956 61.0987C36.7586 59.1936 38.1087 56.0163 40.7552 56.0163H43.3912V46.7476H60.6087V56.0163H63.2447Z" fill="#242424"></path><path d="M72.1812 31.1812C72.1812 42.3263 63.145 51.3613 52 51.3613C40.855 51.3613 31.8187 42.3263 31.8187 31.1812C31.8187 20.035 40.855 11 52 11C63.145 11 72.1812 20.035 72.1812 31.1812Z" fill="#FABA5B"></path><path d="M58.8512 35.0849C58.8512 37.9986 56.6825 40.4149 53.875 40.8074V41.6061C53.875 42.6417 53.0355 43.4811 52 43.4811V43.4811C50.9645 43.4811 50.125 42.6417 50.125 41.6061V40.8111C47.3375 40.4361 45.18 38.0424 45.18 35.1536H48.93C48.93 36.2349 49.8087 37.1136 50.89 37.1136H53.0725C54.1912 37.1136 55.1012 36.2036 55.1012 35.0849C55.1012 33.9661 54.1912 33.0561 53.0725 33.0561H50.9275C47.7412 33.0561 45.1487 30.4636 45.1487 27.2761C45.1487 24.3624 47.3175 21.9461 50.125 21.5549V20.7549C50.125 19.7193 50.9645 18.8799 52 18.8799V18.8799C53.0355 18.8799 53.875 19.7193 53.875 20.7549V21.5611C56.66 21.9736 58.805 24.3799 58.805 27.2786H55.055C55.055 26.1586 54.1437 25.2474 53.0225 25.2474H50.9275C49.8087 25.2474 48.8987 26.1574 48.8987 27.2761C48.8987 28.3949 49.8087 29.3061 50.9275 29.3061H53.0725C56.2587 29.3061 58.8512 31.8986 58.8512 35.0849Z" fill="white"></path></g><defs><clipPath id="clip0_23153_68351"><rect width="64" height="64" fill="white" transform="translate(20 11)"></rect></clipPath></defs></svg> 