<?xml version="1.0" encoding="UTF-8"?> <svg xmlns="http://www.w3.org/2000/svg" width="261" height="86" viewBox="0 0 261 86" fill="none"><path d="M2.96152 22.9817C3.8487 12.5912 12.3527 5.00057 22.7287 3.95775C39.9567 2.22628 66.8928 -0.0641475 88.2992 0.00137463C124.416 0.111922 144.556 1.06721 180.672 1.17704C200.625 1.23772 225.684 3.13691 241.105 4.49276C249.948 5.27026 257.852 10.8198 259.368 19.5669C259.961 22.9888 260.313 26.7954 260.103 30.6759C259.409 43.5037 258.863 43.685 259.849 56.5107C260.013 58.6453 259.733 61.5054 259.244 64.5169C257.605 74.6137 248.671 81.5641 238.464 82.2214C217.789 83.5526 179.756 85.4894 133.471 85.4894C85.116 85.4894 42.906 83.3756 21.1469 82.0468C11.5684 81.4618 2.87776 75.3428 1.47017 65.8503C1.16512 63.7931 0.980555 61.7079 1.00163 59.724C1.10581 49.9184 2.19831 40.1033 2.50918 30.6151C2.5975 27.9193 2.75844 25.3601 2.96152 22.9817Z" fill="#FABA5B"></path><path d="M2.96152 22.9817C3.8487 12.5912 12.3527 5.00057 22.7287 3.95775C39.9567 2.22628 66.8928 -0.0641475 88.2992 0.00137463C124.416 0.111922 144.556 1.06721 180.672 1.17704C200.625 1.23772 225.684 3.13691 241.105 4.49276C249.948 5.27026 257.852 10.8198 259.368 19.5669C259.961 22.9888 260.313 26.7954 260.103 30.6759C259.409 43.5037 258.863 43.685 259.849 56.5107C260.013 58.6453 259.733 61.5054 259.244 64.5169C257.605 74.6137 248.671 81.5641 238.464 82.2214C217.789 83.5526 179.756 85.4894 133.471 85.4894C85.116 85.4894 42.906 83.3756 21.1469 82.0468C11.5684 81.4618 2.87776 75.3428 1.47017 65.8503C1.16512 63.7931 0.980555 61.7079 1.00163 59.724C1.10581 49.9184 2.19831 40.1033 2.50918 30.6151C2.5975 27.9193 2.75844 25.3601 2.96152 22.9817Z" fill="#F9F9F9" fill-opacity="0.83"></path><path d="M190.604 39.0882C191.073 39.1615 191.609 39.1982 192.21 39.1982C192.401 39.1982 192.584 39.1762 192.76 39.1322C192.951 39.0882 193.112 38.9488 193.244 38.7142C193.376 38.4795 193.442 38.0982 193.442 37.5702C193.442 37.0568 193.376 36.6902 193.244 36.4702C193.112 36.2502 192.951 36.1182 192.76 36.0742C192.584 36.0302 192.408 36.0082 192.232 36.0082C192.041 36.0082 191.887 35.9935 191.77 35.9642C191.653 35.9348 191.557 35.8762 191.484 35.7882C191.425 35.7002 191.381 35.5828 191.352 35.4362C191.337 35.2748 191.33 35.0768 191.33 34.8422V24.8322C191.33 24.5388 191.301 24.2675 191.242 24.0182C191.183 23.7688 191.037 23.5635 190.802 23.4022C190.582 23.2408 190.208 23.1602 189.68 23.1602C189.152 23.1602 188.771 23.2408 188.536 23.4022C188.301 23.5635 188.155 23.7688 188.096 24.0182C188.052 24.2675 188.03 24.5388 188.03 24.8322V34.9962C188.03 35.7148 188.074 36.3235 188.162 36.8222C188.265 37.3062 188.419 37.7022 188.624 38.0102C188.829 38.3182 189.093 38.5602 189.416 38.7362C189.753 38.9122 190.149 39.0295 190.604 39.0882Z" fill="#3452EF"></path><path d="M190.604 39.0882C191.073 39.1615 191.609 39.1982 192.21 39.1982C192.401 39.1982 192.584 39.1762 192.76 39.1322C192.951 39.0882 193.112 38.9488 193.244 38.7142C193.376 38.4795 193.442 38.0982 193.442 37.5702C193.442 37.0568 193.376 36.6902 193.244 36.4702C193.112 36.2502 192.951 36.1182 192.76 36.0742C192.584 36.0302 192.408 36.0082 192.232 36.0082C192.041 36.0082 191.887 35.9935 191.77 35.9642C191.653 35.9348 191.557 35.8762 191.484 35.7882C191.425 35.7002 191.381 35.5828 191.352 35.4362C191.337 35.2748 191.33 35.0768 191.33 34.8422V24.8322C191.33 24.5388 191.301 24.2675 191.242 24.0182C191.183 23.7688 191.037 23.5635 190.802 23.4022C190.582 23.2408 190.208 23.1602 189.68 23.1602C189.152 23.1602 188.771 23.2408 188.536 23.4022C188.301 23.5635 188.155 23.7688 188.096 24.0182C188.052 24.2675 188.03 24.5388 188.03 24.8322V34.9962C188.03 35.7148 188.074 36.3235 188.162 36.8222C188.265 37.3062 188.419 37.7022 188.624 38.0102C188.829 38.3182 189.093 38.5602 189.416 38.7362C189.753 38.9122 190.149 39.0295 190.604 39.0882Z" fill="#242424"></path><path d="M114.228 39.1982C113.686 39.1982 113.297 39.1248 113.062 38.9782C112.842 38.8168 112.703 38.6115 112.644 38.3622C112.6 38.0982 112.578 37.8268 112.578 37.5482V29.8702C112.578 29.5768 112.6 29.3055 112.644 29.0562C112.703 28.8068 112.85 28.6088 113.084 28.4622C113.319 28.3008 113.708 28.2202 114.25 28.2202C114.778 28.2202 115.152 28.3008 115.372 28.4622C115.607 28.6235 115.746 28.8288 115.79 29.0782C115.849 29.3275 115.878 29.6062 115.878 29.9142V37.5702C115.878 37.8488 115.849 38.1202 115.79 38.3842C115.746 38.6335 115.607 38.8315 115.372 38.9782C115.152 39.1248 114.771 39.1982 114.228 39.1982Z" fill="#3452EF"></path><path d="M114.228 39.1982C113.686 39.1982 113.297 39.1248 113.062 38.9782C112.842 38.8168 112.703 38.6115 112.644 38.3622C112.6 38.0982 112.578 37.8268 112.578 37.5482V29.8702C112.578 29.5768 112.6 29.3055 112.644 29.0562C112.703 28.8068 112.85 28.6088 113.084 28.4622C113.319 28.3008 113.708 28.2202 114.25 28.2202C114.778 28.2202 115.152 28.3008 115.372 28.4622C115.607 28.6235 115.746 28.8288 115.79 29.0782C115.849 29.3275 115.878 29.6062 115.878 29.9142V37.5702C115.878 37.8488 115.849 38.1202 115.79 38.3842C115.746 38.6335 115.607 38.8315 115.372 38.9782C115.152 39.1248 114.771 39.1982 114.228 39.1982Z" fill="#242424"></path><path d="M114.228 26.6142C113.671 26.6142 113.275 26.5335 113.04 26.3722C112.806 26.2108 112.659 25.9982 112.6 25.7342C112.556 25.4702 112.534 25.1915 112.534 24.8982C112.534 24.5902 112.564 24.3115 112.622 24.0622C112.681 23.7982 112.828 23.5928 113.062 23.4462C113.297 23.2848 113.693 23.2042 114.25 23.2042C114.793 23.2042 115.182 23.2848 115.416 23.4462C115.651 23.6075 115.79 23.8202 115.834 24.0842C115.893 24.3482 115.922 24.6268 115.922 24.9202C115.922 25.2135 115.893 25.4922 115.834 25.7562C115.79 26.0202 115.651 26.2328 115.416 26.3942C115.182 26.5408 114.786 26.6142 114.228 26.6142Z" fill="#3452EF"></path><path d="M114.228 26.6142C113.671 26.6142 113.275 26.5335 113.04 26.3722C112.806 26.2108 112.659 25.9982 112.6 25.7342C112.556 25.4702 112.534 25.1915 112.534 24.8982C112.534 24.5902 112.564 24.3115 112.622 24.0622C112.681 23.7982 112.828 23.5928 113.062 23.4462C113.297 23.2848 113.693 23.2042 114.25 23.2042C114.793 23.2042 115.182 23.2848 115.416 23.4462C115.651 23.6075 115.79 23.8202 115.834 24.0842C115.893 24.3482 115.922 24.6268 115.922 24.9202C115.922 25.2135 115.893 25.4922 115.834 25.7562C115.79 26.0202 115.651 26.2328 115.416 26.3942C115.182 26.5408 114.786 26.6142 114.228 26.6142Z" fill="#242424"></path><path d="M108.946 39.1982C108.403 39.1982 108.015 39.1175 107.78 38.9562C107.56 38.7948 107.421 38.5822 107.362 38.3182C107.303 38.0542 107.274 37.7828 107.274 37.5042V32.9062H101.29V37.5262C101.29 37.8048 101.261 38.0762 101.202 38.3402C101.158 38.5895 101.019 38.7948 100.784 38.9562C100.549 39.1175 100.161 39.1982 99.618 39.1982C99.0753 39.1982 98.6867 39.1175 98.452 38.9562C98.2173 38.7948 98.0707 38.5822 98.012 38.3182C97.968 38.0542 97.946 37.7828 97.946 37.5042V25.4922C97.946 25.1988 97.9753 24.9275 98.034 24.6782C98.0927 24.4288 98.232 24.2235 98.452 24.0622C98.6867 23.9008 99.0827 23.8202 99.64 23.8202C100.183 23.8202 100.564 23.9008 100.784 24.0622C101.019 24.2235 101.158 24.4288 101.202 24.6782C101.261 24.9275 101.29 25.2062 101.29 25.5142V30.0022H107.274V25.4922C107.274 25.1988 107.303 24.9275 107.362 24.6782C107.421 24.4288 107.567 24.2235 107.802 24.0622C108.037 23.9008 108.425 23.8202 108.968 23.8202C109.511 23.8202 109.892 23.9008 110.112 24.0622C110.347 24.2235 110.486 24.4288 110.53 24.6782C110.589 24.9275 110.618 25.2062 110.618 25.5142V37.5262C110.618 37.8048 110.589 38.0762 110.53 38.3402C110.486 38.5895 110.347 38.7948 110.112 38.9562C109.877 39.1175 109.489 39.1982 108.946 39.1982Z" fill="#3452EF"></path><path d="M108.946 39.1982C108.403 39.1982 108.015 39.1175 107.78 38.9562C107.56 38.7948 107.421 38.5822 107.362 38.3182C107.303 38.0542 107.274 37.7828 107.274 37.5042V32.9062H101.29V37.5262C101.29 37.8048 101.261 38.0762 101.202 38.3402C101.158 38.5895 101.019 38.7948 100.784 38.9562C100.549 39.1175 100.161 39.1982 99.618 39.1982C99.0753 39.1982 98.6867 39.1175 98.452 38.9562C98.2173 38.7948 98.0707 38.5822 98.012 38.3182C97.968 38.0542 97.946 37.7828 97.946 37.5042V25.4922C97.946 25.1988 97.9753 24.9275 98.034 24.6782C98.0927 24.4288 98.232 24.2235 98.452 24.0622C98.6867 23.9008 99.0827 23.8202 99.64 23.8202C100.183 23.8202 100.564 23.9008 100.784 24.0622C101.019 24.2235 101.158 24.4288 101.202 24.6782C101.261 24.9275 101.29 25.2062 101.29 25.5142V30.0022H107.274V25.4922C107.274 25.1988 107.303 24.9275 107.362 24.6782C107.421 24.4288 107.567 24.2235 107.802 24.0622C108.037 23.9008 108.425 23.8202 108.968 23.8202C109.511 23.8202 109.892 23.9008 110.112 24.0622C110.347 24.2235 110.486 24.4288 110.53 24.6782C110.589 24.9275 110.618 25.2062 110.618 25.5142V37.5262C110.618 37.8048 110.589 38.0762 110.53 38.3402C110.486 38.5895 110.347 38.7948 110.112 38.9562C109.877 39.1175 109.489 39.1982 108.946 39.1982Z" fill="#242424"></path><path fill-rule="evenodd" clip-rule="evenodd" d="M121.207 43.5322C121.72 43.6642 122.233 43.7302 122.747 43.7302C123.421 43.7302 124.074 43.6128 124.705 43.3782C125.335 43.1435 125.907 42.7988 126.421 42.3442C126.934 41.9042 127.345 41.3542 127.653 40.6942C127.961 40.0488 128.115 39.3082 128.115 38.4722V29.7822C128.115 29.5035 128.085 29.2395 128.027 28.9902C127.983 28.7408 127.851 28.5428 127.631 28.3962C127.425 28.2348 127.059 28.1542 126.531 28.1542C126.003 28.1542 125.607 28.2422 125.343 28.4182C125.093 28.5795 124.947 28.8508 124.903 29.2322V29.412C124.655 29.0756 124.355 28.8103 124.001 28.6162C123.546 28.3522 122.996 28.2202 122.351 28.2202C121.691 28.2202 121.06 28.3668 120.459 28.6602C119.872 28.9388 119.344 29.3275 118.875 29.8262C118.42 30.3102 118.061 30.8748 117.797 31.5202C117.533 32.1508 117.401 32.8255 117.401 33.5442C117.401 34.2628 117.533 34.9448 117.797 35.5902C118.061 36.2355 118.42 36.8075 118.875 37.3062C119.344 37.8048 119.872 38.2008 120.459 38.4942C121.06 38.7728 121.691 38.9122 122.351 38.9122C123.216 38.9122 123.913 38.6995 124.441 38.2742C124.61 38.1333 124.764 37.9744 124.903 37.7975V38.3402C124.903 38.6922 124.851 39.0075 124.749 39.2862C124.646 39.5795 124.499 39.8288 124.309 40.0342C124.118 40.2542 123.898 40.4155 123.649 40.5182C123.399 40.6355 123.121 40.6942 122.813 40.6942C122.387 40.6942 122.035 40.6355 121.757 40.5182C121.478 40.4155 121.243 40.2982 121.053 40.1662C120.877 40.0342 120.708 39.9095 120.547 39.7922C120.385 39.6895 120.202 39.6382 119.997 39.6382C119.791 39.6382 119.615 39.6968 119.469 39.8142C119.322 39.9315 119.146 40.1002 118.941 40.3202C118.765 40.5108 118.633 40.7015 118.545 40.8922C118.457 41.0975 118.413 41.3175 118.413 41.5522C118.413 41.8015 118.537 42.0508 118.787 42.3002C119.036 42.5495 119.373 42.7842 119.799 43.0042C120.224 43.2242 120.693 43.4002 121.207 43.5322ZM123.781 35.4362C123.473 35.6268 123.128 35.7222 122.747 35.7222C122.351 35.7222 121.991 35.6268 121.669 35.4362C121.361 35.2308 121.111 34.9668 120.921 34.6442C120.73 34.3215 120.635 33.9622 120.635 33.5662C120.635 33.1555 120.723 32.7888 120.899 32.4662C121.089 32.1288 121.339 31.8648 121.647 31.6742C121.955 31.4835 122.307 31.3882 122.703 31.3882C123.099 31.3882 123.451 31.4835 123.759 31.6742C124.081 31.8648 124.331 32.1215 124.507 32.4442C124.697 32.7668 124.793 33.1335 124.793 33.5442C124.793 33.9548 124.697 34.3215 124.507 34.6442C124.331 34.9668 124.089 35.2308 123.781 35.4362Z" fill="#3452EF"></path><path fill-rule="evenodd" clip-rule="evenodd" d="M121.207 43.5322C121.72 43.6642 122.233 43.7302 122.747 43.7302C123.421 43.7302 124.074 43.6128 124.705 43.3782C125.335 43.1435 125.907 42.7988 126.421 42.3442C126.934 41.9042 127.345 41.3542 127.653 40.6942C127.961 40.0488 128.115 39.3082 128.115 38.4722V29.7822C128.115 29.5035 128.085 29.2395 128.027 28.9902C127.983 28.7408 127.851 28.5428 127.631 28.3962C127.425 28.2348 127.059 28.1542 126.531 28.1542C126.003 28.1542 125.607 28.2422 125.343 28.4182C125.093 28.5795 124.947 28.8508 124.903 29.2322V29.412C124.655 29.0756 124.355 28.8103 124.001 28.6162C123.546 28.3522 122.996 28.2202 122.351 28.2202C121.691 28.2202 121.06 28.3668 120.459 28.6602C119.872 28.9388 119.344 29.3275 118.875 29.8262C118.42 30.3102 118.061 30.8748 117.797 31.5202C117.533 32.1508 117.401 32.8255 117.401 33.5442C117.401 34.2628 117.533 34.9448 117.797 35.5902C118.061 36.2355 118.42 36.8075 118.875 37.3062C119.344 37.8048 119.872 38.2008 120.459 38.4942C121.06 38.7728 121.691 38.9122 122.351 38.9122C123.216 38.9122 123.913 38.6995 124.441 38.2742C124.61 38.1333 124.764 37.9744 124.903 37.7975V38.3402C124.903 38.6922 124.851 39.0075 124.749 39.2862C124.646 39.5795 124.499 39.8288 124.309 40.0342C124.118 40.2542 123.898 40.4155 123.649 40.5182C123.399 40.6355 123.121 40.6942 122.813 40.6942C122.387 40.6942 122.035 40.6355 121.757 40.5182C121.478 40.4155 121.243 40.2982 121.053 40.1662C120.877 40.0342 120.708 39.9095 120.547 39.7922C120.385 39.6895 120.202 39.6382 119.997 39.6382C119.791 39.6382 119.615 39.6968 119.469 39.8142C119.322 39.9315 119.146 40.1002 118.941 40.3202C118.765 40.5108 118.633 40.7015 118.545 40.8922C118.457 41.0975 118.413 41.3175 118.413 41.5522C118.413 41.8015 118.537 42.0508 118.787 42.3002C119.036 42.5495 119.373 42.7842 119.799 43.0042C120.224 43.2242 120.693 43.4002 121.207 43.5322ZM123.781 35.4362C123.473 35.6268 123.128 35.7222 122.747 35.7222C122.351 35.7222 121.991 35.6268 121.669 35.4362C121.361 35.2308 121.111 34.9668 120.921 34.6442C120.73 34.3215 120.635 33.9622 120.635 33.5662C120.635 33.1555 120.723 32.7888 120.899 32.4662C121.089 32.1288 121.339 31.8648 121.647 31.6742C121.955 31.4835 122.307 31.3882 122.703 31.3882C123.099 31.3882 123.451 31.4835 123.759 31.6742C124.081 31.8648 124.331 32.1215 124.507 32.4442C124.697 32.7668 124.793 33.1335 124.793 33.5442C124.793 33.9548 124.697 34.3215 124.507 34.6442C124.331 34.9668 124.089 35.2308 123.781 35.4362Z" fill="#242424"></path><path d="M131.497 39.1982C130.969 39.1982 130.588 39.1248 130.353 38.9782C130.119 38.8168 129.972 38.6115 129.913 38.3622C129.869 38.0982 129.847 37.8195 129.847 37.5262V24.8542C129.847 24.5608 129.877 24.2895 129.935 24.0402C129.994 23.7908 130.141 23.5928 130.375 23.4462C130.61 23.2848 130.991 23.2042 131.519 23.2042C132.062 23.2042 132.443 23.2848 132.663 23.4462C132.898 23.6075 133.037 23.8128 133.081 24.0622C133.14 24.3115 133.169 24.5828 133.169 24.8762V29.3642C133.433 29.0855 133.771 28.8215 134.181 28.5722C134.607 28.3228 135.105 28.1982 135.677 28.1982C136.587 28.1982 137.401 28.4328 138.119 28.9022C138.853 29.3568 139.432 29.9875 139.857 30.7942C140.297 31.6008 140.517 32.5248 140.517 33.5662V37.5482C140.517 37.8415 140.488 38.1128 140.429 38.3622C140.371 38.6115 140.231 38.8168 140.011 38.9782C139.791 39.1248 139.403 39.1982 138.845 39.1982C138.332 39.1982 137.951 39.1248 137.701 38.9782C137.467 38.8168 137.32 38.6115 137.261 38.3622C137.217 38.0982 137.195 37.8195 137.195 37.5262V33.5442C137.195 33.1188 137.122 32.7595 136.975 32.4662C136.829 32.1582 136.609 31.9162 136.315 31.7402C136.037 31.5642 135.692 31.4762 135.281 31.4762C134.739 31.4762 134.262 31.6448 133.851 31.9822C133.455 32.3048 133.228 32.7008 133.169 33.1702V37.5482C133.169 37.8415 133.14 38.1128 133.081 38.3622C133.023 38.6115 132.876 38.8168 132.641 38.9782C132.421 39.1248 132.04 39.1982 131.497 39.1982Z" fill="#3452EF"></path><path d="M131.497 39.1982C130.969 39.1982 130.588 39.1248 130.353 38.9782C130.119 38.8168 129.972 38.6115 129.913 38.3622C129.869 38.0982 129.847 37.8195 129.847 37.5262V24.8542C129.847 24.5608 129.877 24.2895 129.935 24.0402C129.994 23.7908 130.141 23.5928 130.375 23.4462C130.61 23.2848 130.991 23.2042 131.519 23.2042C132.062 23.2042 132.443 23.2848 132.663 23.4462C132.898 23.6075 133.037 23.8128 133.081 24.0622C133.14 24.3115 133.169 24.5828 133.169 24.8762V29.3642C133.433 29.0855 133.771 28.8215 134.181 28.5722C134.607 28.3228 135.105 28.1982 135.677 28.1982C136.587 28.1982 137.401 28.4328 138.119 28.9022C138.853 29.3568 139.432 29.9875 139.857 30.7942C140.297 31.6008 140.517 32.5248 140.517 33.5662V37.5482C140.517 37.8415 140.488 38.1128 140.429 38.3622C140.371 38.6115 140.231 38.8168 140.011 38.9782C139.791 39.1248 139.403 39.1982 138.845 39.1982C138.332 39.1982 137.951 39.1248 137.701 38.9782C137.467 38.8168 137.32 38.6115 137.261 38.3622C137.217 38.0982 137.195 37.8195 137.195 37.5262V33.5442C137.195 33.1188 137.122 32.7595 136.975 32.4662C136.829 32.1582 136.609 31.9162 136.315 31.7402C136.037 31.5642 135.692 31.4762 135.281 31.4762C134.739 31.4762 134.262 31.6448 133.851 31.9822C133.455 32.3048 133.228 32.7008 133.169 33.1702V37.5482C133.169 37.8415 133.14 38.1128 133.081 38.3622C133.023 38.6115 132.876 38.8168 132.641 38.9782C132.421 39.1248 132.04 39.1982 131.497 39.1982Z" fill="#242424"></path><path d="M142.249 34.8202C142.469 34.8642 142.682 34.8862 142.887 34.8862H148.057C148.292 34.8862 148.519 34.8642 148.739 34.8202C148.959 34.7615 149.135 34.6295 149.267 34.4242C149.414 34.2042 149.487 33.8448 149.487 33.3462C149.487 32.8622 149.414 32.5175 149.267 32.3122C149.12 32.0922 148.937 31.9602 148.717 31.9162C148.497 31.8575 148.277 31.8282 148.057 31.8282H142.909C142.704 31.8282 142.491 31.8575 142.271 31.9162C142.051 31.9602 141.86 32.0848 141.699 32.2902C141.552 32.4955 141.479 32.8475 141.479 33.3462C141.479 33.8448 141.552 34.2042 141.699 34.4242C141.846 34.6295 142.029 34.7615 142.249 34.8202Z" fill="#3452EF"></path><path d="M142.249 34.8202C142.469 34.8642 142.682 34.8862 142.887 34.8862H148.057C148.292 34.8862 148.519 34.8642 148.739 34.8202C148.959 34.7615 149.135 34.6295 149.267 34.4242C149.414 34.2042 149.487 33.8448 149.487 33.3462C149.487 32.8622 149.414 32.5175 149.267 32.3122C149.12 32.0922 148.937 31.9602 148.717 31.9162C148.497 31.8575 148.277 31.8282 148.057 31.8282H142.909C142.704 31.8282 142.491 31.8575 142.271 31.9162C142.051 31.9602 141.86 32.0848 141.699 32.2902C141.552 32.4955 141.479 32.8475 141.479 33.3462C141.479 33.8448 141.552 34.2042 141.699 34.4242C141.846 34.6295 142.029 34.7615 142.249 34.8202Z" fill="#242424"></path><path fill-rule="evenodd" clip-rule="evenodd" d="M155.694 39.0002C155.034 39.0002 154.403 38.8682 153.802 38.6042C153.2 38.3255 152.665 37.9442 152.196 37.4602C151.726 36.9762 151.352 36.4115 151.074 35.7662C150.81 35.1062 150.678 34.4095 150.678 33.6762C150.678 32.9428 150.81 32.2462 151.074 31.5862C151.352 30.9262 151.726 30.3468 152.196 29.8482C152.665 29.3348 153.2 28.9315 153.802 28.6382C154.418 28.3448 155.048 28.1982 155.694 28.1982C156.412 28.1982 157.036 28.3448 157.564 28.6382C157.828 28.7741 158.07 28.9379 158.29 29.1296V29.0122C158.363 28.8215 158.473 28.6675 158.62 28.5502C158.766 28.4328 158.95 28.3448 159.17 28.2862C159.404 28.2275 159.668 28.1982 159.962 28.1982C160.49 28.1982 160.864 28.2788 161.084 28.4402C161.318 28.6015 161.458 28.8068 161.502 29.0562C161.546 29.2908 161.568 29.5548 161.568 29.8482V42.1462C161.568 42.4248 161.538 42.6815 161.48 42.9162C161.436 43.1655 161.296 43.3635 161.062 43.5102C160.842 43.6715 160.468 43.7522 159.94 43.7522C159.412 43.7522 159.03 43.6715 158.796 43.5102C158.561 43.3635 158.414 43.1655 158.356 42.9162C158.297 42.6668 158.275 42.4028 158.29 42.1242V38.1222C158.082 38.2953 157.855 38.4486 157.608 38.5822C157.065 38.8608 156.427 39.0002 155.694 39.0002ZM156.156 35.8982C156.537 35.8982 156.889 35.8028 157.212 35.6122C157.534 35.4068 157.791 35.1355 157.982 34.7982C158.172 34.4608 158.268 34.0868 158.268 33.6762C158.268 33.2655 158.172 32.8988 157.982 32.5762C157.806 32.2388 157.556 31.9748 157.234 31.7842C156.911 31.5788 156.544 31.4762 156.134 31.4762C155.738 31.4762 155.371 31.5715 155.034 31.7622C154.711 31.9528 154.454 32.2168 154.264 32.5542C154.073 32.8915 153.978 33.2655 153.978 33.6762C153.978 34.0868 154.073 34.4608 154.264 34.7982C154.469 35.1355 154.733 35.4068 155.056 35.6122C155.393 35.8028 155.76 35.8982 156.156 35.8982Z" fill="#3452EF"></path><path fill-rule="evenodd" clip-rule="evenodd" d="M155.694 39.0002C155.034 39.0002 154.403 38.8682 153.802 38.6042C153.2 38.3255 152.665 37.9442 152.196 37.4602C151.726 36.9762 151.352 36.4115 151.074 35.7662C150.81 35.1062 150.678 34.4095 150.678 33.6762C150.678 32.9428 150.81 32.2462 151.074 31.5862C151.352 30.9262 151.726 30.3468 152.196 29.8482C152.665 29.3348 153.2 28.9315 153.802 28.6382C154.418 28.3448 155.048 28.1982 155.694 28.1982C156.412 28.1982 157.036 28.3448 157.564 28.6382C157.828 28.7741 158.07 28.9379 158.29 29.1296V29.0122C158.363 28.8215 158.473 28.6675 158.62 28.5502C158.766 28.4328 158.95 28.3448 159.17 28.2862C159.404 28.2275 159.668 28.1982 159.962 28.1982C160.49 28.1982 160.864 28.2788 161.084 28.4402C161.318 28.6015 161.458 28.8068 161.502 29.0562C161.546 29.2908 161.568 29.5548 161.568 29.8482V42.1462C161.568 42.4248 161.538 42.6815 161.48 42.9162C161.436 43.1655 161.296 43.3635 161.062 43.5102C160.842 43.6715 160.468 43.7522 159.94 43.7522C159.412 43.7522 159.03 43.6715 158.796 43.5102C158.561 43.3635 158.414 43.1655 158.356 42.9162C158.297 42.6668 158.275 42.4028 158.29 42.1242V38.1222C158.082 38.2953 157.855 38.4486 157.608 38.5822C157.065 38.8608 156.427 39.0002 155.694 39.0002ZM156.156 35.8982C156.537 35.8982 156.889 35.8028 157.212 35.6122C157.534 35.4068 157.791 35.1355 157.982 34.7982C158.172 34.4608 158.268 34.0868 158.268 33.6762C158.268 33.2655 158.172 32.8988 157.982 32.5762C157.806 32.2388 157.556 31.9748 157.234 31.7842C156.911 31.5788 156.544 31.4762 156.134 31.4762C155.738 31.4762 155.371 31.5715 155.034 31.7622C154.711 31.9528 154.454 32.2168 154.264 32.5542C154.073 32.8915 153.978 33.2655 153.978 33.6762C153.978 34.0868 154.073 34.4608 154.264 34.7982C154.469 35.1355 154.733 35.4068 155.056 35.6122C155.393 35.8028 155.76 35.8982 156.156 35.8982Z" fill="#242424"></path><path d="M166.095 38.7802C166.696 39.0442 167.334 39.1762 168.009 39.1762C168.434 39.1762 168.808 39.1102 169.131 38.9782C169.454 38.8462 169.732 38.6922 169.967 38.5162C170.216 38.3255 170.414 38.1495 170.561 37.9882L170.562 37.9868C170.565 38.0814 170.572 38.1845 170.583 38.2962C170.612 38.4428 170.678 38.5822 170.781 38.7142C170.884 38.8462 171.045 38.9562 171.265 39.0442C171.485 39.1322 171.793 39.1762 172.189 39.1762C172.717 39.1762 173.098 39.1028 173.333 38.9562C173.568 38.8095 173.707 38.6188 173.751 38.3842C173.81 38.1348 173.839 37.8708 173.839 37.5922V29.8482C173.839 29.5695 173.81 29.3055 173.751 29.0562C173.707 28.7922 173.568 28.5795 173.333 28.4182C173.113 28.2568 172.732 28.1762 172.189 28.1762C171.646 28.1762 171.258 28.2568 171.023 28.4182C170.803 28.5648 170.664 28.7628 170.605 29.0122C170.546 29.2615 170.517 29.5328 170.517 29.8262V33.8302C170.517 34.2555 170.429 34.6222 170.253 34.9302C170.092 35.2382 169.857 35.4802 169.549 35.6562C169.256 35.8175 168.896 35.8982 168.471 35.8982C168.06 35.8982 167.701 35.8175 167.393 35.6562C167.1 35.4948 166.872 35.2602 166.711 34.9522C166.564 34.6295 166.491 34.2555 166.491 33.8302V29.8702C166.491 29.5768 166.462 29.3055 166.403 29.0562C166.359 28.7922 166.22 28.5795 165.985 28.4182C165.765 28.2568 165.384 28.1762 164.841 28.1762C164.298 28.1762 163.91 28.2568 163.675 28.4182C163.455 28.5795 163.316 28.7848 163.257 29.0342C163.198 29.2835 163.169 29.5548 163.169 29.8482V33.8302C163.169 34.6075 163.286 35.3262 163.521 35.9862C163.77 36.6315 164.115 37.1962 164.555 37.6802C164.995 38.1495 165.508 38.5162 166.095 38.7802Z" fill="#3452EF"></path><path d="M166.095 38.7802C166.696 39.0442 167.334 39.1762 168.009 39.1762C168.434 39.1762 168.808 39.1102 169.131 38.9782C169.454 38.8462 169.732 38.6922 169.967 38.5162C170.216 38.3255 170.414 38.1495 170.561 37.9882L170.562 37.9868C170.565 38.0814 170.572 38.1845 170.583 38.2962C170.612 38.4428 170.678 38.5822 170.781 38.7142C170.884 38.8462 171.045 38.9562 171.265 39.0442C171.485 39.1322 171.793 39.1762 172.189 39.1762C172.717 39.1762 173.098 39.1028 173.333 38.9562C173.568 38.8095 173.707 38.6188 173.751 38.3842C173.81 38.1348 173.839 37.8708 173.839 37.5922V29.8482C173.839 29.5695 173.81 29.3055 173.751 29.0562C173.707 28.7922 173.568 28.5795 173.333 28.4182C173.113 28.2568 172.732 28.1762 172.189 28.1762C171.646 28.1762 171.258 28.2568 171.023 28.4182C170.803 28.5648 170.664 28.7628 170.605 29.0122C170.546 29.2615 170.517 29.5328 170.517 29.8262V33.8302C170.517 34.2555 170.429 34.6222 170.253 34.9302C170.092 35.2382 169.857 35.4802 169.549 35.6562C169.256 35.8175 168.896 35.8982 168.471 35.8982C168.06 35.8982 167.701 35.8175 167.393 35.6562C167.1 35.4948 166.872 35.2602 166.711 34.9522C166.564 34.6295 166.491 34.2555 166.491 33.8302V29.8702C166.491 29.5768 166.462 29.3055 166.403 29.0562C166.359 28.7922 166.22 28.5795 165.985 28.4182C165.765 28.2568 165.384 28.1762 164.841 28.1762C164.298 28.1762 163.91 28.2568 163.675 28.4182C163.455 28.5795 163.316 28.7848 163.257 29.0342C163.198 29.2835 163.169 29.5548 163.169 29.8482V33.8302C163.169 34.6075 163.286 35.3262 163.521 35.9862C163.77 36.6315 164.115 37.1962 164.555 37.6802C164.995 38.1495 165.508 38.5162 166.095 38.7802Z" fill="#242424"></path><path fill-rule="evenodd" clip-rule="evenodd" d="M184.565 39.1762C184.023 39.1762 183.619 39.0808 183.355 38.8902C183.106 38.6995 182.981 38.4648 182.981 38.1862L183.201 37.8122C183.113 37.9588 182.945 38.1422 182.695 38.3622C182.446 38.5675 182.123 38.7582 181.727 38.9342C181.331 39.0955 180.84 39.1762 180.253 39.1762C179.579 39.1762 178.933 39.0295 178.317 38.7362C177.716 38.4428 177.181 38.0395 176.711 37.5262C176.242 36.9982 175.868 36.4042 175.589 35.7442C175.325 35.0842 175.193 34.3875 175.193 33.6542C175.193 32.9355 175.325 32.2535 175.589 31.6082C175.868 30.9482 176.242 30.3688 176.711 29.8702C177.195 29.3568 177.738 28.9535 178.339 28.6602C178.941 28.3668 179.579 28.2202 180.253 28.2202C180.796 28.2202 181.258 28.3008 181.639 28.4622C182.021 28.6088 182.336 28.7848 182.585 28.9902C182.849 29.1955 183.048 29.3935 183.179 29.5842L183.003 29.2762C182.989 28.9242 183.106 28.6602 183.355 28.4842C183.619 28.2935 184.03 28.1982 184.587 28.1982C185.115 28.1982 185.489 28.2788 185.709 28.4402C185.944 28.6015 186.083 28.8142 186.127 29.0782C186.186 29.3422 186.215 29.6208 186.215 29.9142V37.5042C186.215 37.7828 186.186 38.0542 186.127 38.3182C186.083 38.5822 185.944 38.7948 185.709 38.9562C185.489 39.1028 185.108 39.1762 184.565 39.1762ZM180.737 35.8982C181.119 35.8982 181.463 35.8028 181.771 35.6122C182.094 35.4068 182.343 35.1355 182.519 34.7982C182.71 34.4608 182.805 34.0868 182.805 33.6762C182.805 33.2508 182.71 32.8768 182.519 32.5542C182.329 32.2168 182.072 31.9528 181.749 31.7622C181.427 31.5568 181.075 31.4542 180.693 31.4542C180.268 31.4542 179.887 31.5568 179.549 31.7622C179.227 31.9675 178.963 32.2388 178.757 32.5762C178.567 32.9135 178.471 33.2948 178.471 33.7202C178.471 34.1162 178.567 34.4828 178.757 34.8202C178.963 35.1428 179.234 35.4068 179.571 35.6122C179.923 35.8028 180.312 35.8982 180.737 35.8982Z" fill="#3452EF"></path><path fill-rule="evenodd" clip-rule="evenodd" d="M184.565 39.1762C184.023 39.1762 183.619 39.0808 183.355 38.8902C183.106 38.6995 182.981 38.4648 182.981 38.1862L183.201 37.8122C183.113 37.9588 182.945 38.1422 182.695 38.3622C182.446 38.5675 182.123 38.7582 181.727 38.9342C181.331 39.0955 180.84 39.1762 180.253 39.1762C179.579 39.1762 178.933 39.0295 178.317 38.7362C177.716 38.4428 177.181 38.0395 176.711 37.5262C176.242 36.9982 175.868 36.4042 175.589 35.7442C175.325 35.0842 175.193 34.3875 175.193 33.6542C175.193 32.9355 175.325 32.2535 175.589 31.6082C175.868 30.9482 176.242 30.3688 176.711 29.8702C177.195 29.3568 177.738 28.9535 178.339 28.6602C178.941 28.3668 179.579 28.2202 180.253 28.2202C180.796 28.2202 181.258 28.3008 181.639 28.4622C182.021 28.6088 182.336 28.7848 182.585 28.9902C182.849 29.1955 183.048 29.3935 183.179 29.5842L183.003 29.2762C182.989 28.9242 183.106 28.6602 183.355 28.4842C183.619 28.2935 184.03 28.1982 184.587 28.1982C185.115 28.1982 185.489 28.2788 185.709 28.4402C185.944 28.6015 186.083 28.8142 186.127 29.0782C186.186 29.3422 186.215 29.6208 186.215 29.9142V37.5042C186.215 37.7828 186.186 38.0542 186.127 38.3182C186.083 38.5822 185.944 38.7948 185.709 38.9562C185.489 39.1028 185.108 39.1762 184.565 39.1762ZM180.737 35.8982C181.119 35.8982 181.463 35.8028 181.771 35.6122C182.094 35.4068 182.343 35.1355 182.519 34.7982C182.71 34.4608 182.805 34.0868 182.805 33.6762C182.805 33.2508 182.71 32.8768 182.519 32.5542C182.329 32.2168 182.072 31.9528 181.749 31.7622C181.427 31.5568 181.075 31.4542 180.693 31.4542C180.268 31.4542 179.887 31.5568 179.549 31.7622C179.227 31.9675 178.963 32.2388 178.757 32.5762C178.567 32.9135 178.471 33.2948 178.471 33.7202C178.471 34.1162 178.567 34.4828 178.757 34.8202C178.963 35.1428 179.234 35.4068 179.571 35.6122C179.923 35.8028 180.312 35.8982 180.737 35.8982Z" fill="#242424"></path><path d="M196.363 39.1982C195.821 39.1982 195.432 39.1248 195.197 38.9782C194.977 38.8168 194.838 38.6115 194.779 38.3622C194.735 38.0982 194.713 37.8268 194.713 37.5482V29.8702C194.713 29.5768 194.735 29.3055 194.779 29.0562C194.838 28.8068 194.984 28.6088 195.219 28.4622C195.454 28.3008 195.842 28.2202 196.385 28.2202C196.913 28.2202 197.287 28.3008 197.507 28.4622C197.742 28.6235 197.881 28.8288 197.925 29.0782C197.984 29.3275 198.013 29.6062 198.013 29.9142V37.5702C198.013 37.8488 197.984 38.1202 197.925 38.3842C197.881 38.6335 197.742 38.8315 197.507 38.9782C197.287 39.1248 196.906 39.1982 196.363 39.1982Z" fill="#3452EF"></path><path d="M196.363 39.1982C195.821 39.1982 195.432 39.1248 195.197 38.9782C194.977 38.8168 194.838 38.6115 194.779 38.3622C194.735 38.0982 194.713 37.8268 194.713 37.5482V29.8702C194.713 29.5768 194.735 29.3055 194.779 29.0562C194.838 28.8068 194.984 28.6088 195.219 28.4622C195.454 28.3008 195.842 28.2202 196.385 28.2202C196.913 28.2202 197.287 28.3008 197.507 28.4622C197.742 28.6235 197.881 28.8288 197.925 29.0782C197.984 29.3275 198.013 29.6062 198.013 29.9142V37.5702C198.013 37.8488 197.984 38.1202 197.925 38.3842C197.881 38.6335 197.742 38.8315 197.507 38.9782C197.287 39.1248 196.906 39.1982 196.363 39.1982Z" fill="#242424"></path><path d="M196.363 26.6142C195.806 26.6142 195.41 26.5335 195.175 26.3722C194.94 26.2108 194.794 25.9982 194.735 25.7342C194.691 25.4702 194.669 25.1915 194.669 24.8982C194.669 24.5902 194.698 24.3115 194.757 24.0622C194.816 23.7982 194.963 23.5928 195.197 23.4462C195.432 23.2848 195.828 23.2042 196.385 23.2042C196.928 23.2042 197.316 23.2848 197.551 23.4462C197.786 23.6075 197.925 23.8202 197.969 24.0842C198.028 24.3482 198.057 24.6268 198.057 24.9202C198.057 25.2135 198.028 25.4922 197.969 25.7562C197.925 26.0202 197.786 26.2328 197.551 26.3942C197.316 26.5408 196.921 26.6142 196.363 26.6142Z" fill="#3452EF"></path><path d="M196.363 26.6142C195.806 26.6142 195.41 26.5335 195.175 26.3722C194.94 26.2108 194.794 25.9982 194.735 25.7342C194.691 25.4702 194.669 25.1915 194.669 24.8982C194.669 24.5902 194.698 24.3115 194.757 24.0622C194.816 23.7982 194.963 23.5928 195.197 23.4462C195.432 23.2848 195.828 23.2042 196.385 23.2042C196.928 23.2042 197.316 23.2848 197.551 23.4462C197.786 23.6075 197.925 23.8202 197.969 24.0842C198.028 24.3482 198.057 24.6268 198.057 24.9202C198.057 25.2135 198.028 25.4922 197.969 25.7562C197.925 26.0202 197.786 26.2328 197.551 26.3942C197.316 26.5408 196.921 26.6142 196.363 26.6142Z" fill="#242424"></path><path d="M203.499 38.9562C204.042 39.1175 204.687 39.1982 205.435 39.1982C205.714 39.1982 205.978 39.1762 206.227 39.1322C206.491 39.0882 206.704 38.9488 206.865 38.7142C207.026 38.4795 207.107 38.0982 207.107 37.5702C207.107 37.0862 207.034 36.7415 206.887 36.5362C206.755 36.3308 206.564 36.1988 206.315 36.1402C206.066 36.0815 205.78 36.0522 205.457 36.0522C205.266 36.0522 205.105 36.0375 204.973 36.0082C204.841 35.9788 204.738 35.9275 204.665 35.8542C204.592 35.7808 204.533 35.6708 204.489 35.5242C204.46 35.3628 204.445 35.1648 204.445 34.9302V31.5744L205.919 31.6082C206.212 31.6082 206.484 31.5788 206.733 31.5202C206.982 31.4468 207.18 31.2928 207.327 31.0582C207.488 30.8235 207.569 30.4568 207.569 29.9582C207.569 29.4155 207.488 29.0268 207.327 28.7922C207.166 28.5575 206.96 28.4182 206.711 28.3742C206.462 28.3155 206.198 28.2862 205.919 28.2862L204.445 28.3289V26.1962C204.445 25.9028 204.416 25.6315 204.357 25.3822C204.313 25.1328 204.174 24.9275 203.939 24.7662C203.704 24.6048 203.323 24.5242 202.795 24.5242C202.267 24.5242 201.886 24.6048 201.651 24.7662C201.416 24.9128 201.27 25.1035 201.211 25.3382C201.167 25.5728 201.145 25.8368 201.145 26.1302V28.3742H200.463C200.052 28.3742 199.744 28.5062 199.539 28.7702C199.334 29.0195 199.231 29.4082 199.231 29.9362C199.231 30.5082 199.312 30.9188 199.473 31.1682C199.649 31.4028 199.95 31.5275 200.375 31.5422H201.145V35.0622C201.145 35.7808 201.226 36.4042 201.387 36.9322C201.563 37.4455 201.827 37.8708 202.179 38.2082C202.531 38.5455 202.971 38.7948 203.499 38.9562Z" fill="#3452EF"></path><path d="M203.499 38.9562C204.042 39.1175 204.687 39.1982 205.435 39.1982C205.714 39.1982 205.978 39.1762 206.227 39.1322C206.491 39.0882 206.704 38.9488 206.865 38.7142C207.026 38.4795 207.107 38.0982 207.107 37.5702C207.107 37.0862 207.034 36.7415 206.887 36.5362C206.755 36.3308 206.564 36.1988 206.315 36.1402C206.066 36.0815 205.78 36.0522 205.457 36.0522C205.266 36.0522 205.105 36.0375 204.973 36.0082C204.841 35.9788 204.738 35.9275 204.665 35.8542C204.592 35.7808 204.533 35.6708 204.489 35.5242C204.46 35.3628 204.445 35.1648 204.445 34.9302V31.5744L205.919 31.6082C206.212 31.6082 206.484 31.5788 206.733 31.5202C206.982 31.4468 207.18 31.2928 207.327 31.0582C207.488 30.8235 207.569 30.4568 207.569 29.9582C207.569 29.4155 207.488 29.0268 207.327 28.7922C207.166 28.5575 206.96 28.4182 206.711 28.3742C206.462 28.3155 206.198 28.2862 205.919 28.2862L204.445 28.3289V26.1962C204.445 25.9028 204.416 25.6315 204.357 25.3822C204.313 25.1328 204.174 24.9275 203.939 24.7662C203.704 24.6048 203.323 24.5242 202.795 24.5242C202.267 24.5242 201.886 24.6048 201.651 24.7662C201.416 24.9128 201.27 25.1035 201.211 25.3382C201.167 25.5728 201.145 25.8368 201.145 26.1302V28.3742H200.463C200.052 28.3742 199.744 28.5062 199.539 28.7702C199.334 29.0195 199.231 29.4082 199.231 29.9362C199.231 30.5082 199.312 30.9188 199.473 31.1682C199.649 31.4028 199.95 31.5275 200.375 31.5422H201.145V35.0622C201.145 35.7808 201.226 36.4042 201.387 36.9322C201.563 37.4455 201.827 37.8708 202.179 38.2082C202.531 38.5455 202.971 38.7948 203.499 38.9562Z" fill="#242424"></path><path d="M211.713 43.6422C211.112 43.3782 210.76 43.0848 210.657 42.7622C210.569 42.4395 210.65 42.0068 210.899 41.4642L212.79 37.2397L208.457 30.6402C208.135 30.1562 208.003 29.7528 208.061 29.4302C208.135 29.1075 208.428 28.7775 208.941 28.4402C209.513 28.0882 209.953 27.9562 210.261 28.0442C210.584 28.1175 210.907 28.4035 211.229 28.9022L214.369 33.7106L216.421 29.1222C216.671 28.5502 216.942 28.2128 217.235 28.1102C217.543 27.9928 217.998 28.0515 218.599 28.2862C219.186 28.5648 219.523 28.8582 219.611 29.1662C219.714 29.4742 219.648 29.8848 219.413 30.3982L213.869 42.8282C213.62 43.4002 213.349 43.7448 213.055 43.8622C212.762 43.9795 212.315 43.9062 211.713 43.6422Z" fill="#3452EF"></path><path d="M211.713 43.6422C211.112 43.3782 210.76 43.0848 210.657 42.7622C210.569 42.4395 210.65 42.0068 210.899 41.4642L212.79 37.2397L208.457 30.6402C208.135 30.1562 208.003 29.7528 208.061 29.4302C208.135 29.1075 208.428 28.7775 208.941 28.4402C209.513 28.0882 209.953 27.9562 210.261 28.0442C210.584 28.1175 210.907 28.4035 211.229 28.9022L214.369 33.7106L216.421 29.1222C216.671 28.5502 216.942 28.2128 217.235 28.1102C217.543 27.9928 217.998 28.0515 218.599 28.2862C219.186 28.5648 219.523 28.8582 219.611 29.1662C219.714 29.4742 219.648 29.8848 219.413 30.3982L213.869 42.8282C213.62 43.4002 213.349 43.7448 213.055 43.8622C212.762 43.9795 212.315 43.9062 211.713 43.6422Z" fill="#242424"></path><path d="M100.916 63.1322C101.503 63.3228 102.185 63.4182 102.962 63.4182C103.578 63.4182 104.209 63.3228 104.854 63.1322C105.499 62.9562 106.101 62.6702 106.658 62.2742C107.215 61.8782 107.663 61.3648 108 60.7342C108.337 60.1035 108.506 59.3482 108.506 58.4682C108.506 57.7642 108.403 57.1702 108.198 56.6862C108.007 56.2022 107.751 55.7988 107.428 55.4762C107.105 55.1535 106.739 54.8895 106.328 54.6842C105.917 54.4642 105.492 54.2808 105.052 54.1342C104.568 53.9875 104.091 53.8628 103.622 53.7602C103.167 53.6428 102.749 53.5255 102.368 53.4082C102.001 53.2762 101.701 53.1075 101.466 52.9022C101.246 52.6968 101.136 52.4255 101.136 52.0882C101.136 51.8828 101.18 51.6995 101.268 51.5382C101.356 51.3622 101.473 51.2155 101.62 51.0982C101.767 50.9808 101.943 50.8928 102.148 50.8342C102.353 50.7608 102.573 50.7242 102.808 50.7242C103.204 50.7242 103.519 50.7682 103.754 50.8562C104.003 50.9295 104.216 51.0322 104.392 51.1642C104.568 51.2962 104.744 51.4428 104.92 51.6042C105.375 51.9122 105.778 52.0368 106.13 51.9782C106.497 51.9195 106.863 51.6335 107.23 51.1202C107.582 50.6362 107.736 50.2622 107.692 49.9982C107.648 49.7195 107.421 49.3895 107.01 49.0082C106.937 48.9202 106.797 48.8028 106.592 48.6562C106.401 48.4948 106.137 48.3335 105.8 48.1722C105.463 48.0108 105.045 47.8715 104.546 47.7542C104.062 47.6368 103.49 47.5782 102.83 47.5782C101.847 47.5782 100.975 47.7762 100.212 48.1722C99.464 48.5535 98.8773 49.0815 98.452 49.7562C98.0267 50.4308 97.814 51.2008 97.814 52.0662C97.814 52.5795 97.8653 53.0342 97.968 53.4302C98.0853 53.8262 98.2393 54.1782 98.43 54.4862C98.6353 54.7942 98.8773 55.0582 99.156 55.2782C99.4347 55.4982 99.728 55.6962 100.036 55.8722C100.344 56.0482 100.667 56.1948 101.004 56.3122C101.488 56.5028 101.972 56.6715 102.456 56.8182C102.955 56.9502 103.402 57.0895 103.798 57.2362C104.209 57.3828 104.531 57.5588 104.766 57.7642C105.015 57.9548 105.14 58.2115 105.14 58.5342C105.14 58.9302 105.052 59.2602 104.876 59.5242C104.7 59.7735 104.443 59.9568 104.106 60.0742C103.769 60.1915 103.358 60.2502 102.874 60.2502C102.493 60.2502 102.126 60.1695 101.774 60.0082C101.437 59.8322 101.092 59.5315 100.74 59.1062C100.491 58.8128 100.234 58.5855 99.97 58.4242C99.706 58.2628 99.4347 58.1968 99.156 58.2262C98.892 58.2408 98.606 58.3802 98.298 58.6442C97.99 58.9375 97.77 59.2088 97.638 59.4582C97.5207 59.7075 97.4913 59.9568 97.55 60.2062C97.6087 60.4408 97.7627 60.7195 98.012 61.0422C98.1 61.1742 98.2613 61.3722 98.496 61.6362C98.7307 61.9002 99.046 62.1715 99.442 62.4502C99.8527 62.7142 100.344 62.9415 100.916 63.1322Z" fill="#3452EF"></path><path d="M100.916 63.1322C101.503 63.3228 102.185 63.4182 102.962 63.4182C103.578 63.4182 104.209 63.3228 104.854 63.1322C105.499 62.9562 106.101 62.6702 106.658 62.2742C107.215 61.8782 107.663 61.3648 108 60.7342C108.337 60.1035 108.506 59.3482 108.506 58.4682C108.506 57.7642 108.403 57.1702 108.198 56.6862C108.007 56.2022 107.751 55.7988 107.428 55.4762C107.105 55.1535 106.739 54.8895 106.328 54.6842C105.917 54.4642 105.492 54.2808 105.052 54.1342C104.568 53.9875 104.091 53.8628 103.622 53.7602C103.167 53.6428 102.749 53.5255 102.368 53.4082C102.001 53.2762 101.701 53.1075 101.466 52.9022C101.246 52.6968 101.136 52.4255 101.136 52.0882C101.136 51.8828 101.18 51.6995 101.268 51.5382C101.356 51.3622 101.473 51.2155 101.62 51.0982C101.767 50.9808 101.943 50.8928 102.148 50.8342C102.353 50.7608 102.573 50.7242 102.808 50.7242C103.204 50.7242 103.519 50.7682 103.754 50.8562C104.003 50.9295 104.216 51.0322 104.392 51.1642C104.568 51.2962 104.744 51.4428 104.92 51.6042C105.375 51.9122 105.778 52.0368 106.13 51.9782C106.497 51.9195 106.863 51.6335 107.23 51.1202C107.582 50.6362 107.736 50.2622 107.692 49.9982C107.648 49.7195 107.421 49.3895 107.01 49.0082C106.937 48.9202 106.797 48.8028 106.592 48.6562C106.401 48.4948 106.137 48.3335 105.8 48.1722C105.463 48.0108 105.045 47.8715 104.546 47.7542C104.062 47.6368 103.49 47.5782 102.83 47.5782C101.847 47.5782 100.975 47.7762 100.212 48.1722C99.464 48.5535 98.8773 49.0815 98.452 49.7562C98.0267 50.4308 97.814 51.2008 97.814 52.0662C97.814 52.5795 97.8653 53.0342 97.968 53.4302C98.0853 53.8262 98.2393 54.1782 98.43 54.4862C98.6353 54.7942 98.8773 55.0582 99.156 55.2782C99.4347 55.4982 99.728 55.6962 100.036 55.8722C100.344 56.0482 100.667 56.1948 101.004 56.3122C101.488 56.5028 101.972 56.6715 102.456 56.8182C102.955 56.9502 103.402 57.0895 103.798 57.2362C104.209 57.3828 104.531 57.5588 104.766 57.7642C105.015 57.9548 105.14 58.2115 105.14 58.5342C105.14 58.9302 105.052 59.2602 104.876 59.5242C104.7 59.7735 104.443 59.9568 104.106 60.0742C103.769 60.1915 103.358 60.2502 102.874 60.2502C102.493 60.2502 102.126 60.1695 101.774 60.0082C101.437 59.8322 101.092 59.5315 100.74 59.1062C100.491 58.8128 100.234 58.5855 99.97 58.4242C99.706 58.2628 99.4347 58.1968 99.156 58.2262C98.892 58.2408 98.606 58.3802 98.298 58.6442C97.99 58.9375 97.77 59.2088 97.638 59.4582C97.5207 59.7075 97.4913 59.9568 97.55 60.2062C97.6087 60.4408 97.7627 60.7195 98.012 61.0422C98.1 61.1742 98.2613 61.3722 98.496 61.6362C98.7307 61.9002 99.046 62.1715 99.442 62.4502C99.8527 62.7142 100.344 62.9415 100.916 63.1322Z" fill="#242424"></path><path d="M114.642 63.1762C113.967 63.1762 113.329 63.0442 112.728 62.7802C112.141 62.5162 111.628 62.1495 111.188 61.6802C110.748 61.1962 110.403 60.6315 110.154 59.9862C109.919 59.3262 109.802 58.6075 109.802 57.8302V53.8482C109.802 53.5548 109.831 53.2835 109.89 53.0342C109.948 52.7848 110.088 52.5795 110.308 52.4182C110.542 52.2568 110.931 52.1762 111.474 52.1762C112.016 52.1762 112.398 52.2568 112.618 52.4182C112.852 52.5795 112.992 52.7922 113.036 53.0562C113.094 53.3055 113.124 53.5768 113.124 53.8702V57.8302C113.124 58.2555 113.197 58.6295 113.344 58.9522C113.505 59.2602 113.732 59.4948 114.026 59.6562C114.334 59.8175 114.693 59.8982 115.104 59.8982C115.529 59.8982 115.888 59.8175 116.182 59.6562C116.49 59.4802 116.724 59.2382 116.886 58.9302C117.062 58.6222 117.15 58.2555 117.15 57.8302V53.8262C117.15 53.5328 117.179 53.2615 117.238 53.0122C117.296 52.7628 117.436 52.5648 117.656 52.4182C117.89 52.2568 118.279 52.1762 118.822 52.1762C119.364 52.1762 119.746 52.2568 119.966 52.4182C120.2 52.5795 120.34 52.7922 120.384 53.0562C120.442 53.3055 120.472 53.5695 120.472 53.8482V61.5922C120.472 61.8708 120.442 62.1348 120.384 62.3842C120.34 62.6188 120.2 62.8095 119.966 62.9562C119.731 63.1028 119.35 63.1762 118.822 63.1762C118.426 63.1762 118.118 63.1322 117.898 63.0442C117.678 62.9562 117.516 62.8462 117.414 62.7142C117.311 62.5822 117.245 62.4428 117.216 62.2962C117.205 62.1845 117.198 62.0814 117.195 61.9868L117.194 61.9882C117.047 62.1495 116.849 62.3255 116.6 62.5162C116.365 62.6922 116.086 62.8462 115.764 62.9782C115.441 63.1102 115.067 63.1762 114.642 63.1762Z" fill="#3452EF"></path><path d="M114.642 63.1762C113.967 63.1762 113.329 63.0442 112.728 62.7802C112.141 62.5162 111.628 62.1495 111.188 61.6802C110.748 61.1962 110.403 60.6315 110.154 59.9862C109.919 59.3262 109.802 58.6075 109.802 57.8302V53.8482C109.802 53.5548 109.831 53.2835 109.89 53.0342C109.948 52.7848 110.088 52.5795 110.308 52.4182C110.542 52.2568 110.931 52.1762 111.474 52.1762C112.016 52.1762 112.398 52.2568 112.618 52.4182C112.852 52.5795 112.992 52.7922 113.036 53.0562C113.094 53.3055 113.124 53.5768 113.124 53.8702V57.8302C113.124 58.2555 113.197 58.6295 113.344 58.9522C113.505 59.2602 113.732 59.4948 114.026 59.6562C114.334 59.8175 114.693 59.8982 115.104 59.8982C115.529 59.8982 115.888 59.8175 116.182 59.6562C116.49 59.4802 116.724 59.2382 116.886 58.9302C117.062 58.6222 117.15 58.2555 117.15 57.8302V53.8262C117.15 53.5328 117.179 53.2615 117.238 53.0122C117.296 52.7628 117.436 52.5648 117.656 52.4182C117.89 52.2568 118.279 52.1762 118.822 52.1762C119.364 52.1762 119.746 52.2568 119.966 52.4182C120.2 52.5795 120.34 52.7922 120.384 53.0562C120.442 53.3055 120.472 53.5695 120.472 53.8482V61.5922C120.472 61.8708 120.442 62.1348 120.384 62.3842C120.34 62.6188 120.2 62.8095 119.966 62.9562C119.731 63.1028 119.35 63.1762 118.822 63.1762C118.426 63.1762 118.118 63.1322 117.898 63.0442C117.678 62.9562 117.516 62.8462 117.414 62.7142C117.311 62.5822 117.245 62.4428 117.216 62.2962C117.205 62.1845 117.198 62.0814 117.195 61.9868L117.194 61.9882C117.047 62.1495 116.849 62.3255 116.6 62.5162C116.365 62.6922 116.086 62.8462 115.764 62.9782C115.441 63.1102 115.067 63.1762 114.642 63.1762Z" fill="#242424"></path><path fill-rule="evenodd" clip-rule="evenodd" d="M126.072 62.5822C126.63 62.8608 127.268 63.0002 127.986 63.0002C128.646 63.0002 129.277 62.8682 129.878 62.6042C130.48 62.3255 131.015 61.9442 131.484 61.4602C131.954 60.9762 132.32 60.4115 132.584 59.7662C132.863 59.1062 133.002 58.4095 133.002 57.6762C133.002 56.9428 132.863 56.2462 132.584 55.5862C132.32 54.9262 131.954 54.3468 131.484 53.8482C131.015 53.3348 130.472 52.9315 129.856 52.6382C129.255 52.3448 128.632 52.1982 127.986 52.1982C127.268 52.1982 126.637 52.3448 126.094 52.6382C125.841 52.7718 125.606 52.9324 125.39 53.12V53.0122C125.273 52.7335 125.075 52.5282 124.796 52.3962C124.532 52.2642 124.173 52.1982 123.718 52.1982C123.19 52.1982 122.809 52.2788 122.574 52.4402C122.354 52.6015 122.222 52.8068 122.178 53.0562C122.134 53.2908 122.112 53.5548 122.112 53.8482V66.1462C122.112 66.4248 122.134 66.6815 122.178 66.9162C122.237 67.1655 122.376 67.3635 122.596 67.5102C122.831 67.6715 123.212 67.7522 123.74 67.7522C124.283 67.7522 124.664 67.6715 124.884 67.5102C125.119 67.3635 125.266 67.1655 125.324 66.9162C125.383 66.6668 125.405 66.4028 125.39 66.1242V62.1259C125.6 62.2975 125.827 62.4496 126.072 62.5822ZM128.624 59.6122C128.302 59.8028 127.935 59.8982 127.524 59.8982C127.143 59.8982 126.791 59.8028 126.468 59.6122C126.146 59.4068 125.889 59.1355 125.698 58.7982C125.508 58.4608 125.412 58.0868 125.412 57.6762C125.412 57.2655 125.5 56.8988 125.676 56.5762C125.867 56.2388 126.124 55.9748 126.446 55.7842C126.784 55.5788 127.15 55.4762 127.546 55.4762C127.957 55.4762 128.324 55.5715 128.646 55.7622C128.969 55.9528 129.226 56.2168 129.416 56.5542C129.607 56.8768 129.702 57.2508 129.702 57.6762C129.702 58.0868 129.6 58.4608 129.394 58.7982C129.204 59.1355 128.947 59.4068 128.624 59.6122Z" fill="#3452EF"></path><path fill-rule="evenodd" clip-rule="evenodd" d="M126.072 62.5822C126.63 62.8608 127.268 63.0002 127.986 63.0002C128.646 63.0002 129.277 62.8682 129.878 62.6042C130.48 62.3255 131.015 61.9442 131.484 61.4602C131.954 60.9762 132.32 60.4115 132.584 59.7662C132.863 59.1062 133.002 58.4095 133.002 57.6762C133.002 56.9428 132.863 56.2462 132.584 55.5862C132.32 54.9262 131.954 54.3468 131.484 53.8482C131.015 53.3348 130.472 52.9315 129.856 52.6382C129.255 52.3448 128.632 52.1982 127.986 52.1982C127.268 52.1982 126.637 52.3448 126.094 52.6382C125.841 52.7718 125.606 52.9324 125.39 53.12V53.0122C125.273 52.7335 125.075 52.5282 124.796 52.3962C124.532 52.2642 124.173 52.1982 123.718 52.1982C123.19 52.1982 122.809 52.2788 122.574 52.4402C122.354 52.6015 122.222 52.8068 122.178 53.0562C122.134 53.2908 122.112 53.5548 122.112 53.8482V66.1462C122.112 66.4248 122.134 66.6815 122.178 66.9162C122.237 67.1655 122.376 67.3635 122.596 67.5102C122.831 67.6715 123.212 67.7522 123.74 67.7522C124.283 67.7522 124.664 67.6715 124.884 67.5102C125.119 67.3635 125.266 67.1655 125.324 66.9162C125.383 66.6668 125.405 66.4028 125.39 66.1242V62.1259C125.6 62.2975 125.827 62.4496 126.072 62.5822ZM128.624 59.6122C128.302 59.8028 127.935 59.8982 127.524 59.8982C127.143 59.8982 126.791 59.8028 126.468 59.6122C126.146 59.4068 125.889 59.1355 125.698 58.7982C125.508 58.4608 125.412 58.0868 125.412 57.6762C125.412 57.2655 125.5 56.8988 125.676 56.5762C125.867 56.2388 126.124 55.9748 126.446 55.7842C126.784 55.5788 127.15 55.4762 127.546 55.4762C127.957 55.4762 128.324 55.5715 128.646 55.7622C128.969 55.9528 129.226 56.2168 129.416 56.5542C129.607 56.8768 129.702 57.2508 129.702 57.6762C129.702 58.0868 129.6 58.4608 129.394 58.7982C129.204 59.1355 128.947 59.4068 128.624 59.6122Z" fill="#242424"></path><path fill-rule="evenodd" clip-rule="evenodd" d="M140.125 63.0002C139.406 63.0002 138.768 62.8608 138.211 62.5822C137.966 62.4496 137.738 62.2975 137.529 62.1259V66.1242C137.544 66.4028 137.522 66.6668 137.463 66.9162C137.404 67.1655 137.258 67.3635 137.023 67.5102C136.803 67.6715 136.422 67.7522 135.879 67.7522C135.351 67.7522 134.97 67.6715 134.735 67.5102C134.515 67.3635 134.376 67.1655 134.317 66.9162C134.273 66.6815 134.251 66.4248 134.251 66.1462V53.8482C134.251 53.5548 134.273 53.2908 134.317 53.0562C134.361 52.8068 134.493 52.6015 134.713 52.4402C134.948 52.2788 135.329 52.1982 135.857 52.1982C136.312 52.1982 136.671 52.2642 136.935 52.3962C137.214 52.5282 137.412 52.7335 137.529 53.0122V53.1201C137.745 52.9324 137.98 52.7718 138.233 52.6382C138.776 52.3448 139.406 52.1982 140.125 52.1982C140.77 52.1982 141.394 52.3448 141.995 52.6382C142.611 52.9315 143.154 53.3348 143.623 53.8482C144.092 54.3468 144.459 54.9262 144.723 55.5862C145.002 56.2462 145.141 56.9428 145.141 57.6762C145.141 58.4095 145.002 59.1062 144.723 59.7662C144.459 60.4115 144.092 60.9762 143.623 61.4602C143.154 61.9442 142.618 62.3255 142.017 62.6042C141.416 62.8682 140.785 63.0002 140.125 63.0002ZM139.663 59.8982C140.074 59.8982 140.44 59.8028 140.763 59.6122C141.086 59.4068 141.342 59.1355 141.533 58.7982C141.738 58.4608 141.841 58.0868 141.841 57.6762C141.841 57.2508 141.746 56.8768 141.555 56.5542C141.364 56.2168 141.108 55.9528 140.785 55.7622C140.462 55.5715 140.096 55.4762 139.685 55.4762C139.289 55.4762 138.922 55.5788 138.585 55.7842C138.262 55.9748 138.006 56.2388 137.815 56.5762C137.639 56.8988 137.551 57.2655 137.551 57.6762C137.551 58.0868 137.646 58.4608 137.837 58.7982C138.028 59.1355 138.284 59.4068 138.607 59.6122C138.93 59.8028 139.282 59.8982 139.663 59.8982Z" fill="#3452EF"></path><path fill-rule="evenodd" clip-rule="evenodd" d="M140.125 63.0002C139.406 63.0002 138.768 62.8608 138.211 62.5822C137.966 62.4496 137.738 62.2975 137.529 62.1259V66.1242C137.544 66.4028 137.522 66.6668 137.463 66.9162C137.404 67.1655 137.258 67.3635 137.023 67.5102C136.803 67.6715 136.422 67.7522 135.879 67.7522C135.351 67.7522 134.97 67.6715 134.735 67.5102C134.515 67.3635 134.376 67.1655 134.317 66.9162C134.273 66.6815 134.251 66.4248 134.251 66.1462V53.8482C134.251 53.5548 134.273 53.2908 134.317 53.0562C134.361 52.8068 134.493 52.6015 134.713 52.4402C134.948 52.2788 135.329 52.1982 135.857 52.1982C136.312 52.1982 136.671 52.2642 136.935 52.3962C137.214 52.5282 137.412 52.7335 137.529 53.0122V53.1201C137.745 52.9324 137.98 52.7718 138.233 52.6382C138.776 52.3448 139.406 52.1982 140.125 52.1982C140.77 52.1982 141.394 52.3448 141.995 52.6382C142.611 52.9315 143.154 53.3348 143.623 53.8482C144.092 54.3468 144.459 54.9262 144.723 55.5862C145.002 56.2462 145.141 56.9428 145.141 57.6762C145.141 58.4095 145.002 59.1062 144.723 59.7662C144.459 60.4115 144.092 60.9762 143.623 61.4602C143.154 61.9442 142.618 62.3255 142.017 62.6042C141.416 62.8682 140.785 63.0002 140.125 63.0002ZM139.663 59.8982C140.074 59.8982 140.44 59.8028 140.763 59.6122C141.086 59.4068 141.342 59.1355 141.533 58.7982C141.738 58.4608 141.841 58.0868 141.841 57.6762C141.841 57.2508 141.746 56.8768 141.555 56.5542C141.364 56.2168 141.108 55.9528 140.785 55.7622C140.462 55.5715 140.096 55.4762 139.685 55.4762C139.289 55.4762 138.922 55.5788 138.585 55.7842C138.262 55.9748 138.006 56.2388 137.815 56.5762C137.639 56.8988 137.551 57.2655 137.551 57.6762C137.551 58.0868 137.646 58.4608 137.837 58.7982C138.028 59.1355 138.284 59.4068 138.607 59.6122C138.93 59.8028 139.282 59.8982 139.663 59.8982Z" fill="#242424"></path><path fill-rule="evenodd" clip-rule="evenodd" d="M149.712 62.9782C150.401 63.2422 151.09 63.3742 151.78 63.3742C152.454 63.3742 153.122 63.2495 153.782 63.0002C154.456 62.7362 155.065 62.3548 155.608 61.8562C156.165 61.3575 156.605 60.7635 156.928 60.0742C157.265 59.3702 157.434 58.5708 157.434 57.6762C157.434 56.6202 157.177 55.6595 156.664 54.7942C156.15 53.9288 155.461 53.2468 154.596 52.7482C153.745 52.2348 152.792 51.9782 151.736 51.9782C150.958 51.9782 150.225 52.1322 149.536 52.4402C148.861 52.7335 148.26 53.1442 147.732 53.6722C147.204 54.2002 146.793 54.8088 146.5 55.4982C146.206 56.1728 146.06 56.9062 146.06 57.6982C146.06 58.5488 146.221 59.3262 146.544 60.0302C146.866 60.7195 147.306 61.3135 147.864 61.8122C148.421 62.3108 149.037 62.6995 149.712 62.9782ZM152.814 59.7882C152.447 59.9642 152.088 60.0522 151.736 60.0522C151.384 60.0522 151.024 59.9715 150.658 59.8102C150.291 59.6342 149.983 59.3702 149.734 59.0182C149.499 58.6515 149.382 58.2042 149.382 57.6762C149.382 57.2215 149.484 56.8182 149.69 56.4662C149.91 56.0995 150.188 55.8135 150.526 55.6082C150.878 55.4028 151.274 55.3002 151.714 55.3002C152.183 55.3002 152.594 55.4028 152.946 55.6082C153.312 55.7988 153.598 56.0702 153.804 56.4222C154.009 56.7742 154.112 57.1848 154.112 57.6542C154.112 58.1968 153.987 58.6442 153.738 58.9962C153.488 59.3482 153.18 59.6122 152.814 59.7882Z" fill="#3452EF"></path><path fill-rule="evenodd" clip-rule="evenodd" d="M149.712 62.9782C150.401 63.2422 151.09 63.3742 151.78 63.3742C152.454 63.3742 153.122 63.2495 153.782 63.0002C154.456 62.7362 155.065 62.3548 155.608 61.8562C156.165 61.3575 156.605 60.7635 156.928 60.0742C157.265 59.3702 157.434 58.5708 157.434 57.6762C157.434 56.6202 157.177 55.6595 156.664 54.7942C156.15 53.9288 155.461 53.2468 154.596 52.7482C153.745 52.2348 152.792 51.9782 151.736 51.9782C150.958 51.9782 150.225 52.1322 149.536 52.4402C148.861 52.7335 148.26 53.1442 147.732 53.6722C147.204 54.2002 146.793 54.8088 146.5 55.4982C146.206 56.1728 146.06 56.9062 146.06 57.6982C146.06 58.5488 146.221 59.3262 146.544 60.0302C146.866 60.7195 147.306 61.3135 147.864 61.8122C148.421 62.3108 149.037 62.6995 149.712 62.9782ZM152.814 59.7882C152.447 59.9642 152.088 60.0522 151.736 60.0522C151.384 60.0522 151.024 59.9715 150.658 59.8102C150.291 59.6342 149.983 59.3702 149.734 59.0182C149.499 58.6515 149.382 58.2042 149.382 57.6762C149.382 57.2215 149.484 56.8182 149.69 56.4662C149.91 56.0995 150.188 55.8135 150.526 55.6082C150.878 55.4028 151.274 55.3002 151.714 55.3002C152.183 55.3002 152.594 55.4028 152.946 55.6082C153.312 55.7988 153.598 56.0702 153.804 56.4222C154.009 56.7742 154.112 57.1848 154.112 57.6542C154.112 58.1968 153.987 58.6442 153.738 58.9962C153.488 59.3482 153.18 59.6122 152.814 59.7882Z" fill="#242424"></path><path d="M160.439 63.1982C159.896 63.1982 159.507 63.1248 159.273 62.9782C159.053 62.8168 158.913 62.6042 158.855 62.3402C158.811 62.0762 158.789 61.8048 158.789 61.5262V53.8482C158.789 53.5548 158.818 53.2835 158.877 53.0342C158.935 52.7848 159.075 52.5868 159.295 52.4402C159.529 52.2788 159.918 52.1982 160.461 52.1982C160.974 52.1982 161.341 52.2715 161.561 52.4182C161.795 52.5502 161.942 52.7115 162.001 52.9022C162.031 52.9939 162.054 53.0798 162.069 53.1596C162.198 53.0078 162.366 52.856 162.573 52.7042C162.793 52.5282 163.057 52.3815 163.365 52.2642C163.687 52.1468 164.054 52.0882 164.465 52.0882C164.626 52.0882 164.802 52.1028 164.993 52.1322C165.198 52.1468 165.403 52.1908 165.609 52.2642C165.829 52.3228 166.027 52.4108 166.203 52.5282C166.379 52.6308 166.518 52.7628 166.621 52.9242C166.738 53.0855 166.797 53.2835 166.797 53.5182C166.797 54.1195 166.657 54.6328 166.379 55.0582C166.1 55.4688 165.748 55.6742 165.323 55.6742C165.073 55.6742 164.897 55.6522 164.795 55.6082C164.692 55.5642 164.604 55.5202 164.531 55.4762C164.472 55.4322 164.399 55.3955 164.311 55.3662C164.223 55.3222 164.061 55.3002 163.827 55.3002C163.607 55.3002 163.394 55.3295 163.189 55.3882C162.998 55.4468 162.815 55.5422 162.639 55.6742C162.477 55.7915 162.345 55.9455 162.243 56.1362C162.155 56.3122 162.111 56.5102 162.111 56.7302V61.5702C162.111 61.8488 162.081 62.1202 162.023 62.3842C161.979 62.6335 161.839 62.8315 161.605 62.9782C161.37 63.1248 160.981 63.1982 160.439 63.1982Z" fill="#3452EF"></path><path d="M160.439 63.1982C159.896 63.1982 159.507 63.1248 159.273 62.9782C159.053 62.8168 158.913 62.6042 158.855 62.3402C158.811 62.0762 158.789 61.8048 158.789 61.5262V53.8482C158.789 53.5548 158.818 53.2835 158.877 53.0342C158.935 52.7848 159.075 52.5868 159.295 52.4402C159.529 52.2788 159.918 52.1982 160.461 52.1982C160.974 52.1982 161.341 52.2715 161.561 52.4182C161.795 52.5502 161.942 52.7115 162.001 52.9022C162.031 52.9939 162.054 53.0798 162.069 53.1596C162.198 53.0078 162.366 52.856 162.573 52.7042C162.793 52.5282 163.057 52.3815 163.365 52.2642C163.687 52.1468 164.054 52.0882 164.465 52.0882C164.626 52.0882 164.802 52.1028 164.993 52.1322C165.198 52.1468 165.403 52.1908 165.609 52.2642C165.829 52.3228 166.027 52.4108 166.203 52.5282C166.379 52.6308 166.518 52.7628 166.621 52.9242C166.738 53.0855 166.797 53.2835 166.797 53.5182C166.797 54.1195 166.657 54.6328 166.379 55.0582C166.1 55.4688 165.748 55.6742 165.323 55.6742C165.073 55.6742 164.897 55.6522 164.795 55.6082C164.692 55.5642 164.604 55.5202 164.531 55.4762C164.472 55.4322 164.399 55.3955 164.311 55.3662C164.223 55.3222 164.061 55.3002 163.827 55.3002C163.607 55.3002 163.394 55.3295 163.189 55.3882C162.998 55.4468 162.815 55.5422 162.639 55.6742C162.477 55.7915 162.345 55.9455 162.243 56.1362C162.155 56.3122 162.111 56.5102 162.111 56.7302V61.5702C162.111 61.8488 162.081 62.1202 162.023 62.3842C161.979 62.6335 161.839 62.8315 161.605 62.9782C161.37 63.1248 160.981 63.1982 160.439 63.1982Z" fill="#242424"></path><path d="M171.659 62.9562C172.202 63.1175 172.847 63.1982 173.595 63.1982C173.874 63.1982 174.138 63.1762 174.387 63.1322C174.651 63.0882 174.864 62.9488 175.025 62.7142C175.186 62.4795 175.267 62.0982 175.267 61.5702C175.267 61.0862 175.194 60.7415 175.047 60.5362C174.915 60.3308 174.724 60.1988 174.475 60.1402C174.226 60.0815 173.94 60.0522 173.617 60.0522C173.426 60.0522 173.265 60.0375 173.133 60.0082C173.001 59.9788 172.898 59.9275 172.825 59.8542C172.752 59.7808 172.693 59.6708 172.649 59.5242C172.62 59.3628 172.605 59.1648 172.605 58.9302V55.5744L174.079 55.6082C174.372 55.6082 174.644 55.5788 174.893 55.5202C175.142 55.4468 175.34 55.2928 175.487 55.0582C175.648 54.8235 175.729 54.4568 175.729 53.9582C175.729 53.4155 175.648 53.0268 175.487 52.7922C175.326 52.5575 175.12 52.4182 174.871 52.3742C174.622 52.3155 174.358 52.2862 174.079 52.2862L172.605 52.3289V50.1962C172.605 49.9028 172.576 49.6315 172.517 49.3822C172.473 49.1328 172.334 48.9275 172.099 48.7662C171.864 48.6048 171.483 48.5242 170.955 48.5242C170.427 48.5242 170.046 48.6048 169.811 48.7662C169.576 48.9128 169.43 49.1035 169.371 49.3382C169.327 49.5728 169.305 49.8368 169.305 50.1302V52.3742H168.623C168.212 52.3742 167.904 52.5062 167.699 52.7702C167.494 53.0195 167.391 53.4082 167.391 53.9362C167.391 54.5082 167.472 54.9188 167.633 55.1682C167.809 55.4028 168.11 55.5275 168.535 55.5422H169.305V59.0622C169.305 59.7808 169.386 60.4042 169.547 60.9322C169.723 61.4455 169.987 61.8708 170.339 62.2082C170.691 62.5455 171.131 62.7948 171.659 62.9562Z" fill="#3452EF"></path><path d="M171.659 62.9562C172.202 63.1175 172.847 63.1982 173.595 63.1982C173.874 63.1982 174.138 63.1762 174.387 63.1322C174.651 63.0882 174.864 62.9488 175.025 62.7142C175.186 62.4795 175.267 62.0982 175.267 61.5702C175.267 61.0862 175.194 60.7415 175.047 60.5362C174.915 60.3308 174.724 60.1988 174.475 60.1402C174.226 60.0815 173.94 60.0522 173.617 60.0522C173.426 60.0522 173.265 60.0375 173.133 60.0082C173.001 59.9788 172.898 59.9275 172.825 59.8542C172.752 59.7808 172.693 59.6708 172.649 59.5242C172.62 59.3628 172.605 59.1648 172.605 58.9302V55.5744L174.079 55.6082C174.372 55.6082 174.644 55.5788 174.893 55.5202C175.142 55.4468 175.34 55.2928 175.487 55.0582C175.648 54.8235 175.729 54.4568 175.729 53.9582C175.729 53.4155 175.648 53.0268 175.487 52.7922C175.326 52.5575 175.12 52.4182 174.871 52.3742C174.622 52.3155 174.358 52.2862 174.079 52.2862L172.605 52.3289V50.1962C172.605 49.9028 172.576 49.6315 172.517 49.3822C172.473 49.1328 172.334 48.9275 172.099 48.7662C171.864 48.6048 171.483 48.5242 170.955 48.5242C170.427 48.5242 170.046 48.6048 169.811 48.7662C169.576 48.9128 169.43 49.1035 169.371 49.3382C169.327 49.5728 169.305 49.8368 169.305 50.1302V52.3742H168.623C168.212 52.3742 167.904 52.5062 167.699 52.7702C167.494 53.0195 167.391 53.4082 167.391 53.9362C167.391 54.5082 167.472 54.9188 167.633 55.1682C167.809 55.4028 168.11 55.5275 168.535 55.5422H169.305V59.0622C169.305 59.7808 169.386 60.4042 169.547 60.9322C169.723 61.4455 169.987 61.8708 170.339 62.2082C170.691 62.5455 171.131 62.7948 171.659 62.9562Z" fill="#242424"></path><path d="M183.591 63.1762C183.151 63.1762 182.762 63.0075 182.425 62.6702C182.102 62.3182 181.941 61.9222 181.941 61.4822C181.941 61.2182 181.963 60.9688 182.007 60.7342C182.051 60.4995 182.124 60.2722 182.227 60.0522C182.344 59.8322 182.498 59.6342 182.689 59.4582C183.202 58.9302 183.774 58.4535 184.405 58.0282C185.035 57.5882 185.659 57.1775 186.275 56.7962C186.905 56.4002 187.477 56.0115 187.991 55.6302C188.519 55.2342 188.937 54.8162 189.245 54.3762C189.567 53.9215 189.729 53.4302 189.729 52.9022C189.729 52.6088 189.663 52.3155 189.531 52.0222C189.413 51.7142 189.193 51.4648 188.871 51.2742C188.548 51.0688 188.101 50.9662 187.529 50.9662C187.147 50.9662 186.81 51.0175 186.517 51.1202C186.238 51.2228 186.003 51.3768 185.813 51.5822C185.637 51.7728 185.505 52.0148 185.417 52.3082C185.329 52.6015 185.285 52.9388 185.285 53.3202C185.285 53.5988 185.255 53.8628 185.197 54.1122C185.153 54.3468 185.013 54.5375 184.779 54.6842C184.544 54.8308 184.148 54.9042 183.591 54.9042C183.048 54.9042 182.659 54.8235 182.425 54.6622C182.19 54.4862 182.051 54.2662 182.007 54.0022C181.963 53.7235 181.941 53.4448 181.941 53.1662C181.941 52.4622 182.065 51.7802 182.315 51.1202C182.564 50.4455 182.931 49.8515 183.415 49.3382C183.899 48.8102 184.478 48.3922 185.153 48.0842C185.842 47.7762 186.627 47.6222 187.507 47.6222C188.577 47.6222 189.531 47.8642 190.367 48.3482C191.203 48.8175 191.863 49.4702 192.347 50.3062C192.845 51.1422 193.095 52.1028 193.095 53.1882C193.095 53.8335 192.992 54.4275 192.787 54.9702C192.581 55.5128 192.303 56.0115 191.951 56.4662C191.613 56.9062 191.232 57.3022 190.807 57.6542C190.396 58.0062 189.978 58.3142 189.553 58.5782C189.127 58.8422 188.731 59.0768 188.365 59.2822C187.998 59.4728 187.69 59.6342 187.441 59.7662L187.133 59.8102H191.995C192.288 59.8102 192.559 59.8395 192.809 59.8982C193.073 59.9568 193.278 60.1035 193.425 60.3382C193.586 60.5728 193.667 60.9688 193.667 61.5262C193.667 62.0395 193.586 62.4208 193.425 62.6702C193.263 62.9048 193.051 63.0442 192.787 63.0882C192.523 63.1468 192.244 63.1762 191.951 63.1762H183.591Z" fill="#3452EF"></path><path d="M183.591 63.1762C183.151 63.1762 182.762 63.0075 182.425 62.6702C182.102 62.3182 181.941 61.9222 181.941 61.4822C181.941 61.2182 181.963 60.9688 182.007 60.7342C182.051 60.4995 182.124 60.2722 182.227 60.0522C182.344 59.8322 182.498 59.6342 182.689 59.4582C183.202 58.9302 183.774 58.4535 184.405 58.0282C185.035 57.5882 185.659 57.1775 186.275 56.7962C186.905 56.4002 187.477 56.0115 187.991 55.6302C188.519 55.2342 188.937 54.8162 189.245 54.3762C189.567 53.9215 189.729 53.4302 189.729 52.9022C189.729 52.6088 189.663 52.3155 189.531 52.0222C189.413 51.7142 189.193 51.4648 188.871 51.2742C188.548 51.0688 188.101 50.9662 187.529 50.9662C187.147 50.9662 186.81 51.0175 186.517 51.1202C186.238 51.2228 186.003 51.3768 185.813 51.5822C185.637 51.7728 185.505 52.0148 185.417 52.3082C185.329 52.6015 185.285 52.9388 185.285 53.3202C185.285 53.5988 185.255 53.8628 185.197 54.1122C185.153 54.3468 185.013 54.5375 184.779 54.6842C184.544 54.8308 184.148 54.9042 183.591 54.9042C183.048 54.9042 182.659 54.8235 182.425 54.6622C182.19 54.4862 182.051 54.2662 182.007 54.0022C181.963 53.7235 181.941 53.4448 181.941 53.1662C181.941 52.4622 182.065 51.7802 182.315 51.1202C182.564 50.4455 182.931 49.8515 183.415 49.3382C183.899 48.8102 184.478 48.3922 185.153 48.0842C185.842 47.7762 186.627 47.6222 187.507 47.6222C188.577 47.6222 189.531 47.8642 190.367 48.3482C191.203 48.8175 191.863 49.4702 192.347 50.3062C192.845 51.1422 193.095 52.1028 193.095 53.1882C193.095 53.8335 192.992 54.4275 192.787 54.9702C192.581 55.5128 192.303 56.0115 191.951 56.4662C191.613 56.9062 191.232 57.3022 190.807 57.6542C190.396 58.0062 189.978 58.3142 189.553 58.5782C189.127 58.8422 188.731 59.0768 188.365 59.2822C187.998 59.4728 187.69 59.6342 187.441 59.7662L187.133 59.8102H191.995C192.288 59.8102 192.559 59.8395 192.809 59.8982C193.073 59.9568 193.278 60.1035 193.425 60.3382C193.586 60.5728 193.667 60.9688 193.667 61.5262C193.667 62.0395 193.586 62.4208 193.425 62.6702C193.263 62.9048 193.051 63.0442 192.787 63.0882C192.523 63.1468 192.244 63.1762 191.951 63.1762H183.591Z" fill="#242424"></path><path d="M202.536 62.9562C202.771 63.1175 203.159 63.1982 203.702 63.1982C204.245 63.1982 204.633 63.1248 204.868 62.9782C205.103 62.8168 205.249 62.6115 205.308 62.3622C205.367 62.0982 205.396 61.8195 205.396 61.5262V49.4922C205.396 49.1988 205.367 48.9275 205.308 48.6782C205.264 48.4142 205.125 48.2015 204.89 48.0402C204.655 47.8788 204.274 47.7982 203.746 47.7982C203.189 47.7982 202.793 47.8788 202.558 48.0402C202.323 48.1868 202.177 48.3775 202.118 48.6122C202.059 48.8468 202.03 49.0962 202.03 49.3602V55.5642H198.202L199.852 49.2502C199.94 48.8982 199.859 48.6048 199.61 48.3702C199.361 48.1355 199.001 47.9595 198.532 47.8422C197.931 47.6955 197.476 47.6955 197.168 47.8422C196.875 47.9742 196.64 48.3775 196.464 49.0522L194.55 56.3782C194.521 56.4662 194.499 56.5615 194.484 56.6642V57.0162C194.484 57.2948 194.506 57.5662 194.55 57.8302C194.609 58.0795 194.755 58.2848 194.99 58.4462C195.225 58.6075 195.606 58.6882 196.134 58.6882H202.03V61.5042C202.03 61.7828 202.052 62.0542 202.096 62.3182C202.155 62.5822 202.301 62.7948 202.536 62.9562Z" fill="#3452EF"></path><path d="M202.536 62.9562C202.771 63.1175 203.159 63.1982 203.702 63.1982C204.245 63.1982 204.633 63.1248 204.868 62.9782C205.103 62.8168 205.249 62.6115 205.308 62.3622C205.367 62.0982 205.396 61.8195 205.396 61.5262V49.4922C205.396 49.1988 205.367 48.9275 205.308 48.6782C205.264 48.4142 205.125 48.2015 204.89 48.0402C204.655 47.8788 204.274 47.7982 203.746 47.7982C203.189 47.7982 202.793 47.8788 202.558 48.0402C202.323 48.1868 202.177 48.3775 202.118 48.6122C202.059 48.8468 202.03 49.0962 202.03 49.3602V55.5642H198.202L199.852 49.2502C199.94 48.8982 199.859 48.6048 199.61 48.3702C199.361 48.1355 199.001 47.9595 198.532 47.8422C197.931 47.6955 197.476 47.6955 197.168 47.8422C196.875 47.9742 196.64 48.3775 196.464 49.0522L194.55 56.3782C194.521 56.4662 194.499 56.5615 194.484 56.6642V57.0162C194.484 57.2948 194.506 57.5662 194.55 57.8302C194.609 58.0795 194.755 58.2848 194.99 58.4462C195.225 58.6075 195.606 58.6882 196.134 58.6882H202.03V61.5042C202.03 61.7828 202.052 62.0542 202.096 62.3182C202.155 62.5822 202.301 62.7948 202.536 62.9562Z" fill="#242424"></path><path d="M207.416 64.0342C206.859 63.7555 206.529 63.4768 206.426 63.1982C206.338 62.9195 206.419 62.5162 206.668 61.9882L213.576 47.9302C213.767 47.5635 213.95 47.3068 214.126 47.1602C214.317 46.9988 214.537 46.9255 214.786 46.9402C215.035 46.9548 215.336 47.0502 215.688 47.2262C216.084 47.4168 216.363 47.6075 216.524 47.7982C216.685 47.9742 216.751 48.1868 216.722 48.4362C216.693 48.6708 216.583 48.9788 216.392 49.3602L209.506 63.3082C209.257 63.8655 208.985 64.1808 208.692 64.2542C208.399 64.3422 207.973 64.2688 207.416 64.0342Z" fill="#3452EF"></path><path d="M207.416 64.0342C206.859 63.7555 206.529 63.4768 206.426 63.1982C206.338 62.9195 206.419 62.5162 206.668 61.9882L213.576 47.9302C213.767 47.5635 213.95 47.3068 214.126 47.1602C214.317 46.9988 214.537 46.9255 214.786 46.9402C215.035 46.9548 215.336 47.0502 215.688 47.2262C216.084 47.4168 216.363 47.6075 216.524 47.7982C216.685 47.9742 216.751 48.1868 216.722 48.4362C216.693 48.6708 216.583 48.9788 216.392 49.3602L209.506 63.3082C209.257 63.8655 208.985 64.1808 208.692 64.2542C208.399 64.3422 207.973 64.2688 207.416 64.0342Z" fill="#242424"></path><path d="M220.265 63.0222C220.5 63.1395 220.881 63.1982 221.409 63.1982C221.937 63.1982 222.318 63.1395 222.553 63.0222C222.788 62.9195 222.934 62.7655 222.993 62.5602C223.066 62.3402 223.103 62.0982 223.103 61.8342C223.103 61.1595 223.228 60.4775 223.477 59.7882C223.741 59.0842 224.071 58.3802 224.467 57.6762C224.878 56.9575 225.31 56.2462 225.765 55.5422C226.234 54.8382 226.667 54.1415 227.063 53.4522C227.474 52.7628 227.804 52.0955 228.053 51.4502C228.317 50.7902 228.449 50.1668 228.449 49.5802C228.449 49.2722 228.42 48.9862 228.361 48.7222C228.317 48.4582 228.178 48.2455 227.943 48.0842C227.723 47.9228 227.342 47.8422 226.799 47.8422H219.055C218.791 47.8422 218.542 47.8715 218.307 47.9302C218.072 47.9742 217.882 48.1135 217.735 48.3482C217.588 48.5682 217.515 48.9495 217.515 49.4922C217.515 50.0202 217.588 50.4015 217.735 50.6362C217.896 50.8708 218.102 51.0175 218.351 51.0762C218.615 51.1348 218.886 51.1642 219.165 51.1642H224.467C224.423 51.4282 224.276 51.7655 224.027 52.1762C223.792 52.5722 223.492 53.0342 223.125 53.5622C222.773 54.0755 222.399 54.6475 222.003 55.2782C221.607 55.9088 221.233 56.5762 220.881 57.2802C220.544 57.9695 220.265 58.6955 220.045 59.4582C219.84 60.2208 219.737 60.9982 219.737 61.7902C219.737 62.0688 219.766 62.3182 219.825 62.5382C219.884 62.7582 220.03 62.9195 220.265 63.0222Z" fill="#3452EF"></path><path d="M220.265 63.0222C220.5 63.1395 220.881 63.1982 221.409 63.1982C221.937 63.1982 222.318 63.1395 222.553 63.0222C222.788 62.9195 222.934 62.7655 222.993 62.5602C223.066 62.3402 223.103 62.0982 223.103 61.8342C223.103 61.1595 223.228 60.4775 223.477 59.7882C223.741 59.0842 224.071 58.3802 224.467 57.6762C224.878 56.9575 225.31 56.2462 225.765 55.5422C226.234 54.8382 226.667 54.1415 227.063 53.4522C227.474 52.7628 227.804 52.0955 228.053 51.4502C228.317 50.7902 228.449 50.1668 228.449 49.5802C228.449 49.2722 228.42 48.9862 228.361 48.7222C228.317 48.4582 228.178 48.2455 227.943 48.0842C227.723 47.9228 227.342 47.8422 226.799 47.8422H219.055C218.791 47.8422 218.542 47.8715 218.307 47.9302C218.072 47.9742 217.882 48.1135 217.735 48.3482C217.588 48.5682 217.515 48.9495 217.515 49.4922C217.515 50.0202 217.588 50.4015 217.735 50.6362C217.896 50.8708 218.102 51.0175 218.351 51.0762C218.615 51.1348 218.886 51.1642 219.165 51.1642H224.467C224.423 51.4282 224.276 51.7655 224.027 52.1762C223.792 52.5722 223.492 53.0342 223.125 53.5622C222.773 54.0755 222.399 54.6475 222.003 55.2782C221.607 55.9088 221.233 56.5762 220.881 57.2802C220.544 57.9695 220.265 58.6955 220.045 59.4582C219.84 60.2208 219.737 60.9982 219.737 61.7902C219.737 62.0688 219.766 62.3182 219.825 62.5382C219.884 62.7582 220.03 62.9195 220.265 63.0222Z" fill="#242424"></path><path d="M52 23.6729C48.9397 23.6729 45.9458 24.5659 43.3855 26.2424C40.8252 27.9189 38.8097 30.3061 37.5861 33.1112C36.3624 35.9162 35.9839 39.0174 36.4968 42.0345C37.0097 45.0516 38.3918 47.8534 40.4736 50.0966L38.847 56.1651C38.7508 56.5233 38.7631 56.9021 38.8822 57.2533C39.0013 57.6046 39.2219 57.9127 39.5162 58.1386C39.8104 58.3644 40.165 58.4979 40.5351 58.5222C40.9053 58.5465 41.2743 58.4605 41.5955 58.275L47.9594 54.6C50.1217 55.1748 52.3818 55.2816 54.5887 54.9133C56.7956 54.545 58.8985 53.7101 60.757 52.4643C62.6155 51.2185 64.1868 49.5905 65.366 47.689C66.5451 45.7876 67.305 43.6564 67.5949 41.4378C67.8847 39.2193 67.6979 36.9644 67.0468 34.8238C66.3957 32.6832 65.2954 30.7062 63.8194 29.0247C62.3433 27.3433 60.5255 25.9961 58.4873 25.0732C56.4491 24.1503 54.2374 23.6729 52 23.6729Z" fill="#3452EF"></path><path d="M52 23.6729C48.9397 23.6729 45.9458 24.5659 43.3855 26.2424C40.8252 27.9189 38.8097 30.3061 37.5861 33.1112C36.3624 35.9162 35.9839 39.0174 36.4968 42.0345C37.0097 45.0516 38.3918 47.8534 40.4736 50.0966L38.847 56.1651C38.7508 56.5233 38.7631 56.9021 38.8822 57.2533C39.0013 57.6046 39.2219 57.9127 39.5162 58.1386C39.8104 58.3644 40.165 58.4979 40.5351 58.5222C40.9053 58.5465 41.2743 58.4605 41.5955 58.275L47.9594 54.6C50.1217 55.1748 52.3818 55.2816 54.5887 54.9133C56.7956 54.545 58.8985 53.7101 60.757 52.4643C62.6155 51.2185 64.1868 49.5905 65.366 47.689C66.5451 45.7876 67.305 43.6564 67.5949 41.4378C67.8847 39.2193 67.6979 36.9644 67.0468 34.8238C66.3957 32.6832 65.2954 30.7062 63.8194 29.0247C62.3433 27.3433 60.5255 25.9961 58.4873 25.0732C56.4491 24.1503 54.2374 23.6729 52 23.6729Z" fill="#242424"></path><path d="M82.975 40.7342C82.9954 39.9691 83.0165 39.1778 82.9815 38.3491C82.8777 36.0433 81.8855 33.8671 80.213 32.2765C78.5404 30.6859 76.3171 29.8043 74.009 29.8163C70.3016 21.3348 61.8325 15.3921 52 15.3921C42.1675 15.3921 33.6984 21.3348 29.9914 29.8163C27.6826 29.8039 25.4587 30.6859 23.7859 32.2772C22.1132 33.8686 21.1215 36.0457 21.0187 38.3522C20.9839 39.1772 21.005 39.9691 21.0254 40.7342C21.047 41.5467 21.0694 42.3872 21.0294 43.3292C20.9314 45.6922 21.774 47.9976 23.3726 49.7405C25.0499 51.5693 27.4685 52.6348 29.9492 52.6363C31.079 52.637 32.1985 52.4219 33.2475 52.0025C33.7808 51.8361 34.2252 51.4243 34.4316 50.9052C34.638 50.3861 34.5976 49.7815 34.3241 49.2945C32.6315 46.2709 31.7431 42.8636 31.7437 39.3985C31.7437 28.2292 40.8312 19.1422 52 19.1422C63.1687 19.1422 72.2562 28.2297 72.2562 39.3985C72.2702 44.1263 70.6243 48.7092 67.6056 52.3478C64.5868 55.9865 60.3867 58.4503 55.7375 59.3095C55.2479 58.201 54.3864 57.2984 53.3019 56.7577C52.2174 56.217 50.978 56.0722 49.7981 56.3483C48.6182 56.6244 47.5718 57.3041 46.8398 58.2699C46.1078 59.2356 45.7363 60.4268 45.7894 61.6374C45.8425 62.8481 46.3169 64.0022 47.1306 64.9001C47.9443 65.7981 49.0462 66.3836 50.2458 66.5553C51.4454 66.7271 52.6673 66.4743 53.7003 65.8407C54.7333 65.2072 55.5124 64.2326 55.9031 63.0855C59.2056 62.5394 62.3578 61.3097 65.1576 59.4751C67.9575 57.6405 70.3433 55.2415 72.1625 52.4316C72.7829 52.5672 73.4161 52.6358 74.0512 52.6362C74.1817 52.6362 74.3124 52.6334 74.4434 52.6278C76.8056 52.5213 79.0293 51.483 80.6275 49.7403C82.2257 47.9976 83.0682 45.6925 82.9705 43.33C82.9307 42.3875 82.953 41.547 82.975 40.7342Z" fill="#FABA5B"></path><path d="M45.7533 41.2734C45.256 41.2739 44.7789 41.0768 44.4269 40.7255C44.075 40.3743 43.8769 39.8975 43.8765 39.4003C43.876 38.903 44.0731 38.4259 44.4244 38.0739C44.7757 37.7219 45.2524 37.5239 45.7497 37.5234H45.7533C46.2506 37.5234 46.7275 37.721 47.0791 38.0726C47.4307 38.4242 47.6283 38.9012 47.6283 39.3984C47.6283 39.8957 47.4307 40.3726 47.0791 40.7243C46.7275 41.0759 46.2506 41.2734 45.7533 41.2734Z" fill="white"></path><path d="M52.0068 41.2734C51.5095 41.2739 51.0324 41.0768 50.6805 40.7255C50.3285 40.3743 50.1305 39.8975 50.13 39.4003C50.1295 38.903 50.3266 38.4259 50.6779 38.0739C51.0292 37.7219 51.5059 37.5239 52.0032 37.5234H52.0068C52.5041 37.5234 52.981 37.721 53.3326 38.0726C53.6843 38.4242 53.8818 38.9012 53.8818 39.3984C53.8818 39.8957 53.6843 40.3726 53.3326 40.7243C52.981 41.0759 52.5041 41.2734 52.0068 41.2734Z" fill="white"></path><path d="M56.934 40.7255C57.286 41.0768 57.7631 41.2739 58.2604 41.2734C58.7576 41.2734 59.2346 41.0759 59.5862 40.7243C59.9378 40.3726 60.1354 39.8957 60.1354 39.3984C60.1354 38.9012 59.9378 38.4242 59.5862 38.0726C59.2346 37.721 58.7576 37.5234 58.2604 37.5234H58.2567C57.7595 37.5239 57.2827 37.7219 56.9314 38.0739C56.5801 38.4259 56.3831 38.903 56.3835 39.4003C56.384 39.8975 56.582 40.3743 56.934 40.7255Z" fill="white"></path><path d="M70.7525 52.0024C70.5059 51.9255 70.2779 51.7985 70.0828 51.6294C69.8876 51.4602 69.7295 51.2526 69.6183 51.0195C69.5072 50.7864 69.4454 50.5328 69.4368 50.2747C69.4282 50.0166 69.473 49.7595 69.5685 49.5195C68.1119 52.0575 66.1201 54.2478 63.7317 55.9384C61.3432 57.629 58.6153 58.7793 55.7375 59.3094C56.2664 60.5024 56.3255 61.8511 55.903 63.0858C59.2056 62.5397 62.3577 61.31 65.1576 59.4753C67.9575 57.6407 70.3434 55.2415 72.1625 52.4315C71.6815 52.3274 71.2099 52.1839 70.7525 52.0024Z" fill="white" fill-opacity="0.5"></path></svg> 