<?xml version="1.0" encoding="UTF-8"?> <svg xmlns="http://www.w3.org/2000/svg" width="206" height="93" viewBox="0 0 206 93" fill="none"><path d="M109.329 60.0326C108.041 60.7606 106.529 61.1246 104.793 61.1246C102.945 61.1246 101.321 60.7606 99.9213 60.0326C98.5773 59.3046 97.5133 58.3526 96.7293 57.1766C95.9453 56.0006 95.5533 54.6566 95.5533 53.1446C95.5533 51.6326 95.9173 50.2606 96.6453 49.0286C97.4293 47.7966 98.4933 46.8446 99.8373 46.1726C101.181 45.4446 102.777 45.0806 104.625 45.0806C106.417 45.0806 107.957 45.4446 109.245 46.1726C110.589 46.8446 111.625 47.7686 112.353 48.9446C113.081 50.1206 113.445 51.4926 113.445 53.0606C113.445 54.5726 113.081 55.9446 112.353 57.1766C111.681 58.3526 110.673 59.3046 109.329 60.0326Z" fill="#FABA5B"></path><path d="M109.329 60.0326C108.041 60.7606 106.529 61.1246 104.793 61.1246C102.945 61.1246 101.321 60.7606 99.9213 60.0326C98.5773 59.3046 97.5133 58.3526 96.7293 57.1766C95.9453 56.0006 95.5533 54.6566 95.5533 53.1446C95.5533 51.6326 95.9173 50.2606 96.6453 49.0286C97.4293 47.7966 98.4933 46.8446 99.8373 46.1726C101.181 45.4446 102.777 45.0806 104.625 45.0806C106.417 45.0806 107.957 45.4446 109.245 46.1726C110.589 46.8446 111.625 47.7686 112.353 48.9446C113.081 50.1206 113.445 51.4926 113.445 53.0606C113.445 54.5726 113.081 55.9446 112.353 57.1766C111.681 58.3526 110.673 59.3046 109.329 60.0326Z" fill="#F9F9F9" fill-opacity="0.83"></path><path fill-rule="evenodd" clip-rule="evenodd" d="M19.2553 9.56677C8.84419 11.4952 1.06598 20.0691 0.965753 30.6568C0.941144 33.2563 0.963804 36.0651 1.05857 39.0278C1.19651 43.3402 1.22184 47.7236 1.24737 52.1428C1.28057 57.8892 1.31412 63.6961 1.59608 69.4857C1.68762 71.3653 1.91729 73.3245 2.22934 75.2652C3.83979 85.281 12.9957 91.788 23.1382 91.987C41.2666 92.3427 72.3297 92.4591 107.391 90.47C140.835 88.5726 168.708 85.282 185.583 82.9656C196.088 81.5236 204.489 73.349 205.159 62.7666C205.355 59.6713 205.399 56.7486 205.149 54.5721C203.959 44.2342 203.943 41.7757 203.896 34.9543C203.883 32.9691 203.867 30.6145 203.819 27.5885C203.758 23.7783 203.312 20.0581 202.704 16.6841C201.031 7.39635 192.69 1.37852 183.266 0.871682C171.012 0.212618 153.624 -0.403634 139.55 0.337872C125.329 1.08716 114.24 1.43717 103.151 1.78721C92.0684 2.13704 80.9849 2.48689 66.7721 3.23534C51.4549 4.04194 32.6578 7.08425 19.2553 9.56677ZM183.021 11.5886C183.17 12.423 183.188 13.3193 182.809 14.0794C182.431 14.8394 181.551 15.4042 180.73 15.2037C180.446 15.1374 180.186 14.9864 179.933 14.8334C179.524 14.5949 179.112 14.3435 178.785 14.002C178.444 13.6369 178.224 13.1843 178.019 12.7341C177.31 11.1521 176.747 8.08706 179.161 7.57674C181.328 7.11566 182.721 9.90675 183.021 11.5886ZM186.701 16.7211C187.308 16.8905 187.983 16.6013 188.378 16.1181C188.77 15.6285 188.92 14.9755 188.896 14.3558C188.876 13.7277 188.7 13.1205 188.506 12.5257C188.132 11.3535 187.136 9.69242 185.614 10.4022C185.089 10.6513 184.717 11.1625 184.514 11.7125C184.369 12.1103 184.31 12.5307 184.329 12.9545C184.378 13.9258 184.87 14.8147 185.425 15.6132C185.751 16.0887 186.144 16.5717 186.701 16.7211ZM190.26 22.8925C191.202 22.5479 191.882 21.5735 191.866 20.5709C191.849 19.5682 191.139 18.6141 190.18 18.3156C189.613 18.1382 189.018 18.1729 188.419 18.2079C187.996 18.2326 187.571 18.2574 187.153 18.2075C186.367 18.1119 185.657 17.7534 184.942 17.3927C184.539 17.189 184.134 16.9845 183.713 16.8264C182.556 16.3929 180.97 16.4674 180.392 17.5648C180.008 18.2868 180.228 19.0859 180.453 19.9038C180.605 20.4556 180.759 21.016 180.732 21.5669C180.703 22.1163 180.493 22.6309 180.284 23.1469C180.102 23.5935 179.92 24.0412 179.854 24.5131C179.664 25.8976 180.656 27.3415 182.027 27.6657C182.525 27.7844 183.065 27.7633 183.533 27.5601C184.154 27.3019 184.612 26.7708 185.026 26.2391C185.247 25.9559 185.46 25.6065 185.68 25.2447C186.121 24.5215 186.591 23.7493 187.216 23.3607C187.724 23.048 188.308 23.0478 188.895 23.0475C189.36 23.0473 189.827 23.0471 190.26 22.8925ZM175.504 17.448C176.143 17.6285 176.843 17.8036 177.445 17.5303C178.097 17.2343 178.429 16.4607 178.376 15.7512C178.318 15.0437 177.931 14.3969 177.471 13.8575C176.426 12.6277 174.217 11.1919 172.473 11.6257C170.33 12.1638 171.162 14.6373 172.226 15.8121C173.052 16.7298 174.311 17.1033 175.504 17.448ZM173.15 19.2788C175.239 18.2078 180.408 20.0124 178.364 22.859C178.049 23.303 177.524 23.5734 176.99 23.6776C176.45 23.7903 175.891 23.7472 175.349 23.6704C174.055 23.4773 172.453 22.5982 171.94 21.5748L171.786 21.0807C171.714 20.4688 172.075 19.834 173.15 19.2788ZM47.5374 73.7246C50.6174 74.5086 53.6414 74.9006 56.6094 74.9006C59.9694 74.9006 62.8534 74.5646 65.2614 73.8926C67.7254 73.2766 69.7134 72.5766 71.2254 71.7926C72.7934 71.0086 73.8854 70.4206 74.5014 70.0286C75.6214 69.3566 76.6294 68.6286 77.5254 67.8446C78.4214 67.0046 78.8694 65.9966 78.8694 64.8206C78.9254 64.2046 78.8134 63.5326 78.5334 62.8046C78.2534 62.0206 77.8334 61.2366 77.2734 60.4526C76.3774 59.0526 75.4814 58.0166 74.5854 57.3446C73.7454 56.6726 72.9054 56.3366 72.0654 56.3366C71.4494 56.3366 70.8054 56.5046 70.1334 56.8406C69.4614 57.1206 68.7894 57.4846 68.1174 57.9326C67.4454 58.3806 66.5494 58.8846 65.4294 59.4446C64.3654 59.9486 63.0774 60.3686 61.5654 60.7046C60.1094 61.0406 58.3454 61.2086 56.2734 61.2086C53.9774 61.2086 51.7094 60.8726 49.4694 60.2006C47.2294 59.5286 45.2134 58.5206 43.4214 57.1766C41.6854 55.8326 40.2854 54.1526 39.2214 52.1366C38.1574 50.0646 37.6254 47.6566 37.6254 44.9126C37.6254 42.1686 38.1294 39.7606 39.1374 37.6886C40.2014 35.6166 41.6014 33.9086 43.3374 32.5646C45.1294 31.2206 47.1454 30.2126 49.3854 29.5406C51.6254 28.8686 53.9214 28.5326 56.2734 28.5326C58.5694 28.5326 60.4734 28.7286 61.9854 29.1206C63.4974 29.4566 64.7014 29.8766 65.5974 30.3806C66.5494 30.8286 67.2774 31.2206 67.7814 31.5566C68.6774 32.1166 69.4334 32.5646 70.0494 32.9006C70.7214 33.2366 71.3934 33.4046 72.0654 33.4046C72.9054 33.4046 73.7454 33.0966 74.5854 32.4806C75.4814 31.8086 76.4054 30.8006 77.3574 29.4566C77.8614 28.7286 78.2534 28.0286 78.5334 27.3566C78.8134 26.6286 78.9534 25.9286 78.9534 25.2566C78.9534 24.0246 78.5054 22.9886 77.6094 22.1486C76.7134 21.3086 75.7054 20.5526 74.5854 19.8806C73.9694 19.4886 72.8494 18.9006 71.2254 18.1166C69.6574 17.3326 67.6414 16.6046 65.1774 15.9326C62.7694 15.2606 59.9694 14.9246 56.7774 14.9246C53.7534 14.9246 50.6734 15.3166 47.5374 16.1006C44.4574 16.8846 41.5174 18.0606 38.7174 19.6286C35.9174 21.1406 33.3974 23.0726 31.1574 25.4246C28.9734 27.7766 27.2374 30.5486 25.9494 33.7406C24.7174 36.8766 24.1014 40.4606 24.1014 44.4926C24.1014 48.6366 24.7174 52.3606 25.9494 55.6646C27.2374 58.9126 28.9734 61.7686 31.1574 64.2326C33.3974 66.6406 35.9174 68.6286 38.7174 70.1966C41.5734 71.7646 44.5134 72.9406 47.5374 73.7246ZM115.965 72.8846C117.029 73.7246 118.653 74.1446 120.837 74.1446C123.077 74.1446 124.645 73.8366 125.541 73.2206C126.493 72.5486 127.053 71.7086 127.221 70.7006C127.445 69.6366 127.557 68.5446 127.557 67.4246V38.8646C127.557 37.7446 127.445 36.6526 127.221 35.5886C127.053 34.5246 126.493 33.6846 125.541 33.0686C124.645 32.3966 123.105 32.0606 120.921 32.0606C118.681 32.0606 117.029 32.4526 115.965 33.2366C114.935 33.9957 114.43 35.0172 114.45 36.3013C114.032 35.8677 113.53 35.4342 112.941 35.0006C111.877 34.2166 110.505 33.5446 108.825 32.9846C107.201 32.4246 105.241 32.1446 102.945 32.1446C99.9773 32.1446 97.2333 32.7046 94.7133 33.8246C92.2493 34.8886 90.0653 36.4006 88.1613 38.3606C86.2573 40.2646 84.7733 42.4766 83.7093 44.9966C82.6453 47.5166 82.1133 50.1766 82.1133 52.9766C82.1133 55.8326 82.6453 58.5486 83.7093 61.1246C84.7733 63.6446 86.2293 65.8846 88.0773 67.8446C89.9813 69.8046 92.1933 71.3446 94.7133 72.4646C97.2333 73.5846 99.9493 74.1446 102.861 74.1446C105.325 74.1446 107.397 73.8646 109.077 73.3046C110.813 72.6886 112.185 71.9886 113.193 71.2046C113.648 70.8456 114.041 70.507 114.373 70.189C114.424 71.1885 114.955 72.087 115.965 72.8846ZM159.945 74.2286C157.033 74.2286 154.429 73.9206 152.133 73.3046C149.893 72.6886 147.961 71.7086 146.337 70.3646C144.769 69.0206 143.564 67.3406 142.725 65.3246C141.941 63.3086 141.549 60.9006 141.549 58.1006V45.5006H137.517C135.781 45.4446 134.577 44.9126 133.905 43.9046C133.233 42.8966 132.897 41.2726 132.897 39.0326C132.897 36.9046 133.289 35.3086 134.073 34.2446C134.913 33.1806 136.145 32.6486 137.769 32.6486H141.549V24.5006C141.549 23.3246 141.633 22.2606 141.801 21.3086C142.025 20.3006 142.613 19.5166 143.565 18.9566C144.517 18.3406 146.085 18.0326 148.269 18.0326C150.397 18.0326 151.937 18.3686 152.889 19.0406C153.84 19.6566 154.4 20.4966 154.568 21.5606C154.792 22.5686 154.905 23.6326 154.905 24.7526V32.5049L162.213 32.3126C163.333 32.3126 164.397 32.4246 165.405 32.6486C166.413 32.8166 167.225 33.3766 167.84 34.3286C168.512 35.2806 168.849 36.8486 168.849 39.0326C168.849 41.1046 168.512 42.6166 167.84 43.5686C167.225 44.5206 166.413 45.1366 165.405 45.4166C164.397 45.6406 163.305 45.7526 162.129 45.7526L154.905 45.601V57.5126C154.905 58.3526 155.017 59.0246 155.241 59.5286C155.521 60.0326 155.885 60.4246 156.333 60.7046C156.781 60.9846 157.313 61.2086 157.929 61.3766C158.545 61.4886 159.245 61.5446 160.029 61.5446C161.316 61.5446 162.465 61.6566 163.473 61.8806C164.48 62.0486 165.265 62.5526 165.825 63.3926C166.385 64.2326 166.665 65.6326 166.665 67.5926C166.665 69.7766 166.329 71.3446 165.657 72.2966C164.985 73.2486 164.117 73.8086 163.053 73.9766C162.045 74.1446 161.008 74.2286 159.945 74.2286Z" fill="#FABA5B"></path><path fill-rule="evenodd" clip-rule="evenodd" d="M19.2553 9.56677C8.84419 11.4952 1.06598 20.0691 0.965753 30.6568C0.941144 33.2563 0.963804 36.0651 1.05857 39.0278C1.19651 43.3402 1.22184 47.7236 1.24737 52.1428C1.28057 57.8892 1.31412 63.6961 1.59608 69.4857C1.68762 71.3653 1.91729 73.3245 2.22934 75.2652C3.83979 85.281 12.9957 91.788 23.1382 91.987C41.2666 92.3427 72.3297 92.4591 107.391 90.47C140.835 88.5726 168.708 85.282 185.583 82.9656C196.088 81.5236 204.489 73.349 205.159 62.7666C205.355 59.6713 205.399 56.7486 205.149 54.5721C203.959 44.2342 203.943 41.7757 203.896 34.9543C203.883 32.9691 203.867 30.6145 203.819 27.5885C203.758 23.7783 203.312 20.0581 202.704 16.6841C201.031 7.39635 192.69 1.37852 183.266 0.871682C171.012 0.212618 153.624 -0.403634 139.55 0.337872C125.329 1.08716 114.24 1.43717 103.151 1.78721C92.0684 2.13704 80.9849 2.48689 66.7721 3.23534C51.4549 4.04194 32.6578 7.08425 19.2553 9.56677ZM183.021 11.5886C183.17 12.423 183.188 13.3193 182.809 14.0794C182.431 14.8394 181.551 15.4042 180.73 15.2037C180.446 15.1374 180.186 14.9864 179.933 14.8334C179.524 14.5949 179.112 14.3435 178.785 14.002C178.444 13.6369 178.224 13.1843 178.019 12.7341C177.31 11.1521 176.747 8.08706 179.161 7.57674C181.328 7.11566 182.721 9.90675 183.021 11.5886ZM186.701 16.7211C187.308 16.8905 187.983 16.6013 188.378 16.1181C188.77 15.6285 188.92 14.9755 188.896 14.3558C188.876 13.7277 188.7 13.1205 188.506 12.5257C188.132 11.3535 187.136 9.69242 185.614 10.4022C185.089 10.6513 184.717 11.1625 184.514 11.7125C184.369 12.1103 184.31 12.5307 184.329 12.9545C184.378 13.9258 184.87 14.8147 185.425 15.6132C185.751 16.0887 186.144 16.5717 186.701 16.7211ZM190.26 22.8925C191.202 22.5479 191.882 21.5735 191.866 20.5709C191.849 19.5682 191.139 18.6141 190.18 18.3156C189.613 18.1382 189.018 18.1729 188.419 18.2079C187.996 18.2326 187.571 18.2574 187.153 18.2075C186.367 18.1119 185.657 17.7534 184.942 17.3927C184.539 17.189 184.134 16.9845 183.713 16.8264C182.556 16.3929 180.97 16.4674 180.392 17.5648C180.008 18.2868 180.228 19.0859 180.453 19.9038C180.605 20.4556 180.759 21.016 180.732 21.5669C180.703 22.1163 180.493 22.6309 180.284 23.1469C180.102 23.5935 179.92 24.0412 179.854 24.5131C179.664 25.8976 180.656 27.3415 182.027 27.6657C182.525 27.7844 183.065 27.7633 183.533 27.5601C184.154 27.3019 184.612 26.7708 185.026 26.2391C185.247 25.9559 185.46 25.6065 185.68 25.2447C186.121 24.5215 186.591 23.7493 187.216 23.3607C187.724 23.048 188.308 23.0478 188.895 23.0475C189.36 23.0473 189.827 23.0471 190.26 22.8925ZM175.504 17.448C176.143 17.6285 176.843 17.8036 177.445 17.5303C178.097 17.2343 178.429 16.4607 178.376 15.7512C178.318 15.0437 177.931 14.3969 177.471 13.8575C176.426 12.6277 174.217 11.1919 172.473 11.6257C170.33 12.1638 171.162 14.6373 172.226 15.8121C173.052 16.7298 174.311 17.1033 175.504 17.448ZM173.15 19.2788C175.239 18.2078 180.408 20.0124 178.364 22.859C178.049 23.303 177.524 23.5734 176.99 23.6776C176.45 23.7903 175.891 23.7472 175.349 23.6704C174.055 23.4773 172.453 22.5982 171.94 21.5748L171.786 21.0807C171.714 20.4688 172.075 19.834 173.15 19.2788ZM47.5374 73.7246C50.6174 74.5086 53.6414 74.9006 56.6094 74.9006C59.9694 74.9006 62.8534 74.5646 65.2614 73.8926C67.7254 73.2766 69.7134 72.5766 71.2254 71.7926C72.7934 71.0086 73.8854 70.4206 74.5014 70.0286C75.6214 69.3566 76.6294 68.6286 77.5254 67.8446C78.4214 67.0046 78.8694 65.9966 78.8694 64.8206C78.9254 64.2046 78.8134 63.5326 78.5334 62.8046C78.2534 62.0206 77.8334 61.2366 77.2734 60.4526C76.3774 59.0526 75.4814 58.0166 74.5854 57.3446C73.7454 56.6726 72.9054 56.3366 72.0654 56.3366C71.4494 56.3366 70.8054 56.5046 70.1334 56.8406C69.4614 57.1206 68.7894 57.4846 68.1174 57.9326C67.4454 58.3806 66.5494 58.8846 65.4294 59.4446C64.3654 59.9486 63.0774 60.3686 61.5654 60.7046C60.1094 61.0406 58.3454 61.2086 56.2734 61.2086C53.9774 61.2086 51.7094 60.8726 49.4694 60.2006C47.2294 59.5286 45.2134 58.5206 43.4214 57.1766C41.6854 55.8326 40.2854 54.1526 39.2214 52.1366C38.1574 50.0646 37.6254 47.6566 37.6254 44.9126C37.6254 42.1686 38.1294 39.7606 39.1374 37.6886C40.2014 35.6166 41.6014 33.9086 43.3374 32.5646C45.1294 31.2206 47.1454 30.2126 49.3854 29.5406C51.6254 28.8686 53.9214 28.5326 56.2734 28.5326C58.5694 28.5326 60.4734 28.7286 61.9854 29.1206C63.4974 29.4566 64.7014 29.8766 65.5974 30.3806C66.5494 30.8286 67.2774 31.2206 67.7814 31.5566C68.6774 32.1166 69.4334 32.5646 70.0494 32.9006C70.7214 33.2366 71.3934 33.4046 72.0654 33.4046C72.9054 33.4046 73.7454 33.0966 74.5854 32.4806C75.4814 31.8086 76.4054 30.8006 77.3574 29.4566C77.8614 28.7286 78.2534 28.0286 78.5334 27.3566C78.8134 26.6286 78.9534 25.9286 78.9534 25.2566C78.9534 24.0246 78.5054 22.9886 77.6094 22.1486C76.7134 21.3086 75.7054 20.5526 74.5854 19.8806C73.9694 19.4886 72.8494 18.9006 71.2254 18.1166C69.6574 17.3326 67.6414 16.6046 65.1774 15.9326C62.7694 15.2606 59.9694 14.9246 56.7774 14.9246C53.7534 14.9246 50.6734 15.3166 47.5374 16.1006C44.4574 16.8846 41.5174 18.0606 38.7174 19.6286C35.9174 21.1406 33.3974 23.0726 31.1574 25.4246C28.9734 27.7766 27.2374 30.5486 25.9494 33.7406C24.7174 36.8766 24.1014 40.4606 24.1014 44.4926C24.1014 48.6366 24.7174 52.3606 25.9494 55.6646C27.2374 58.9126 28.9734 61.7686 31.1574 64.2326C33.3974 66.6406 35.9174 68.6286 38.7174 70.1966C41.5734 71.7646 44.5134 72.9406 47.5374 73.7246ZM115.965 72.8846C117.029 73.7246 118.653 74.1446 120.837 74.1446C123.077 74.1446 124.645 73.8366 125.541 73.2206C126.493 72.5486 127.053 71.7086 127.221 70.7006C127.445 69.6366 127.557 68.5446 127.557 67.4246V38.8646C127.557 37.7446 127.445 36.6526 127.221 35.5886C127.053 34.5246 126.493 33.6846 125.541 33.0686C124.645 32.3966 123.105 32.0606 120.921 32.0606C118.681 32.0606 117.029 32.4526 115.965 33.2366C114.935 33.9957 114.43 35.0172 114.45 36.3013C114.032 35.8677 113.53 35.4342 112.941 35.0006C111.877 34.2166 110.505 33.5446 108.825 32.9846C107.201 32.4246 105.241 32.1446 102.945 32.1446C99.9773 32.1446 97.2333 32.7046 94.7133 33.8246C92.2493 34.8886 90.0653 36.4006 88.1613 38.3606C86.2573 40.2646 84.7733 42.4766 83.7093 44.9966C82.6453 47.5166 82.1133 50.1766 82.1133 52.9766C82.1133 55.8326 82.6453 58.5486 83.7093 61.1246C84.7733 63.6446 86.2293 65.8846 88.0773 67.8446C89.9813 69.8046 92.1933 71.3446 94.7133 72.4646C97.2333 73.5846 99.9493 74.1446 102.861 74.1446C105.325 74.1446 107.397 73.8646 109.077 73.3046C110.813 72.6886 112.185 71.9886 113.193 71.2046C113.648 70.8456 114.041 70.507 114.373 70.189C114.424 71.1885 114.955 72.087 115.965 72.8846ZM159.945 74.2286C157.033 74.2286 154.429 73.9206 152.133 73.3046C149.893 72.6886 147.961 71.7086 146.337 70.3646C144.769 69.0206 143.564 67.3406 142.725 65.3246C141.941 63.3086 141.549 60.9006 141.549 58.1006V45.5006H137.517C135.781 45.4446 134.577 44.9126 133.905 43.9046C133.233 42.8966 132.897 41.2726 132.897 39.0326C132.897 36.9046 133.289 35.3086 134.073 34.2446C134.913 33.1806 136.145 32.6486 137.769 32.6486H141.549V24.5006C141.549 23.3246 141.633 22.2606 141.801 21.3086C142.025 20.3006 142.613 19.5166 143.565 18.9566C144.517 18.3406 146.085 18.0326 148.269 18.0326C150.397 18.0326 151.937 18.3686 152.889 19.0406C153.84 19.6566 154.4 20.4966 154.568 21.5606C154.792 22.5686 154.905 23.6326 154.905 24.7526V32.5049L162.213 32.3126C163.333 32.3126 164.397 32.4246 165.405 32.6486C166.413 32.8166 167.225 33.3766 167.84 34.3286C168.512 35.2806 168.849 36.8486 168.849 39.0326C168.849 41.1046 168.512 42.6166 167.84 43.5686C167.225 44.5206 166.413 45.1366 165.405 45.4166C164.397 45.6406 163.305 45.7526 162.129 45.7526L154.905 45.601V57.5126C154.905 58.3526 155.017 59.0246 155.241 59.5286C155.521 60.0326 155.885 60.4246 156.333 60.7046C156.781 60.9846 157.313 61.2086 157.929 61.3766C158.545 61.4886 159.245 61.5446 160.029 61.5446C161.316 61.5446 162.465 61.6566 163.473 61.8806C164.48 62.0486 165.265 62.5526 165.825 63.3926C166.385 64.2326 166.665 65.6326 166.665 67.5926C166.665 69.7766 166.329 71.3446 165.657 72.2966C164.985 73.2486 164.117 73.8086 163.053 73.9766C162.045 74.1446 161.008 74.2286 159.945 74.2286Z" fill="#F9F9F9" fill-opacity="0.83"></path></svg> 