<?xml version="1.0" encoding="UTF-8"?> <svg xmlns="http://www.w3.org/2000/svg" width="26" height="26" viewBox="0 0 26 26" fill="none"><g clip-path="url(#clip0_80_2)"><path d="M18.962 0H7.03796C3.15717 0 0 3.15717 0 7.03796V18.9622C0 22.8428 3.15717 26 7.03796 26H18.9622C22.8428 26 26 22.8428 26 18.9622V7.03796C26 3.15717 22.8428 0 18.962 0ZM24.4758 18.9622C24.4758 22.0024 22.0024 24.4758 18.962 24.4758H7.03796C3.99763 24.4758 1.52423 22.0024 1.52423 18.9622V7.03796C1.52423 3.99763 3.99763 1.52423 7.03796 1.52423H18.9622C22.0024 1.52423 24.4758 3.99763 24.4758 7.03796V18.9622Z" fill="#242424"></path><path d="M13 5.89087C9.07993 5.89087 5.89082 9.07997 5.89082 13C5.89082 16.9201 9.07993 20.1092 13 20.1092C16.9201 20.1092 20.1092 16.9201 20.1092 13C20.1092 9.07997 16.9201 5.89087 13 5.89087ZM13 18.585C9.92059 18.585 7.41505 16.0797 7.41505 13C7.41505 9.92064 9.92059 7.4151 13 7.4151C16.0796 7.4151 18.5849 9.92064 18.5849 13C18.5849 16.0797 16.0796 18.585 13 18.585Z" fill="#242424"></path><path d="M20.2791 3.36609C19.1207 3.36609 18.1785 4.30852 18.1785 5.46677C18.1785 6.62521 19.1207 7.56764 20.2791 7.56764C21.4376 7.56764 22.38 6.62521 22.38 5.46677C22.38 4.30832 21.4376 3.36609 20.2791 3.36609ZM20.2791 6.04321C19.9614 6.04321 19.7027 5.78455 19.7027 5.46677C19.7027 5.14879 19.9614 4.89032 20.2791 4.89032C20.5971 4.89032 20.8558 5.14879 20.8558 5.46677C20.8558 5.78455 20.5971 6.04321 20.2791 6.04321Z" fill="#242424"></path></g><defs><clipPath id="clip0_80_2"><rect width="26" height="26" fill="white"></rect></clipPath></defs></svg> 